{
.appVersion = "1363";
classes = (
{
automatic = 1;

glyphs = (
{
glyphname = A;
layers = (
{
anchors = (
{
name = bottom;
position = "{256, 0}";
},
{
name = ogonek;
position = "{450, 0}";
},
{
name = top;
position = "{372, 730}";
}
);
layerId = "EDF5EB54-295C-4C90-9A2F-67CD82979CFF";
paths = (
{
closed = 1;
nodes = (
"76 0 LINE",
"165 210 LINE",
"415 210 LINE",
"438 0 LINE",
"488 0 LINE",
"403 730 LINE",
"341 730 LINE",
"24 0 LINE"
);
},
{
closed = 1;
nodes = (
"311 550 LINE SMOOTH",
"342 622 OFFCURVE",
"362 673 OFFCURVE",
"367 688 CURVE",
"368 673 OFFCURVE",
"370 622 OFFCURVE",
"378 550 CURVE SMOOTH",
"410 255 LINE",
"184 255 LINE"
);
}
);
width = 600;
},
{
anchors = (
{
name = bottom;
position = "{256, 0}";
},
{
name = ogonek;
position = "{430, 0}";
},
{
name = top;
position = "{372, 730}";
}
);
layerId = "9ADF6715-3D0F-493D-8567-18A6FBCFC567";
paths = (
{
closed = 1;
nodes = (
"138 0 LINE",
"199 165 LINE",
"373 165 LINE",
"382 0 LINE",
"531 0 LINE",
"466 730 LINE",
"276 730 LINE",
"-19 0 LINE"
);
},
{
closed = 1;
nodes = (
"308 462 LINE SMOOTH",
"326 512 OFFCURVE",
"343 567 OFFCURVE",
"352 595 CURVE",
"353 567 OFFCURVE",
"357 512 OFFCURVE",
"359 461 CURVE SMOOTH",
"366 285 LINE",
"243 285 LINE"
);
}
);
width = 600;
},
{
anchors = (
{
name = bottom;
position = "{256, 0}";
},
{
name = ogonek;
position = "{455, 0}";
},
{
name = top;
position = "{372, 730}";
}
);
layerId = "CCC0BD40-BA8C-414E-B576-CF0B94E6C996";
paths = (
{
closed = 1;
nodes = (
"101 0 LINE",
"180 194 LINE",
"401 194 LINE",
"418 0 LINE",
"506 0 LINE",
"433 730 LINE",
"312 730 LINE",
"6 0 LINE"
);
},
{
closed = 1;
nodes = (
"302 496 LINE SMOOTH",
"336 580 OFFCURVE",
"357 640 OFFCURVE",
"363 658 CURVE",
"363 640 OFFCURVE",
"365 580 OFFCURVE",
"373 495 CURVE SMOOTH",
"394 270 LINE",
"210 270 LINE"
);
}
);
width = 600;
}
);
unicode = 0041;
},
{
glyphname = Aogonek;
layers = (
{
components = (
{
name = A;
}
);
layerId = "EDF5EB54-295C-4C90-9A2F-67CD82979CFF";
paths = (
{
closed = 1;
nodes = (
"497 -195 LINE",
"504 -153 LINE",
"440 -153 LINE SMOOTH",
"408 -153 OFFCURVE",
"392 -134 OFFCURVE",
"397 -103 CURVE SMOOTH",
"401 -75 OFFCURVE",
"430 -36 OFFCURVE",
"474 0 CURVE SMOOTH",
"487 10 LINE",
"450 10 LINE",
"393 -27 OFFCURVE",
"354 -74 OFFCURVE",
"348 -115 CURVE SMOOTH",
"340 -165 OFFCURVE",
"369 -195 OFFCURVE",
"424 -195 CURVE"
);
}
);
width = 600;
},
{
components = (
{
name = A;
}
);
layerId = "CCC0BD40-BA8C-414E-B576-CF0B94E6C996";
paths = (
{
closed = 1;
nodes = (
"509 -203 LINE",
"518 -143 LINE",
"458 -143 LINE SMOOTH",
"424 -143 OFFCURVE",
"407 -122 OFFCURVE",
"411 -93 CURVE SMOOTH",
"416 -65 OFFCURVE",
"439 -36 OFFCURVE",
"490 1 CURVE",
"503 10 LINE",
"428 10 LINE",
"358 -34 OFFCURVE",
"330 -72 OFFCURVE",
"324 -110 CURVE SMOOTH",
"315 -164 OFFCURVE",
"357 -203 OFFCURVE",
"431 -203 CURVE SMOOTH"
);
}
);
width = 600;
},
{
components = (
{
name = A;
}
);
layerId = "9ADF6715-3D0F-493D-8567-18A6FBCFC567";
paths = (
{
closed = 1;
nodes = (
"492 -225 LINE",
"509 -120 LINE",
"440 -120 LINE SMOOTH",
"411 -120 OFFCURVE",
"397 -103 OFFCURVE",
"400 -83 CURVE SMOOTH",
"403 -66 OFFCURVE",
"421 -42 OFFCURVE",
"451 -18 CURVE SMOOTH",
"488 11 LINE",
"402 11 LINE",
"329 -19 OFFCURVE",
"278 -68 OFFCURVE",
"271 -115 CURVE SMOOTH",
"260 -180 OFFCURVE",
"303 -225 OFFCURVE",
"384 -225 CURVE SMOOTH"
);
}
);
width = 600;
}
);
unicode = 0104;
},
{
glyphname = AE;
layers = (
{
anchors = (
{
name = bottom;
position = "{256, 0}";
},
{
name = top;
position = "{372, 730}";
}
);
layerId = "9ADF6715-3D0F-493D-8567-18A6FBCFC567";
paths = (
{
closed = 1;
nodes = (
"99 0 LINE",
"151 165 LINE",
"273 165 LINE",
"247 0 LINE",
"536 0 LINE",
"556 126 LINE",
"392 126 LINE",
"420 305 LINE",
"559 305 LINE",
"580 436 LINE",
"441 436 LINE",
"468 605 LINE",
"632 605 LINE",
"652 730 LINE",
"209 730 LINE",
"-44 0 LINE"
);
},
{
closed = 1;
nodes = (
"294 605 LINE",
"343 605 LINE",
"290 270 LINE",
"185 270 LINE"
);
}
);
width = 600;
},
{
anchors = (
{
name = bottom;
position = "{256, 0}";
},
{
name = top;
position = "{372, 730}";
}
);
layerId = "CCC0BD40-BA8C-414E-B576-CF0B94E6C996";
paths = (
{
closed = 1;
nodes = (
"77 0 LINE",
"149 203 LINE",
"290 203 LINE",
"258 0 LINE",
"526 0 LINE",
"539 82 LINE",
"357 82 LINE",
"398 338 LINE",
"555 338 LINE",
"568 420 LINE",
"411 420 LINE",
"447 648 LINE",
"629 648 LINE",
"642 730 LINE",
"247 730 LINE",
"-14 0 LINE"
);
},
{
closed = 1;
nodes = (
"305 648 LINE",
"361 648 LINE",
"302 278 LINE",
"175 278 LINE"
);
}
);
width = 600;
},
{
anchors = (
{
name = bottom;
position = "{256, 0}";
},
{
name = top;
position = "{372, 730}";
}
);
layerId = "EDF5EB54-295C-4C90-9A2F-67CD82979CFF";
paths = (
{
closed = 1;
nodes = (
"40 0 LINE",
"130 215 LINE",
"300 215 LINE",
"266 0 LINE",
"525 0 LINE",
"532 45 LINE",
"323 45 LINE",
"373 357 LINE",
"546 357 LINE",
"553 402 LINE",
"380 402 LINE",
"424 685 LINE",
"633 685 LINE",
"641 730 LINE",
"294 730 LINE",
"-10 0 LINE"
);
},
{
closed = 1;
nodes = (
"323 685 LINE",
"374 685 LINE",
"307 260 LINE",
"150 260 LINE"
);
}
);
width = 600;
}
);
unicode = 00C6;
},
{
glyphname = B;
layers = (
{
anchors = (
{
name = bottom;
position = "{256, 0}";
},
{
name = top;
position = "{372, 730}";
}
);
layerId = "9ADF6715-3D0F-493D-8567-18A6FBCFC567";
paths = (
{
closed = 1;
nodes = (
"266 0 LINE SMOOTH",
"425 0 OFFCURVE",
"529 77 OFFCURVE",
"550 211 CURVE SMOOTH",
"565 304 OFFCURVE",
"520 378 OFFCURVE",
"439 387 CURVE",
"440 389 LINE",
"513 399 OFFCURVE",
"573 459 OFFCURVE",
"586 542 CURVE SMOOTH",
"603 651 OFFCURVE",
"515 730 OFFCURVE",
"373 730 CURVE SMOOTH",
"138 730 LINE",
"22 0 LINE"
);
},
{
closed = 1;
nodes = (
"217 318 LINE",
"311 318 LINE SMOOTH",
"376 318 OFFCURVE",
"410 280 OFFCURVE",
"401 219 CURVE SMOOTH",
"391 158 OFFCURVE",
"345 121 OFFCURVE",
"280 121 CURVE SMOOTH",
"186 121 LINE"
);
},
{
closed = 1;
nodes = (
"263 609 LINE",
"351 609 LINE SMOOTH",
"409 609 OFFCURVE",
"440 577 OFFCURVE",
"432 523 CURVE SMOOTH",
"423 469 OFFCURVE",
"382 436 OFFCURVE",
"324 436 CURVE SMOOTH",
"236 436 LINE"
);
}
);
width = 600;
},
{
anchors = (
{
name = bottom;
position = "{256, 0}";
},
{
name = top;
position = "{372, 730}";
}
);
layerId = "CCC0BD40-BA8C-414E-B576-CF0B94E6C996";
paths = (
{
closed = 1;
nodes = (
"271 0 LINE SMOOTH",
"404 0 OFFCURVE",
"498 78 OFFCURVE",
"518 203 CURVE SMOOTH",
"533 295 OFFCURVE",
"486 370 OFFCURVE",
"401 381 CURVE",
"402 384 LINE",
"480 399 OFFCURVE",
"543 466 OFFCURVE",
"555 541 CURVE SMOOTH",
"573 659 OFFCURVE",
"505 730 OFFCURVE",
"372 730 CURVE SMOOTH",
"165 730 LINE",
"49 0 LINE"
);
},
{
closed = 1;
nodes = (
"191 341 LINE",
"315 341 LINE SMOOTH",
"399 341 OFFCURVE",
"442 286 OFFCURVE",
"430 206 CURVE SMOOTH",
"417 129 OFFCURVE",
"358 81 OFFCURVE",
"274 81 CURVE SMOOTH",
"150 81 LINE"
);
},
{
closed = 1;
nodes = (
"240 649 LINE",
"359 649 LINE SMOOTH",
"436 649 OFFCURVE",
"476 605 OFFCURVE",
"465 534 CURVE SMOOTH",
"453 463 OFFCURVE",
"398 419 OFFCURVE",
"321 419 CURVE SMOOTH",
"203 419 LINE"
);
}
);
width = 600;
},
{
anchors = (
{
name = bottom;
position = "{256, 0}";
},
{
name = top;
position = "{372, 730}";
}
);
layerId = "EDF5EB54-295C-4C90-9A2F-67CD82979CFF";
paths = (
{
closed = 1;
nodes = (
"257 0 LINE SMOOTH",
"393 0 OFFCURVE",
"482 73 OFFCURVE",
"503 200 CURVE SMOOTH",
"517 289 OFFCURVE",
"469 368 OFFCURVE",
"391 381 CURVE",
"392 384 LINE",
"464 397 OFFCURVE",
"528 467 OFFCURVE",
"540 542 CURVE SMOOTH",
"558 656 OFFCURVE",
"491 730 OFFCURVE",
"370 730 CURVE SMOOTH",
"182 730 LINE",
"66 0 LINE"
);
},
{
closed = 1;
nodes = (
"172 353 LINE",
"313 353 LINE SMOOTH",
"415 353 OFFCURVE",
"469 294 OFFCURVE",
"454 199 CURVE SMOOTH",
"438 104 OFFCURVE",
"366 46 OFFCURVE",
"264 46 CURVE SMOOTH",
"123 46 LINE"
);
},
{
closed = 1;
nodes = (
"224 684 LINE",
"362 684 LINE SMOOTH",
"455 684 OFFCURVE",
"504 630 OFFCURVE",
"490 541 CURVE SMOOTH",
"476 452 OFFCURVE",
"411 398 OFFCURVE",
"317 398 CURVE SMOOTH",
"179 398 LINE"
);
}
);
width = 600;
}
);
unicode = 0042;
},
{
glyphname = C;
layers = (
{
anchors = (
{
name = bottom;
position = "{261, 0}";
},
{
name = top;
position = "{377, 730}";
}
);
layerId = "9ADF6715-3D0F-493D-8567-18A6FBCFC567";
paths = (
{
closed = 1;
nodes = (
"417 -10 OFFCURVE",
"519 70 OFFCURVE",
"541 210 CURVE",
"391 210 LINE",
"382 152 OFFCURVE",
"343 120 OFFCURVE",
"283 120 CURVE SMOOTH",
"223 120 OFFCURVE",
"194 152 OFFCURVE",
"203 210 CURVE SMOOTH",
"252 520 LINE SMOOTH",
"262 578 OFFCURVE",
"301 610 OFFCURVE",
"361 610 CURVE SMOOTH",
"421 610 OFFCURVE",
"450 578 OFFCURVE",
"440 520 CURVE",
"590 520 LINE",
"610 649 OFFCURVE",
"524 740 OFFCURVE",
"381 740 CURVE SMOOTH",
"226 740 OFFCURVE",
"124 660 OFFCURVE",
"102 520 CURVE SMOOTH",
"53 210 LINE SMOOTH",
"32 78 OFFCURVE",
"115 -10 OFFCURVE",
"262 -10 CURVE SMOOTH"
);
}
);
width = 600;
},
{
anchors = (
{
name = bottom;
position = "{261, 0}";
},
{
name = top;
position = "{377, 730}";
}
);
layerId = "EDF5EB54-295C-4C90-9A2F-67CD82979CFF";
paths = (
{
closed = 1;
nodes = (
"391 -10 OFFCURVE",
"480 69 OFFCURVE",
"502 200 CURVE",
"452 200 LINE",
"436 98 OFFCURVE",
"368 35 OFFCURVE",
"272 35 CURVE SMOOTH",
"178 35 OFFCURVE",
"130 94 OFFCURVE",
"145 190 CURVE SMOOTH",
"201 540 LINE SMOOTH",
"216 636 OFFCURVE",
"283 695 OFFCURVE",
"376 695 CURVE SMOOTH",
"471 695 OFFCURVE",
"520 632 OFFCURVE",
"504 530 CURVE",
"554 530 LINE",
"574 658 OFFCURVE",
"507 740 OFFCURVE",
"383 740 CURVE SMOOTH",
"258 740 OFFCURVE",
"171 665 OFFCURVE",
"151 540 CURVE SMOOTH",
"95 190 LINE SMOOTH",
"76 69 OFFCURVE",
"142 -10 OFFCURVE",
"264 -10 CURVE SMOOTH"
);
}
);
width = 600;
},
{
anchors = (
{
name = bottom;
position = "{261, 0}";
},
{
name = top;
position = "{377, 730}";
}
);
layerId = "CCC0BD40-BA8C-414E-B576-CF0B94E6C996";
paths = (
{
closed = 1;
nodes = (
"398 -10 OFFCURVE",
"488 67 OFFCURVE",
"510 200 CURVE",
"420 200 LINE",
"408 121 OFFCURVE",
"352 71 OFFCURVE",
"275 71 CURVE SMOOTH",
"198 71 OFFCURVE",
"158 121 OFFCURVE",
"170 200 CURVE SMOOTH",
"222 530 LINE SMOOTH",
"234 609 OFFCURVE",
"291 659 OFFCURVE",
"368 659 CURVE SMOOTH",
"444 659 OFFCURVE",
"484 609 OFFCURVE",
"472 530 CURVE",
"562 530 LINE",
"582 655 OFFCURVE",
"509 740 OFFCURVE",
"381 740 CURVE SMOOTH",
"244 740 OFFCURVE",
"154 663 OFFCURVE",
"132 530 CURVE SMOOTH",
"80 200 LINE SMOOTH",
"60 71 OFFCURVE",
"130 -10 OFFCURVE",
"262 -10 CURVE SMOOTH"
);
}
);
width = 600;
}
);
unicode = 0043;
},
{
glyphname = Ccedilla;
layers = (
{
components = (
{
name = C;
}
);
layerId = "EDF5EB54-295C-4C90-9A2F-67CD82979CFF";
paths = (
{
closed = 1;
nodes = (
"245 -195 LINE SMOOTH",
"305 -195 OFFCURVE",
"350 -161 OFFCURVE",
"357 -118 CURVE SMOOTH",
"366 -61 OFFCURVE",
"307 -37 OFFCURVE",
"260 -34 CURVE",
"293 26 LINE",
"251 26 LINE",
"202 -64 LINE",
"273 -64 OFFCURVE",
"316 -86 OFFCURVE",
"311 -118 CURVE SMOOTH",
"308 -140 OFFCURVE",
"283 -160 OFFCURVE",
"251 -160 CURVE SMOOTH",
"171 -160 LINE",
"165 -195 LINE"
);
}
);
width = 600;
},
{
components = (
{
name = C;
}
);
layerId = "CCC0BD40-BA8C-414E-B576-CF0B94E6C996";
paths = (
{
closed = 1;
nodes = (
"219 -203 LINE SMOOTH",
"291 -203 OFFCURVE",
"345 -166 OFFCURVE",
"352 -120 CURVE SMOOTH",
"360 -68 OFFCURVE",
"297 -41 OFFCURVE",
"245 -35 CURVE",
"276 26 LINE",
"219 26 LINE",
"169 -69 LINE",
"236 -69 OFFCURVE",
"271 -89 OFFCURVE",
"267 -112 CURVE SMOOTH",
"264 -130 OFFCURVE",
"242 -148 OFFCURVE",
"213 -148 CURVE SMOOTH",
"143 -148 LINE",
"134 -203 LINE"
);
}
);
width = 600;
},
{
components = (
{
name = C;
}
);
layerId = "9ADF6715-3D0F-493D-8567-18A6FBCFC567";
paths = (
{
closed = 1;
nodes = (
"230 -225 LINE SMOOTH",
"314 -225 OFFCURVE",
"377 -182 OFFCURVE",
"385 -133 CURVE SMOOTH",
"395 -72 OFFCURVE",
"318 -43 OFFCURVE",
"258 -39 CURVE",
"286 16 LINE",
"213 16 LINE",
"164 -69 LINE",
"237 -69 OFFCURVE",
"277 -88 OFFCURVE",
"272 -119 CURVE SMOOTH",
"270 -135 OFFCURVE",
"244 -155 OFFCURVE",
"211 -155 CURVE SMOOTH",
"131 -155 LINE",
"120 -225 LINE"
);
}
);
width = 600;
}
);
unicode = 00C7;
},
{
glyphname = D;
layers = (
{
anchors = (
{
name = bottom;
position = "{256, 0}";
},
{
name = center;
position = "{314, 365}";
},
{
name = top;
position = "{372, 730}";
}
);
layerId = "9ADF6715-3D0F-493D-8567-18A6FBCFC567";
paths = (
{
closed = 1;
nodes = (
"256 0 LINE SMOOTH",
"407 0 OFFCURVE",
"523 94 OFFCURVE",
"545 235 CURVE SMOOTH",
"587 496 LINE SMOOTH",
"609 637 OFFCURVE",
"523 730 OFFCURVE",
"372 730 CURVE SMOOTH",
"135 730 LINE",
"19 0 LINE"
);
},
{
closed = 1;
nodes = (
"262 590 LINE",
"349 590 LINE SMOOTH",
"410 590 OFFCURVE",
"445 552 OFFCURVE",
"437 496 CURVE SMOOTH",
"395 235 LINE SMOOTH",
"386 178 OFFCURVE",
"339 140 OFFCURVE",
"278 140 CURVE SMOOTH",
"191 140 LINE"
);
}
);
width = 600;
},
{
anchors = (
{
name = bottom;
position = "{256, 0}";
},
{
name = center;
position = "{314, 365}";
},
{
name = top;
position = "{372, 730}";
}
);
layerId = "CCC0BD40-BA8C-414E-B576-CF0B94E6C996";
paths = (
{
closed = 1;
nodes = (
"237 0 LINE SMOOTH",
"378 0 OFFCURVE",
"482 86 OFFCURVE",
"503 220 CURVE SMOOTH",
"549 511 LINE SMOOTH",
"570 644 OFFCURVE",
"494 730 OFFCURVE",
"353 730 CURVE SMOOTH",
"164 730 LINE",
"48 0 LINE"
);
},
{
closed = 1;
nodes = (
"241 650 LINE",
"340 650 LINE SMOOTH",
"428 650 OFFCURVE",
"473 598 OFFCURVE",
"459 511 CURVE SMOOTH",
"413 220 LINE SMOOTH",
"399 132 OFFCURVE",
"338 80 OFFCURVE",
"250 80 CURVE SMOOTH",
"151 80 LINE"
);
}
);
width = 600;
},
{
anchors = (
{
name = bottom;
position = "{256, 0}";
},
{
name = center;
position = "{314, 365}";
},
{
name = top;
position = "{372, 730}";
}
);
layerId = "EDF5EB54-295C-4C90-9A2F-67CD82979CFF";
paths = (
{
closed = 1;
nodes = (
"226 0 LINE SMOOTH",
"361 0 OFFCURVE",
"465 88 OFFCURVE",
"486 220 CURVE SMOOTH",
"532 510 LINE SMOOTH",
"553 642 OFFCURVE",
"477 730 OFFCURVE",
"342 730 CURVE SMOOTH",
"182 730 LINE",
"66 0 LINE"
);
},
{
closed = 1;
nodes = (
"224 684 LINE",
"334 684 LINE SMOOTH",
"438 684 OFFCURVE",
"498 614 OFFCURVE",
"482 510 CURVE SMOOTH",
"436 220 LINE SMOOTH",
"419 115 OFFCURVE",
"338 46 OFFCURVE",
"233 46 CURVE SMOOTH",
"123 46 LINE"
);
}
);
width = 600;
}
);
unicode = 0044;
},
{
glyphname = Eth;
layers = (
{
components = (
{
name = D;
}
);
layerId = "9ADF6715-3D0F-493D-8567-18A6FBCFC567";
paths = (
{
closed = 1;
nodes = (
"282 325 LINE",
"298 420 LINE",
"18 420 LINE",
"2 325 LINE"
);
}
);
width = 600;
},
{
components = (
{
name = D;
}
);
layerId = "CCC0BD40-BA8C-414E-B576-CF0B94E6C996";
paths = (
{
closed = 1;
nodes = (
"290 335 LINE",
"302 410 LINE",
"22 410 LINE",
"10 335 LINE"
);
}
);
width = 600;
},
{
components = (
{
name = D;
}
);
layerId = "EDF5EB54-295C-4C90-9A2F-67CD82979CFF";
paths = (
{
closed = 1;
nodes = (
"290 351 LINE",
"290 395 LINE",
"10 395 LINE",
"10 351 LINE"
);
}
);
width = 600;
}
);
unicode = 00D0;
},
{
glyphname = Dcroat;
layers = (
{
components = (
{
name = D;
}
);
layerId = "EDF5EB54-295C-4C90-9A2F-67CD82979CFF";
paths = (
{
closed = 1;
nodes = (
"290 351 LINE",
"297 395 LINE",
"17 395 LINE",
"10 351 LINE"
);
}
);
width = 600;
},
{
components = (
{
name = D;
}
);
layerId = "CCC0BD40-BA8C-414E-B576-CF0B94E6C996";
paths = (
{
closed = 1;
nodes = (
"290 335 LINE",
"302 410 LINE",
"22 410 LINE",
"10 335 LINE"
);
}
);
width = 600;
},
{
components = (
{
name = D;
}
);
layerId = "9ADF6715-3D0F-493D-8567-18A6FBCFC567";
paths = (
{
closed = 1;
nodes = (
"290 325 LINE",
"305 420 LINE",
"25 420 LINE",
"10 325 LINE"
);
}
);
width = 600;
}
);
unicode = 0110;
},
{
glyphname = E;
layers = (
{
anchors = (
{
name = bottom;
position = "{305, 0}";
},
{
name = ogonek;
position = "{380, 0}";
},
{
name = top;
position = "{377, 730}";
},
{
name = topleft;
position = "{92, 730}";
}
);
layerId = "9ADF6715-3D0F-493D-8567-18A6FBCFC567";
paths = (
{
closed = 1;
nodes = (
"486 0 LINE",
"506 128 LINE",
"203 128 LINE",
"232 310 LINE",
"500 310 LINE",
"520 438 LINE",
"252 438 LINE",
"278 602 LINE",
"581 602 LINE",
"602 730 LINE",
"152 730 LINE",
"36 0 LINE"
);
}
);
width = 600;
},
{
anchors = (
{
name = bottom;
position = "{310, 0}";
},
{
name = ogonek;
position = "{390, 0}";
},
{
name = top;
position = "{382, 730}";
},
{
name = topleft;
position = "{92, 730}";
}
);
layerId = "CCC0BD40-BA8C-414E-B576-CF0B94E6C996";
paths = (
{
closed = 1;
nodes = (
"476 0 LINE",
"489 82 LINE",
"158 82 LINE",
"199 341 LINE",
"495 341 LINE",
"508 422 LINE",
"212 422 LINE",
"248 648 LINE",
"579 648 LINE",
"592 730 LINE",
"172 730 LINE",
"56 0 LINE"
);
}
);
width = 600;
},
{
anchors = (
{
name = bottom;
position = "{315, 0}";
},
{
name = ogonek;
position = "{400, 0}";
},
{
name = top;
position = "{387, 730}";
},
{
name = topleft;
position = "{92, 730}";
}
);
layerId = "EDF5EB54-295C-4C90-9A2F-67CD82979CFF";
paths = (
{
closed = 1;
nodes = (
"466 0 LINE",
"473 46 LINE",
"133 46 LINE",
"183 358 LINE",
"488 358 LINE",
"495 403 LINE",
"190 403 LINE",
"234 684 LINE",
"574 684 LINE",
"582 730 LINE",
"192 730 LINE",
"76 0 LINE"
);
}
);
width = 600;
}
);
unicode = 0045;
},
{
glyphname = Eogonek;
layers = (
{
components = (
{
alignment = -1;
name = E;
}
);
layerId = "9ADF6715-3D0F-493D-8567-18A6FBCFC567";
paths = (
{
closed = 1;
nodes = (
"454 -225 LINE",
"471 -120 LINE",
"402 -120 LINE SMOOTH",
"373 -120 OFFCURVE",
"359 -103 OFFCURVE",
"362 -83 CURVE SMOOTH",
"365 -66 OFFCURVE",
"383 -42 OFFCURVE",
"413 -18 CURVE SMOOTH",
"450 11 LINE",
"364 11 LINE",
"291 -19 OFFCURVE",
"240 -68 OFFCURVE",
"233 -115 CURVE SMOOTH",
"222 -180 OFFCURVE",
"265 -225 OFFCURVE",
"346 -225 CURVE SMOOTH"
);
}
);
width = 600;
},
{
components = (
{
alignment = -1;
name = E;
}
);
layerId = "CCC0BD40-BA8C-414E-B576-CF0B94E6C996";
paths = (
{
closed = 1;
nodes = (
"449 -203 LINE",
"458 -143 LINE",
"398 -143 LINE SMOOTH",
"364 -143 OFFCURVE",
"347 -122 OFFCURVE",
"351 -93 CURVE SMOOTH",
"356 -65 OFFCURVE",
"379 -36 OFFCURVE",
"430 1 CURVE",
"443 10 LINE",
"368 10 LINE",
"298 -34 OFFCURVE",
"270 -72 OFFCURVE",
"264 -110 CURVE SMOOTH",
"255 -164 OFFCURVE",
"297 -203 OFFCURVE",
"371 -203 CURVE SMOOTH"
);
}
);
width = 600;
},
{
components = (
{
alignment = -1;
name = E;
}
);
layerId = "EDF5EB54-295C-4C90-9A2F-67CD82979CFF";
paths = (
{
closed = 1;
nodes = (
"440 -195 LINE",
"447 -153 LINE",
"383 -153 LINE SMOOTH",
"351 -153 OFFCURVE",
"335 -134 OFFCURVE",
"340 -103 CURVE SMOOTH",
"344 -75 OFFCURVE",
"373 -36 OFFCURVE",
"417 0 CURVE SMOOTH",
"430 10 LINE",
"393 10 LINE",
"336 -27 OFFCURVE",
"297 -74 OFFCURVE",
"291 -115 CURVE SMOOTH",
"283 -165 OFFCURVE",
"312 -195 OFFCURVE",
"367 -195 CURVE"
);
}
);
width = 600;
}
);
unicode = 0118;
},
{
glyphname = Eopen;
layers = (
{
layerId = "EDF5EB54-295C-4C90-9A2F-67CD82979CFF";
paths = (
{
closed = 1;
nodes = (
"403 -10 OFFCURVE",
"503 68 OFFCURVE",
"523 193 CURVE",
"473 193 LINE",
"458 99 OFFCURVE",
"376 35 OFFCURVE",
"272 35 CURVE SMOOTH",
"168 35 OFFCURVE",
"106 99 OFFCURVE",
"121 193 CURVE SMOOTH",
"136 288 OFFCURVE",
"218 353 OFFCURVE",
"322 353 CURVE SMOOTH",
"397 353 LINE",
"404 398 LINE",
"334 398 LINE SMOOTH",
"237 398 OFFCURVE",
"181 459 OFFCURVE",
"195 547 CURVE SMOOTH",
"209 635 OFFCURVE",
"284 696 OFFCURVE",
"381 696 CURVE SMOOTH",
"478 696 OFFCURVE",
"535 635 OFFCURVE",
"521 547 CURVE",
"571 547 LINE",
"589 661 OFFCURVE",
"514 740 OFFCURVE",
"388 740 CURVE SMOOTH",
"257 740 OFFCURVE",
"164 666 OFFCURVE",
"145 547 CURVE SMOOTH",
"128 442 OFFCURVE",
"185 370 OFFCURVE",
"285 370 CURVE",
"286 380 LINE",
"176 380 OFFCURVE",
"88 305 OFFCURVE",
"71 196 CURVE SMOOTH",
"52 74 OFFCURVE",
"130 -10 OFFCURVE",
"264 -10 CURVE SMOOTH"
);
}
);
width = 600;
},
{
layerId = "CCC0BD40-BA8C-414E-B576-CF0B94E6C996";
paths = (
{
closed = 1;
nodes = (
"406 -10 OFFCURVE",
"513 71 OFFCURVE",
"534 192 CURVE",
"444 192 LINE",
"431 119 OFFCURVE",
"365 70 OFFCURVE",
"280 70 CURVE SMOOTH",
"190 70 OFFCURVE",
"139 124 OFFCURVE",
"151 205 CURVE SMOOTH",
"164 286 OFFCURVE",
"233 340 OFFCURVE",
"323 340 CURVE SMOOTH",
"414 340 LINE",
"427 420 LINE",
"337 420 LINE SMOOTH",
"256 420 OFFCURVE",
"209 468 OFFCURVE",
"221 540 CURVE SMOOTH",
"232 612 OFFCURVE",
"294 660 OFFCURVE",
"375 660 CURVE SMOOTH",
"457 660 OFFCURVE",
"503 610 OFFCURVE",
"491 535 CURVE",
"581 535 LINE",
"600 658 OFFCURVE",
"522 740 OFFCURVE",
"384 740 CURVE SMOOTH",
"250 740 OFFCURVE",
"150 663 OFFCURVE",
"131 546 CURVE SMOOTH",
"115 444 OFFCURVE",
"173 380 OFFCURVE",
"281 382 CURVE",
"282 392 LINE",
"165 394 OFFCURVE",
"79 321 OFFCURVE",
"60 205 CURVE SMOOTH",
"40 76 OFFCURVE",
"122 -10 OFFCURVE",
"267 -10 CURVE SMOOTH"
);
}
);
width = 600;
},
{
layerId = "9ADF6715-3D0F-493D-8567-18A6FBCFC567";
paths = (
{
closed = 1;
nodes = (
"411 -10 OFFCURVE",
"530 76 OFFCURVE",
"554 205 CURVE",
"404 205 LINE",
"392 154 OFFCURVE",
"345 120 OFFCURVE",
"284 120 CURVE SMOOTH",
"218 120 OFFCURVE",
"180 159 OFFCURVE",
"190 218 CURVE SMOOTH",
"199 278 OFFCURVE",
"249 317 OFFCURVE",
"316 317 CURVE SMOOTH",
"417 317 LINE",
"436 437 LINE",
"333 437 LINE SMOOTH",
"273 437 OFFCURVE",
"240 471 OFFCURVE",
"248 523 CURVE SMOOTH",
"256 575 OFFCURVE",
"301 610 OFFCURVE",
"361 610 CURVE SMOOTH",
"421 610 OFFCURVE",
"455 575 OFFCURVE",
"447 523 CURVE",
"597 523 LINE",
"618 654 OFFCURVE",
"528 740 OFFCURVE",
"373 740 CURVE SMOOTH",
"226 740 OFFCURVE",
"117 660 OFFCURVE",
"98 540 CURVE SMOOTH",
"82 444 OFFCURVE",
"131 383 OFFCURVE",
"222 383 CURVE",
"223 390 LINE",
"126 392 OFFCURVE",
"53 325 OFFCURVE",
"36 217 CURVE SMOOTH",
"15 80 OFFCURVE",
"104 -10 OFFCURVE",
"260 -10 CURVE SMOOTH"
);
}
);
width = 600;
}
);
unicode = 0190;
},
{
glyphname = F;
layers = (
{
anchors = (
{
name = bottom;
position = "{256, 0}";
},
{
name = top;
position = "{372, 730}";
}
);
layerId = "9ADF6715-3D0F-493D-8567-18A6FBCFC567";
paths = (
{
closed = 1;
nodes = (
"176 0 LINE",
"222 288 LINE",
"516 288 LINE",
"538 428 LINE",
"242 428 LINE",
"267 590 LINE",
"589 590 LINE",
"612 730 LINE",
"142 730 LINE",
"26 0 LINE"
);
}
);
width = 600;
},
{
anchors = (
{
name = bottom;
position = "{256, 0}";
},
{
name = top;
position = "{372, 730}";
}
);
layerId = "CCC0BD40-BA8C-414E-B576-CF0B94E6C996";
paths = (
{
closed = 1;
nodes = (
"141 0 LINE",
"192 324 LINE",
"506 324 LINE",
"519 406 LINE",
"203 406 LINE",
"242 648 LINE",
"584 648 LINE",
"597 730 LINE",
"167 730 LINE",
"51 0 LINE"
);
}
);
width = 600;
},
{
anchors = (
{
name = bottom;
position = "{256, 0}";
},
{
name = top;
position = "{372, 730}";
}
);
layerId = "EDF5EB54-295C-4C90-9A2F-67CD82979CFF";
paths = (
{
closed = 1;
nodes = (
"121 0 LINE",
"176 346 LINE",
"501 346 LINE",
"508 392 LINE",
"183 392 LINE",
"229 684 LINE",
"589 684 LINE",
"597 730 LINE",
"187 730 LINE",
"71 0 LINE"
);
}
);
width = 600;
}
);
unicode = 0046;
},
{
glyphname = G;
layers = (
{
anchors = (
{
name = bottom;
position = "{260, 0}";
},
{
name = top;
position = "{372, 730}";
}
);
layerId = "9ADF6715-3D0F-493D-8567-18A6FBCFC567";
paths = (
{
closed = 1;
nodes = (
"413 -10 OFFCURVE",
"515 70 OFFCURVE",
"537 210 CURVE SMOOTH",
"568 405 LINE",
"310 405 LINE",
"290 278 LINE",
"398 278 LINE",
"387 210 LINE SMOOTH",
"378 152 OFFCURVE",
"339 120 OFFCURVE",
"279 120 CURVE SMOOTH",
"219 120 OFFCURVE",
"190 152 OFFCURVE",
"199 210 CURVE SMOOTH",
"248 520 LINE SMOOTH",
"258 578 OFFCURVE",
"297 610 OFFCURVE",
"357 610 CURVE SMOOTH",
"417 610 OFFCURVE",
"446 578 OFFCURVE",
"436 520 CURVE",
"586 520 LINE",
"606 649 OFFCURVE",
"520 740 OFFCURVE",
"377 740 CURVE SMOOTH",
"222 740 OFFCURVE",
"120 660 OFFCURVE",
"98 520 CURVE SMOOTH",
"49 210 LINE SMOOTH",
"28 78 OFFCURVE",
"111 -10 OFFCURVE",
"258 -10 CURVE SMOOTH"
);
}
);
width = 600;
},
{
anchors = (
{
name = bottom;
position = "{260, 0}";
},
{
name = top;
position = "{372, 730}";
}
);
layerId = "CCC0BD40-BA8C-414E-B576-CF0B94E6C996";
paths = (
{
closed = 1;
nodes = (
"393 -10 OFFCURVE",
"483 67 OFFCURVE",
"506 200 CURVE SMOOTH",
"535 382 LINE",
"297 382 LINE",
"284 300 LINE",
"432 300 LINE",
"416 200 LINE SMOOTH",
"403 120 OFFCURVE",
"348 70 OFFCURVE",
"271 70 CURVE SMOOTH",
"194 70 OFFCURVE",
"153 120 OFFCURVE",
"166 200 CURVE SMOOTH",
"218 531 LINE SMOOTH",
"230 610 OFFCURVE",
"287 659 OFFCURVE",
"364 659 CURVE SMOOTH",
"440 659 OFFCURVE",
"480 609 OFFCURVE",
"468 530 CURVE",
"558 530 LINE",
"577 655 OFFCURVE",
"504 740 OFFCURVE",
"377 740 CURVE SMOOTH",
"241 740 OFFCURVE",
"151 663 OFFCURVE",
"128 530 CURVE SMOOTH",
"76 200 LINE SMOOTH",
"55 71 OFFCURVE",
"126 -10 OFFCURVE",
"258 -10 CURVE SMOOTH"
);
}
);
width = 600;
},
{
anchors = (
{
name = bottom;
position = "{262, 0}";
},
{
name = top;
position = "{378, 730}";
}
);
layerId = "EDF5EB54-295C-4C90-9A2F-67CD82979CFF";
paths = (
{
closed = 1;
nodes = (
"388 -10 OFFCURVE",
"477 68 OFFCURVE",
"498 200 CURVE SMOOTH",
"524 364 LINE",
"301 364 LINE",
"293 318 LINE",
"466 318 LINE",
"448 200 LINE SMOOTH",
"432 98 OFFCURVE",
"364 35 OFFCURVE",
"268 35 CURVE SMOOTH",
"174 35 OFFCURVE",
"126 94 OFFCURVE",
"141 190 CURVE SMOOTH",
"197 540 LINE SMOOTH",
"212 636 OFFCURVE",
"279 695 OFFCURVE",
"372 695 CURVE SMOOTH",
"467 695 OFFCURVE",
"516 632 OFFCURVE",
"500 530 CURVE",
"550 530 LINE",
"570 658 OFFCURVE",
"503 740 OFFCURVE",
"379 740 CURVE SMOOTH",
"253 740 OFFCURVE",
"167 666 OFFCURVE",
"147 540 CURVE SMOOTH",
"91 190 LINE SMOOTH",
"72 69 OFFCURVE",
"138 -10 OFFCURVE",
"260 -10 CURVE SMOOTH"
);
}
);
width = 600;
}
);
unicode = 0047;
},
{
glyphname = H;
layers = (
{
anchors = (
{
name = bottom;
position = "{256, 0}";
},
{
name = center;
position = "{314, 365}";
},
{
name = top;
position = "{372, 730}";
},
{
name = topleft;
position = "{92, 730}";
}
);
layerId = "9ADF6715-3D0F-493D-8567-18A6FBCFC567";
paths = (
{
closed = 1;
nodes = (
"172 0 LINE",
"221 311 LINE",
"389 311 LINE",
"340 0 LINE",
"490 0 LINE",
"606 730 LINE",
"456 730 LINE",
"411 446 LINE",
"243 446 LINE",
"288 730 LINE",
"138 730 LINE",
"22 0 LINE"
);
}
);
width = 600;
},
{
anchors = (
{
name = bottom;
position = "{256, 0}";
},
{
name = center;
position = "{314, 365}";
},
{
name = top;
position = "{372, 730}";
},
{
name = topleft;
position = "{92, 730}";
}
);
layerId = "CCC0BD40-BA8C-414E-B576-CF0B94E6C996";
paths = (
{
closed = 1;
nodes = (
"139 0 LINE",
"192 336 LINE",
"426 336 LINE",
"373 0 LINE",
"463 0 LINE",
"579 730 LINE",
"489 730 LINE",
"439 418 LINE",
"205 418 LINE",
"255 730 LINE",
"165 730 LINE",
"49 0 LINE"
);
}
);
width = 600;
},
{
anchors = (
{
name = bottom;
position = "{256, 0}";
},
{
name = center;
position = "{314, 365}";
},
{
name = top;
position = "{372, 730}";
},
{
name = topleft;
position = "{92, 730}";
}
);
layerId = "EDF5EB54-295C-4C90-9A2F-67CD82979CFF";
paths = (
{
closed = 1;
nodes = (
"116 0 LINE",
"173 357 LINE",
"453 357 LINE",
"396 0 LINE",
"446 0 LINE",
"562 730 LINE",
"512 730 LINE",
"460 402 LINE",
"180 402 LINE",
"232 730 LINE",
"182 730 LINE",
"66 0 LINE"
);
}
);
width = 600;
}
);
unicode = 0048;
},
{
glyphname = Hbar;
layers = (
{
components = (
{
alignment = -1;
name = H;
}
);
layerId = "9ADF6715-3D0F-493D-8567-18A6FBCFC567";
paths = (
{
closed = 1;
nodes = (
"630 525 LINE",
"645 620 LINE",
"65 620 LINE",
"50 525 LINE"
);
}
);
width = 600;
},
{
components = (
{
alignment = -1;
name = H;
}
);
layerId = "CCC0BD40-BA8C-414E-B576-CF0B94E6C996";
paths = (
{
closed = 1;
nodes = (
"629 525 LINE",
"641 600 LINE",
"62 600 LINE",
"50 525 LINE"
);
}
);
width = 600;
},
{
components = (
{
alignment = -1;
name = H;
}
);
layerId = "EDF5EB54-295C-4C90-9A2F-67CD82979CFF";
paths = (
{
closed = 1;
nodes = (
"632 540 LINE",
"639 584 LINE",
"59 584 LINE",
"52 540 LINE"
);
}
);
width = 600;
}
);
unicode = 0126;
},
{
glyphname = I;
layers = (
{
anchors = (
{
name = bottom;
position = "{256, 0}";
},
{
name = ogonek;
position = "{280, 0}";
},
{
name = top;
position = "{372, 730}";
},
{
name = topleft;
position = "{92, 730}";
}
);
layerId = "9ADF6715-3D0F-493D-8567-18A6FBCFC567";
paths = (
{
closed = 1;
nodes = (
"476 0 LINE",
"497 130 LINE",
"352 130 LINE",
"426 600 LINE",
"571 600 LINE",
"592 730 LINE",
"152 730 LINE",
"131 600 LINE",
"276 600 LINE",
"202 130 LINE",
"57 130 LINE",
"36 0 LINE"
);
}
);
width = 600;
},
{
anchors = (
{
name = bottom;
position = "{212, 0}";
},
{
name = ogonek;
position = "{236, 0}";
},
{
name = top;
position = "{374, 730}";
},
{
name = topleft;
position = "{164, 730}";
}
);
layerId = "CCC0BD40-BA8C-414E-B576-CF0B94E6C996";
paths = (
{
closed = 1;
nodes = (
"451 0 LINE",
"464 82 LINE",
"315 82 LINE",
"405 648 LINE",
"554 648 LINE",
"567 730 LINE",
"177 730 LINE",
"164 648 LINE",
"313 648 LINE",
"223 82 LINE",
"74 82 LINE",
"61 0 LINE"
);
}
);
width = 600;
},
{
anchors = (
{
name = bottom;
position = "{256, 0}";
},
{
name = ogonek;
position = "{280, 0}";
},
{
name = top;
position = "{372, 730}";
},
{
name = topleft;
position = "{92, 730}";
}
);
layerId = "EDF5EB54-295C-4C90-9A2F-67CD82979CFF";
paths = (
{
closed = 1;
nodes = (
"436 0 LINE",
"443 46 LINE",
"289 46 LINE",
"390 684 LINE",
"544 684 LINE",
"552 730 LINE",
"192 730 LINE",
"184 684 LINE",
"340 684 LINE",
"239 46 LINE",
"83 46 LINE",
"76 0 LINE"
);
}
);
width = 600;
}
);
unicode = 0049;
},
{
glyphname = Iogonek;
layers = (
{
components = (
{
name = I;
}
);
layerId = "EDF5EB54-295C-4C90-9A2F-67CD82979CFF";
paths = (
{
closed = 1;
nodes = (
"299 -195 LINE",
"305 -153 LINE",
"241 -153 LINE SMOOTH",
"209 -153 OFFCURVE",
"193 -134 OFFCURVE",
"198 -103 CURVE SMOOTH",
"203 -75 OFFCURVE",
"232 -36 OFFCURVE",
"275 0 CURVE SMOOTH",
"288 10 LINE",
"251 10 LINE",
"194 -27 OFFCURVE",
"156 -74 OFFCURVE",
"149 -115 CURVE SMOOTH",
"141 -165 OFFCURVE",
"171 -195 OFFCURVE",
"226 -195 CURVE"
);
}
);
width = 600;
},
{
components = (
{
name = I;
}
);
layerId = "CCC0BD40-BA8C-414E-B576-CF0B94E6C996";
paths = (
{
closed = 1;
nodes = (
"309 -203 LINE",
"318 -143 LINE",
"258 -143 LINE SMOOTH",
"224 -143 OFFCURVE",
"207 -122 OFFCURVE",
"211 -93 CURVE SMOOTH",
"216 -65 OFFCURVE",
"239 -36 OFFCURVE",
"290 1 CURVE",
"303 10 LINE",
"228 10 LINE",
"158 -34 OFFCURVE",
"130 -72 OFFCURVE",
"124 -110 CURVE SMOOTH",
"115 -164 OFFCURVE",
"157 -203 OFFCURVE",
"231 -203 CURVE SMOOTH"
);
}
);
width = 600;
},
{
components = (
{
name = I;
}
);
layerId = "9ADF6715-3D0F-493D-8567-18A6FBCFC567";
paths = (
{
closed = 1;
nodes = (
"324 -225 LINE",
"341 -120 LINE",
"272 -120 LINE SMOOTH",
"243 -120 OFFCURVE",
"229 -103 OFFCURVE",
"232 -83 CURVE SMOOTH",
"235 -66 OFFCURVE",
"253 -42 OFFCURVE",
"283 -18 CURVE SMOOTH",
"320 11 LINE",
"234 11 LINE",
"161 -19 OFFCURVE",
"110 -68 OFFCURVE",
"103 -115 CURVE SMOOTH",
"92 -180 OFFCURVE",
"135 -225 OFFCURVE",
"216 -225 CURVE SMOOTH"
);
}
);
width = 600;
}
);
unicode = 012E;
},
{
glyphname = J;
layers = (
{
anchors = (
{
name = bottom;
position = "{256, 0}";
},
{
name = top;
position = "{522, 730}";
}
);
layerId = "9ADF6715-3D0F-493D-8567-18A6FBCFC567";
paths = (
{
closed = 1;
nodes = (
"383 -10 OFFCURVE",
"487 73 OFFCURVE",
"511 219 CURVE SMOOTH",
"592 730 LINE",
"442 730 LINE",
"361 219 LINE SMOOTH",
"351 160 OFFCURVE",
"304 120 OFFCURVE",
"245 120 CURVE SMOOTH",
"183 120 OFFCURVE",
"151 159 OFFCURVE",
"161 221 CURVE",
"11 221 LINE",
"-11 79 OFFCURVE",
"70 -10 OFFCURVE",
"224 -10 CURVE SMOOTH"
);
}
);
width = 600;
},
{
anchors = (
{
name = bottom;
position = "{256, 0}";
},
{
name = top;
position = "{522, 730}";
}
);
layerId = "CCC0BD40-BA8C-414E-B576-CF0B94E6C996";
paths = (
{
closed = 1;
nodes = (
"367 -10 OFFCURVE",
"462 70 OFFCURVE",
"484 210 CURVE SMOOTH",
"567 730 LINE",
"477 730 LINE",
"394 210 LINE SMOOTH",
"380 123 OFFCURVE",
"320 70 OFFCURVE",
"237 70 CURVE SMOOTH",
"152 70 OFFCURVE",
"110 121 OFFCURVE",
"124 210 CURVE",
"34 210 LINE",
"13 75 OFFCURVE",
"86 -10 OFFCURVE",
"224 -10 CURVE SMOOTH"
);
}
);
width = 600;
},
{
anchors = (
{
name = bottom;
position = "{256, 0}";
},
{
name = top;
position = "{525, 730}";
}
);
layerId = "EDF5EB54-295C-4C90-9A2F-67CD82979CFF";
paths = (
{
closed = 1;
nodes = (
"360 -10 OFFCURVE",
"447 66 OFFCURVE",
"468 199 CURVE SMOOTH",
"552 730 LINE",
"502 730 LINE",
"418 199 LINE SMOOTH",
"402 98 OFFCURVE",
"333 35 OFFCURVE",
"237 35 CURVE SMOOTH",
"141 35 OFFCURVE",
"91 97 OFFCURVE",
"108 200 CURVE",
"58 200 LINE",
"37 69 OFFCURVE",
"101 -10 OFFCURVE",
"229 -10 CURVE SMOOTH"
);
}
);
width = 600;
}
);
unicode = 004A;
},
{
glyphname = K;
layers = (
{
anchors = (
{
name = bottom;
position = "{256, 0}";
},
{
name = top;
position = "{372, 730}";
}
);
layerId = "9ADF6715-3D0F-493D-8567-18A6FBCFC567";
paths = (
{
closed = 1;
nodes = (
"171 0 LINE",
"220 309 LINE",
"296 309 LINE",
"372 0 LINE",
"531 0 LINE",
"429 372 LINE",
"641 730 LINE",
"478 730 LINE",
"310 447 LINE",
"242 447 LINE",
"287 730 LINE",
"137 730 LINE",
"21 0 LINE"
);
}
);
width = 600;
},
{
anchors = (
{
name = bottom;
position = "{256, 0}";
},
{
name = top;
position = "{372, 730}";
}
);
layerId = "CCC0BD40-BA8C-414E-B576-CF0B94E6C996";
paths = (
{
closed = 1;
nodes = (
"138 0 LINE",
"192 338 LINE",
"300 338 LINE",
"416 0 LINE",
"516 0 LINE",
"385 376 LINE",
"622 730 LINE",
"522 730 LINE",
"310 417 LINE",
"204 417 LINE",
"254 730 LINE",
"164 730 LINE",
"48 0 LINE"
);
}
);
width = 600;
},
{
anchors = (
{
name = bottom;
position = "{256, 0}";
},
{
name = top;
position = "{372, 730}";
}
);
layerId = "EDF5EB54-295C-4C90-9A2F-67CD82979CFF";
paths = (
{
closed = 1;
nodes = (
"116 0 LINE",
"172 356 LINE",
"327 356 LINE",
"440 0 LINE",
"496 0 LINE",
"375 377 LINE",
"602 730 LINE",
"544 730 LINE",
"332 401 LINE",
"180 401 LINE",
"232 730 LINE",
"182 730 LINE",
"66 0 LINE"
);
}
);
width = 600;
}
);
unicode = 004B;
},
{
glyphname = L;
layers = (
{
anchors = (
{
name = bottom;
position = "{296, 0}";
},
{
name = center;
position = "{314, 365}";
},
{
name = top;
position = "{262, 730}";
}
);
layerId = "9ADF6715-3D0F-493D-8567-18A6FBCFC567";
paths = (
{
closed = 1;
nodes = (
"516 0 LINE",
"537 135 LINE",
"242 135 LINE",
"337 730 LINE",
"187 730 LINE",
"71 0 LINE"
);
}
);
width = 600;
},
{
anchors = (
{
name = bottom;
position = "{296, 0}";
},
{
name = center;
position = "{314, 365}";
},
{
name = top;
position = "{247, 730}";
}
);
layerId = "CCC0BD40-BA8C-414E-B576-CF0B94E6C996";
paths = (
{
closed = 1;
nodes = (
"506 0 LINE",
"519 82 LINE",
"189 82 LINE",
"292 730 LINE",
"202 730 LINE",
"86 0 LINE"
);
}
);
width = 600;
},
{
anchors = (
{
name = bottom;
position = "{296, 0}";
},
{
name = center;
position = "{314, 365}";
},
{
name = top;
position = "{238, 730}";
}
);
layerId = "EDF5EB54-295C-4C90-9A2F-67CD82979CFF";
paths = (
{
closed = 1;
nodes = (
"501 0 LINE",
"508 46 LINE",
"153 46 LINE",
"262 730 LINE",
"212 730 LINE",
"96 0 LINE"
);
}
);
width = 600;
}
);
unicode = 004C;
},
{
glyphname = Lslash;
layers = (
{
components = (
{
alignment = -1;
name = L;
transform = "{1, 0, 0, 1, 10, 0}";
}
);
layerId = "9ADF6715-3D0F-493D-8567-18A6FBCFC567";
paths = (
{
closed = 1;
nodes = (
"423 420 LINE",
"445 565 LINE",
"35 370 LINE",
"12 225 LINE"
);
}
);
width = 600;
},
{
components = (
{
alignment = -1;
name = L;
}
);
layerId = "CCC0BD40-BA8C-414E-B576-CF0B94E6C996";
paths = (
{
closed = 1;
nodes = (
"422 480 LINE",
"435 564 LINE",
"25 310 LINE",
"12 226 LINE"
);
}
);
width = 600;
},
{
components = (
{
alignment = -1;
name = L;
transform = "{1, 0, 0, 1, 10, 0}";
}
);
layerId = "EDF5EB54-295C-4C90-9A2F-67CD82979CFF";
paths = (
{
closed = 1;
nodes = (
"424 495 LINE",
"433 552 LINE",
"23 295 LINE",
"14 238 LINE"
);
}
);
width = 600;
}
);
unicode = 0141;
},
{
glyphname = M;
layers = (
{
anchors = (
{
name = bottom;
position = "{256, 0}";
},
{
name = top;
position = "{372, 730}";
}
);
layerId = "CCC0BD40-BA8C-414E-B576-CF0B94E6C996";
paths = (
{
closed = 1;
nodes = (
"115 0 LINE",
"170 345 LINE SMOOTH",
"191 477 OFFCURVE",
"206 595 OFFCURVE",
"211 694 CURVE",
"266 326 LINE",
"344 326 LINE",
"521 703 LINE",
"496 598 OFFCURVE",
"468 443 OFFCURVE",
"452 345 CURVE SMOOTH",
"397 0 LINE",
"484 0 LINE",
"600 730 LINE",
"465 730 LINE",
"318 414 LINE",
"275 730 LINE",
"144 730 LINE",
"28 0 LINE"
);
}
);
width = 600;
},
{
anchors = (
{
name = bottom;
position = "{256, 0}";
},
{
name = top;
position = "{372, 730}";
}
);
layerId = "9ADF6715-3D0F-493D-8567-18A6FBCFC567";
paths = (
{
closed = 1;
nodes = (
"135 0 LINE",
"179 280 LINE SMOOTH",
"203 433 OFFCURVE",
"208 574 OFFCURVE",
"209 661 CURVE",
"243 310 LINE",
"363 310 LINE",
"512 670 LINE",
"483 567 OFFCURVE",
"444 426 OFFCURVE",
"421 280 CURVE SMOOTH",
"377 0 LINE",
"514 0 LINE",
"630 730 LINE",
"441 730 LINE",
"317 418 LINE",
"293 730 LINE",
"114 730 LINE",
"-2 0 LINE"
);
}
);
width = 600;
},
{
anchors = (
{
name = bottom;
position = "{256, 0}";
},
{
name = top;
position = "{372, 730}";
}
);
layerId = "EDF5EB54-295C-4C90-9A2F-67CD82979CFF";
paths = (
{
closed = 1;
nodes = (
"97 0 LINE",
"167 440 LINE SMOOTH",
"183 542 OFFCURVE",
"195 651 OFFCURVE",
"199 705 CURVE",
"280 325 LINE",
"335 325 LINE",
"535 707 LINE",
"522 653 OFFCURVE",
"501 542 OFFCURVE",
"485 440 CURVE SMOOTH",
"415 0 LINE",
"464 0 LINE",
"580 730 LINE",
"506 730 LINE",
"311 361 LINE",
"232 730 LINE",
"164 730 LINE",
"48 0 LINE"
);
}
);
width = 600;
}
);
unicode = 004D;
},
{
glyphname = N;
layers = (
{
anchors = (
{
name = bottom;
position = "{256, 0}";
},
{
name = top;
position = "{372, 730}";
}
);
layerId = "9ADF6715-3D0F-493D-8567-18A6FBCFC567";
paths = (
{
closed = 1;
nodes = (
"148 0 LINE",
"199 320 LINE SMOOTH",
"210 389 OFFCURVE",
"219 501 OFFCURVE",
"223 565 CURVE",
"323 0 LINE",
"496 0 LINE",
"612 730 LINE",
"480 730 LINE",
"432 430 LINE SMOOTH",
"421 361 OFFCURVE",
"411 238 OFFCURVE",
"406 165 CURVE",
"305 730 LINE",
"132 730 LINE",
"16 0 LINE"
);
}
);
width = 600;
},
{
anchors = (
{
name = bottom;
position = "{256, 0}";
},
{
name = top;
position = "{372, 730}";
}
);
layerId = "CCC0BD40-BA8C-414E-B576-CF0B94E6C996";
paths = (
{
closed = 1;
nodes = (
"133 0 LINE",
"198 410 LINE SMOOTH",
"210 483 OFFCURVE",
"219 576 OFFCURVE",
"223 625 CURVE",
"347 0 LINE",
"466 0 LINE",
"582 730 LINE",
"495 730 LINE",
"430 320 LINE SMOOTH",
"418 247 OFFCURVE",
"409 154 OFFCURVE",
"406 105 CURVE",
"281 730 LINE",
"162 730 LINE",
"46 0 LINE"
);
}
);
width = 600;
},
{
anchors = (
{
name = bottom;
position = "{256, 0}";
},
{
name = top;
position = "{372, 730}";
}
);
layerId = "EDF5EB54-295C-4C90-9A2F-67CD82979CFF";
paths = (
{
closed = 1;
nodes = (
"114 0 LINE",
"203 560 LINE SMOOTH",
"211 611 OFFCURVE",
"217 656 OFFCURVE",
"219 675 CURVE",
"378 0 LINE",
"446 0 LINE",
"562 730 LINE",
"514 730 LINE",
"425 170 LINE SMOOTH",
"423 155 OFFCURVE",
"415 95 OFFCURVE",
"411 55 CURVE",
"249 730 LINE",
"182 730 LINE",
"66 0 LINE"
);
}
);
width = 600;
}
);
unicode = 004E;
},
{
glyphname = Eng;
layers = (
{
layerId = "9ADF6715-3D0F-493D-8567-18A6FBCFC567";
paths = (
{
closed = 1;
nodes = (
"227 -180 LINE SMOOTH",
"368 -180 OFFCURVE",
"481 -96 OFFCURVE",
"500 25 CURVE SMOOTH",
"612 730 LINE",
"480 730 LINE",
"447 526 LINE SMOOTH",
"436 457 OFFCURVE",
"427 330 OFFCURVE",
"422 257 CURVE",
"302 730 LINE",
"132 730 LINE",
"16 0 LINE",
"148 0 LINE",
"199 320 LINE SMOOTH",
"210 389 OFFCURVE",
"219 501 OFFCURVE",
"223 565 CURVE",
"352 41 LINE",
"345 -7 OFFCURVE",
"311 -35 OFFCURVE",
"260 -35 CURVE SMOOTH",
"200 -35 LINE",
"177 -180 LINE"
);
}
);
width = 600;
},
{
layerId = "CCC0BD40-BA8C-414E-B576-CF0B94E6C996";
paths = (
{
closed = 1;
nodes = (
"232 -180 LINE SMOOTH",
"356 -180 OFFCURVE",
"449 -103 OFFCURVE",
"468 15 CURVE SMOOTH",
"582 730 LINE",
"495 730 LINE",
"442 397 LINE SMOOTH",
"430 324 OFFCURVE",
"422 229 OFFCURVE",
"418 179 CURVE",
"280 730 LINE",
"162 730 LINE",
"46 0 LINE",
"133 0 LINE",
"198 410 LINE SMOOTH",
"210 483 OFFCURVE",
"219 576 OFFCURVE",
"223 625 CURVE",
"378 15 LINE",
"367 -55 OFFCURVE",
"316 -98 OFFCURVE",
"245 -98 CURVE SMOOTH",
"180 -98 LINE",
"167 -180 LINE"
);
}
);
width = 600;
},
{
layerId = "EDF5EB54-295C-4C90-9A2F-67CD82979CFF";
paths = (
{
closed = 1;
nodes = (
"234 -180 LINE SMOOTH",
"352 -180 OFFCURVE",
"429 -115 OFFCURVE",
"447 0 CURVE SMOOTH",
"563 730 LINE",
"515 730 LINE",
"434 219 LINE SMOOTH",
"426 168 OFFCURVE",
"420 118 OFFCURVE",
"418 94 CURVE",
"249 730 LINE",
"181 730 LINE",
"65 0 LINE",
"113 0 LINE",
"202 560 LINE SMOOTH",
"210 611 OFFCURVE",
"216 656 OFFCURVE",
"218 675 CURVE",
"397 0 LINE",
"383 -88 OFFCURVE",
"330 -135 OFFCURVE",
"242 -135 CURVE SMOOTH",
"162 -135 LINE",
"154 -180 LINE"
);
}
);
width = 600;
}
);
unicode = 014A;
},
{
glyphname = O;
layers = (
{
anchors = (
{
name = bottom;
position = "{256, 0}";
},
{
name = center;
position = "{314, 365}";
},
{
name = horn;
position = "{387, 700}";
},
{
name = ogonek;
position = "{305, 0}";
},
{
name = top;
position = "{372, 730}";
},
{
name = topleft;
position = "{92, 730}";
},
{
name = topright;
position = "{652, 730}";
}
);
layerId = "EDF5EB54-295C-4C90-9A2F-67CD82979CFF";
paths = (
{
closed = 1;
nodes = (
"379 -10 OFFCURVE",
"461 63 OFFCURVE",
"481 190 CURVE SMOOTH",
"537 540 LINE SMOOTH",
"556 661 OFFCURVE",
"491 740 OFFCURVE",
"373 740 CURVE SMOOTH",
"249 740 OFFCURVE",
"167 667 OFFCURVE",
"147 540 CURVE SMOOTH",
"91 190 LINE SMOOTH",
"72 68 OFFCURVE",
"136 -10 OFFCURVE",
"254 -10 CURVE SMOOTH"
);
},
{
closed = 1;
nodes = (
"169 34 OFFCURVE",
"125 91 OFFCURVE",
"141 190 CURVE SMOOTH",
"197 540 LINE SMOOTH",
"212 638 OFFCURVE",
"275 696 OFFCURVE",
"366 696 CURVE SMOOTH",
"457 696 OFFCURVE",
"502 638 OFFCURVE",
"487 540 CURVE SMOOTH",
"431 190 LINE SMOOTH",
"415 91 OFFCURVE",
"353 34 OFFCURVE",
"261 34 CURVE SMOOTH"
);
}
);
width = 600;
},
{
anchors = (
{
name = bottom;
position = "{256, 0}";
},
{
name = center;
position = "{314, 365}";
},
{
name = horn;
position = "{387, 700}";
},
{
name = ogonek;
position = "{305, 0}";
},
{
name = top;
position = "{372, 730}";
},
{
name = topleft;
position = "{92, 730}";
},
{
name = topright;
position = "{652, 730}";
}
);
layerId = "CCC0BD40-BA8C-414E-B576-CF0B94E6C996";
paths = (
{
closed = 1;
nodes = (
"389 -10 OFFCURVE",
"478 67 OFFCURVE",
"500 200 CURVE SMOOTH",
"552 531 LINE SMOOTH",
"571 655 OFFCURVE",
"498 740 OFFCURVE",
"373 740 CURVE SMOOTH",
"239 740 OFFCURVE",
"150 663 OFFCURVE",
"128 530 CURVE SMOOTH",
"76 200 LINE SMOOTH",
"56 75 OFFCURVE",
"129 -10 OFFCURVE",
"254 -10 CURVE SMOOTH"
);
},
{
closed = 1;
nodes = (
"189 71 OFFCURVE",
"153 117 OFFCURVE",
"166 200 CURVE SMOOTH",
"218 530 LINE SMOOTH",
"231 613 OFFCURVE",
"282 659 OFFCURVE",
"360 659 CURVE SMOOTH",
"438 659 OFFCURVE",
"475 613 OFFCURVE",
"462 530 CURVE SMOOTH",
"410 200 LINE SMOOTH",
"397 117 OFFCURVE",
"345 71 OFFCURVE",
"267 71 CURVE SMOOTH"
);
}
);
width = 600;
},
{
anchors = (
{
name = bottom;
position = "{256, 0}";
},
{
name = center;
position = "{314, 365}";
},
{
name = horn;
position = "{387, 700}";
},
{
name = ogonek;
position = "{305, 0}";
},
{
name = top;
position = "{372, 730}";
},
{
name = topleft;
position = "{92, 730}";
},
{
name = topright;
position = "{652, 730}";
}
);
layerId = "9ADF6715-3D0F-493D-8567-18A6FBCFC567";
paths = (
{
closed = 1;
nodes = (
"407 -10 OFFCURVE",
"507 70 OFFCURVE",
"529 210 CURVE SMOOTH",
"578 520 LINE SMOOTH",
"599 652 OFFCURVE",
"520 740 OFFCURVE",
"373 740 CURVE SMOOTH",
"220 740 OFFCURVE",
"120 660 OFFCURVE",
"98 520 CURVE SMOOTH",
"49 210 LINE SMOOTH",
"28 78 OFFCURVE",
"107 -10 OFFCURVE",
"254 -10 CURVE SMOOTH"
);
},
{
closed = 1;
nodes = (
"215 120 OFFCURVE",
"190 152 OFFCURVE",
"199 210 CURVE SMOOTH",
"248 520 LINE SMOOTH",
"257 578 OFFCURVE",
"292 610 OFFCURVE",
"353 610 CURVE SMOOTH",
"414 610 OFFCURVE",
"437 578 OFFCURVE",
"428 520 CURVE SMOOTH",
"379 210 LINE SMOOTH",
"370 152 OFFCURVE",
"335 120 OFFCURVE",
"275 120 CURVE SMOOTH"
);
}
);
width = 600;
}
);
unicode = 004F;
},
{
glyphname = Ohorn;
layers = (
{
anchors = (
{
name = top;
position = "{362, 730}";
}
);
components = (
{
name = O;
}
);
layerId = "9ADF6715-3D0F-493D-8567-18A6FBCFC567";
paths = (
{
closed = 1;
nodes = (
"492 600 LINE SMOOTH",
"579 600 OFFCURVE",
"646 654 OFFCURVE",
"658 735 CURVE SMOOTH",
"670 810 LINE",
"550 810 LINE",
"538 735 LINE SMOOTH",
"535 713 OFFCURVE",
"520 700 OFFCURVE",
"498 700 CURVE SMOOTH",
"448 700 LINE",
"432 600 LINE"
);
}
);
width = 600;
},
{
anchors = (
{
name = top;
position = "{362, 730}";
}
);
components = (
{
name = O;
}
);
layerId = "CCC0BD40-BA8C-414E-B576-CF0B94E6C996";
paths = (
{
closed = 1;
nodes = (
"482 635 LINE SMOOTH",
"546 635 OFFCURVE",
"592 672 OFFCURVE",
"602 730 CURVE SMOOTH",
"614 810 LINE",
"539 810 LINE",
"527 735 LINE SMOOTH",
"524 714 OFFCURVE",
"508 700 OFFCURVE",
"487 700 CURVE SMOOTH",
"467 700 LINE",
"457 635 LINE"
);
}
);
width = 600;
},
{
anchors = (
{
name = top;
position = "{390, 730}";
}
);
components = (
{
name = O;
}
);
layerId = "EDF5EB54-295C-4C90-9A2F-67CD82979CFF";
paths = (
{
closed = 1;
nodes = (
"493 665 LINE SMOOTH",
"544 665 OFFCURVE",
"583 699 OFFCURVE",
"591 750 CURVE SMOOTH",
"601 810 LINE",
"561 810 LINE",
"551 750 LINE SMOOTH",
"546 720 OFFCURVE",
"526 700 OFFCURVE",
"499 700 CURVE SMOOTH",
"464 700 LINE",
"458 665 LINE"
);
}
);
width = 600;
}
);
unicode = 01A0;
},
{
glyphname = Oogonek;
layers = (
{
anchors = (
{
name = horn;
position = "{387, 700}";
},
{
name = top;
position = "{372, 730}";
}
);
layerId = "9ADF6715-3D0F-493D-8567-18A6FBCFC567";
paths = (
{
closed = 1;
nodes = (
"383 -225 LINE",
"400 -120 LINE",
"331 -120 LINE SMOOTH",
"302 -120 OFFCURVE",
"288 -103 OFFCURVE",
"291 -82 CURVE SMOOTH",
"294 -65 OFFCURVE",
"310 -38 OFFCURVE",
"340 -17 CURVE SMOOTH",
"394 21 LINE",
"464 58 OFFCURVE",
"517 127 OFFCURVE",
"530 210 CURVE SMOOTH",
"579 520 LINE SMOOTH",
"600 652 OFFCURVE",
"521 740 OFFCURVE",
"374 740 CURVE SMOOTH",
"227 740 OFFCURVE",
"120 652 OFFCURVE",
"99 520 CURVE SMOOTH",
"50 210 LINE SMOOTH",
"29 78 OFFCURVE",
"108 -10 OFFCURVE",
"255 -10 CURVE SMOOTH",
"288 -10 OFFCURVE",
"307 11 OFFCURVE",
"308 21 CURVE",
"236 -9 OFFCURVE",
"169 -68 OFFCURVE",
"162 -115 CURVE SMOOTH",
"151 -180 OFFCURVE",
"194 -225 OFFCURVE",
"275 -225 CURVE SMOOTH"
);
},
{
closed = 1;
nodes = (
"216 120 OFFCURVE",
"191 152 OFFCURVE",
"200 210 CURVE SMOOTH",
"249 520 LINE SMOOTH",
"259 578 OFFCURVE",
"293 610 OFFCURVE",
"354 610 CURVE SMOOTH",
"415 610 OFFCURVE",
"439 578 OFFCURVE",
"429 520 CURVE SMOOTH",
"380 210 LINE SMOOTH",
"371 152 OFFCURVE",
"336 120 OFFCURVE",
"276 120 CURVE SMOOTH"
);
}
);
width = 600;
},
{
anchors = (
{
name = horn;
position = "{387, 700}";
},
{
name = top;
position = "{372, 730}";
}
);
layerId = "EDF5EB54-295C-4C90-9A2F-67CD82979CFF";
paths = (
{
closed = 1;
nodes = (
"367 -195 LINE",
"374 -153 LINE",
"310 -153 LINE SMOOTH",
"278 -153 OFFCURVE",
"262 -134 OFFCURVE",
"267 -103 CURVE SMOOTH",
"271 -75 OFFCURVE",
"300 -33 OFFCURVE",
"344 2 CURVE SMOOTH",
"355 10 LINE",
"422 45 OFFCURVE",
"468 105 OFFCURVE",
"481 190 CURVE SMOOTH",
"537 540 LINE SMOOTH",
"556 661 OFFCURVE",
"491 740 OFFCURVE",
"373 740 CURVE SMOOTH",
"255 740 OFFCURVE",
"166 661 OFFCURVE",
"147 540 CURVE SMOOTH",
"91 190 LINE SMOOTH",
"72 68 OFFCURVE",
"136 -10 OFFCURVE",
"254 -10 CURVE SMOOTH",
"265 -10 OFFCURVE",
"284 -9 OFFCURVE",
"295 -6 CURVE",
"252 -39 OFFCURVE",
"223 -80 OFFCURVE",
"218 -115 CURVE SMOOTH",
"210 -165 OFFCURVE",
"239 -195 OFFCURVE",
"294 -195 CURVE SMOOTH"
);
},
{
closed = 1;
nodes = (
"169 34 OFFCURVE",
"125 91 OFFCURVE",
"141 190 CURVE SMOOTH",
"197 540 LINE SMOOTH",
"212 638 OFFCURVE",
"275 696 OFFCURVE",
"366 696 CURVE SMOOTH",
"457 696 OFFCURVE",
"502 638 OFFCURVE",
"487 540 CURVE SMOOTH",
"431 190 LINE SMOOTH",
"415 91 OFFCURVE",
"353 34 OFFCURVE",
"261 34 CURVE SMOOTH"
);
}
);
width = 600;
},
{
anchors = (
{
name = horn;
position = "{387, 700}";
},
{
name = top;
position = "{372, 730}";
}
);
layerId = "CCC0BD40-BA8C-414E-B576-CF0B94E6C996";
paths = (
{
closed = 1;
nodes = (
"381 -203 LINE",
"390 -143 LINE",
"330 -143 LINE SMOOTH",
"296 -143 OFFCURVE",
"279 -122 OFFCURVE",
"283 -93 CURVE SMOOTH",
"288 -65 OFFCURVE",
"307 -36 OFFCURVE",
"357 1 CURVE SMOOTH",
"390 25 LINE",
"448 60 OFFCURVE",
"487 121 OFFCURVE",
"500 200 CURVE SMOOTH",
"552 531 LINE SMOOTH",
"573 661 OFFCURVE",
"504 740 OFFCURVE",
"373 740 CURVE SMOOTH",
"242 740 OFFCURVE",
"149 661 OFFCURVE",
"128 530 CURVE SMOOTH",
"76 200 LINE SMOOTH",
"55 69 OFFCURVE",
"123 -10 OFFCURVE",
"254 -10 CURVE SMOOTH",
"258 -10 OFFCURVE",
"263 -10 OFFCURVE",
"267 -10 CURVE",
"226 -45 OFFCURVE",
"200 -82 OFFCURVE",
"196 -110 CURVE SMOOTH",
"187 -164 OFFCURVE",
"229 -203 OFFCURVE",
"303 -203 CURVE SMOOTH"
);
},
{
closed = 1;
nodes = (
"189 71 OFFCURVE",
"153 117 OFFCURVE",
"166 200 CURVE SMOOTH",
"218 530 LINE SMOOTH",
"231 613 OFFCURVE",
"282 659 OFFCURVE",
"360 659 CURVE SMOOTH",
"438 659 OFFCURVE",
"475 613 OFFCURVE",
"462 530 CURVE SMOOTH",
"410 200 LINE SMOOTH",
"397 117 OFFCURVE",
"345 71 OFFCURVE",
"267 71 CURVE SMOOTH"
);
}
);
width = 600;
}
);
unicode = 01EA;
},
{
glyphname = Oslash;
layers = (
{
anchors = (
{
name = bottom;
position = "{256, 0}";
},
{
name = horn;
position = "{392, 730}";
},
{
name = top;
position = "{372, 730}";
}
);
layerId = "9ADF6715-3D0F-493D-8567-18A6FBCFC567";
paths = (
{
closed = 1;
nodes = (
"83 -40 LINE",
"660 750 LINE",
"542 750 LINE",
"-35 -40 LINE"
);
},
{
closed = 1;
nodes = (
"401 -10 OFFCURVE",
"508 78 OFFCURVE",
"529 210 CURVE SMOOTH",
"578 520 LINE SMOOTH",
"599 652 OFFCURVE",
"520 740 OFFCURVE",
"373 740 CURVE SMOOTH",
"226 740 OFFCURVE",
"119 652 OFFCURVE",
"98 520 CURVE SMOOTH",
"49 210 LINE SMOOTH",
"28 78 OFFCURVE",
"107 -10 OFFCURVE",
"254 -10 CURVE SMOOTH"
);
},
{
closed = 1;
nodes = (
"214 120 OFFCURVE",
"185 152 OFFCURVE",
"194 210 CURVE SMOOTH",
"243 520 LINE SMOOTH",
"253 578 OFFCURVE",
"292 610 OFFCURVE",
"353 610 CURVE SMOOTH",
"414 610 OFFCURVE",
"443 578 OFFCURVE",
"433 520 CURVE SMOOTH",
"384 210 LINE SMOOTH",
"375 152 OFFCURVE",
"336 120 OFFCURVE",
"275 120 CURVE SMOOTH"
);
}
);
width = 600;
},
{
anchors = (
{
name = bottom;
position = "{256, 0}";
},
{
name = horn;
position = "{392, 730}";
},
{
name = top;
position = "{372, 730}";
}
);
layerId = "CCC0BD40-BA8C-414E-B576-CF0B94E6C996";
paths = (
{
closed = 1;
nodes = (
"71 -40 LINE",
"640 750 LINE",
"554 750 LINE",
"-15 -40 LINE"
);
},
{
closed = 1;
nodes = (
"385 -10 OFFCURVE",
"479 69 OFFCURVE",
"500 200 CURVE SMOOTH",
"552 531 LINE SMOOTH",
"572 661 OFFCURVE",
"504 740 OFFCURVE",
"373 740 CURVE SMOOTH",
"242 740 OFFCURVE",
"149 661 OFFCURVE",
"128 530 CURVE SMOOTH",
"76 200 LINE SMOOTH",
"55 69 OFFCURVE",
"123 -10 OFFCURVE",
"254 -10 CURVE SMOOTH"
);
},
{
closed = 1;
nodes = (
"189 71 OFFCURVE",
"153 117 OFFCURVE",
"166 200 CURVE SMOOTH",
"218 530 LINE SMOOTH",
"231 613 OFFCURVE",
"282 659 OFFCURVE",
"360 659 CURVE SMOOTH",
"438 659 OFFCURVE",
"475 613 OFFCURVE",
"462 530 CURVE SMOOTH",
"410 200 LINE SMOOTH",
"397 117 OFFCURVE",
"345 71 OFFCURVE",
"267 71 CURVE SMOOTH"
);
}
);
width = 600;
},
{
anchors = (
{
name = bottom;
position = "{256, 0}";
},
{
name = horn;
position = "{392, 730}";
},
{
name = top;
position = "{372, 730}";
}
);
layerId = "EDF5EB54-295C-4C90-9A2F-67CD82979CFF";
paths = (
{
closed = 1;
nodes = (
"50 -40 LINE",
"625 750 LINE",
"575 750 LINE",
"0 -40 LINE"
);
},
{
closed = 1;
nodes = (
"373 -10 OFFCURVE",
"461 68 OFFCURVE",
"481 190 CURVE SMOOTH",
"537 540 LINE SMOOTH",
"556 661 OFFCURVE",
"491 740 OFFCURVE",
"373 740 CURVE SMOOTH",
"255 740 OFFCURVE",
"166 661 OFFCURVE",
"147 540 CURVE SMOOTH",
"91 190 LINE SMOOTH",
"71 68 OFFCURVE",
"136 -10 OFFCURVE",
"254 -10 CURVE SMOOTH"
);
},
{
closed = 1;
nodes = (
"169 34 OFFCURVE",
"125 91 OFFCURVE",
"141 190 CURVE SMOOTH",
"197 540 LINE SMOOTH",
"213 638 OFFCURVE",
"275 696 OFFCURVE",
"366 696 CURVE SMOOTH",
"457 696 OFFCURVE",
"503 638 OFFCURVE",
"487 540 CURVE SMOOTH",
"431 190 LINE SMOOTH",
"415 91 OFFCURVE",
"353 34 OFFCURVE",
"261 34 CURVE SMOOTH"
);
}
);
width = 600;
}
);
unicode = 00D8;
},
{
glyphname = OE;
layers = (
{
layerId = "9ADF6715-3D0F-493D-8567-18A6FBCFC567";
paths = (
{
closed = 1;
nodes = (
"202 -4 OFFCURVE",
"243 47 OFFCURVE",
"255 86 CURVE",
"260 86 LINE",
"246 0 LINE",
"536 0 LINE",
"556 126 LINE",
"395 126 LINE",
"424 311 LINE",
"560 311 LINE",
"580 437 LINE",
"444 437 LINE",
"471 605 LINE",
"632 605 LINE",
"652 730 LINE",
"362 730 LINE",
"349 650 LINE",
"344 650 LINE",
"345 689 OFFCURVE",
"320 740 OFFCURVE",
"248 740 CURVE SMOOTH",
"157 740 OFFCURVE",
"91 666 OFFCURVE",
"72 541 CURVE SMOOTH",
"17 195 LINE SMOOTH",
"-3 70 OFFCURVE",
"39 -4 OFFCURVE",
"130 -4 CURVE SMOOTH"
);
},
{
closed = 1;
nodes = (
"167 121 OFFCURVE",
"150 149 OFFCURVE",
"157 195 CURVE SMOOTH",
"212 541 LINE SMOOTH",
"219 587 OFFCURVE",
"245 615 OFFCURVE",
"280 615 CURVE SMOOTH",
"316 615 OFFCURVE",
"333 588 OFFCURVE",
"326 541 CURVE SMOOTH",
"271 195 LINE SMOOTH",
"263 148 OFFCURVE",
"238 121 OFFCURVE",
"202 121 CURVE SMOOTH"
);
}
);
width = 600;
},
{
layerId = "CCC0BD40-BA8C-414E-B576-CF0B94E6C996";
paths = (
{
closed = 1;
nodes = (
"218 -10 OFFCURVE",
"261 41 OFFCURVE",
"274 80 CURVE",
"279 80 LINE",
"266 0 LINE",
"531 0 LINE",
"544 82 LINE",
"367 82 LINE",
"407 336 LINE",
"559 336 LINE",
"572 418 LINE",
"420 418 LINE",
"457 648 LINE",
"634 648 LINE",
"647 730 LINE",
"382 730 LINE",
"369 650 LINE",
"364 650 LINE",
"364 689 OFFCURVE",
"337 740 OFFCURVE",
"268 740 CURVE SMOOTH",
"172 740 OFFCURVE",
"102 667 OFFCURVE",
"83 550 CURVE SMOOTH",
"25 180 LINE SMOOTH",
"6 63 OFFCURVE",
"53 -10 OFFCURVE",
"149 -10 CURVE SMOOTH"
);
},
{
closed = 1;
nodes = (
"131 70 OFFCURVE",
"104 112 OFFCURVE",
"115 180 CURVE SMOOTH",
"173 550 LINE SMOOTH",
"184 618 OFFCURVE",
"225 660 OFFCURVE",
"281 660 CURVE SMOOTH",
"337 660 OFFCURVE",
"364 618 OFFCURVE",
"353 550 CURVE SMOOTH",
"295 180 LINE SMOOTH",
"284 112 OFFCURVE",
"243 70 OFFCURVE",
"187 70 CURVE SMOOTH"
);
}
);
width = 600;
},
{
layerId = "EDF5EB54-295C-4C90-9A2F-67CD82979CFF";
paths = (
{
closed = 1;
nodes = (
"219 -10 OFFCURVE",
"267 41 OFFCURVE",
"284 80 CURVE",
"289 80 LINE",
"276 0 LINE",
"525 0 LINE",
"533 50 LINE",
"339 50 LINE",
"387 352 LINE",
"545 352 LINE",
"553 402 LINE",
"395 402 LINE",
"439 680 LINE",
"633 680 LINE",
"641 730 LINE",
"392 730 LINE",
"379 650 LINE",
"374 650 LINE",
"370 689 OFFCURVE",
"338 740 OFFCURVE",
"269 740 CURVE SMOOTH",
"178 740 OFFCURVE",
"101 664 OFFCURVE",
"84 557 CURVE SMOOTH",
"23 173 LINE SMOOTH",
"6 66 OFFCURVE",
"59 -10 OFFCURVE",
"150 -10 CURVE SMOOTH"
);
},
{
closed = 1;
nodes = (
"102 40 OFFCURVE",
"66 94 OFFCURVE",
"78 173 CURVE SMOOTH",
"139 557 LINE SMOOTH",
"152 636 OFFCURVE",
"205 690 OFFCURVE",
"272 690 CURVE SMOOTH",
"338 690 OFFCURVE",
"377 638 OFFCURVE",
"364 557 CURVE SMOOTH",
"303 173 LINE SMOOTH",
"291 92 OFFCURVE",
"235 40 OFFCURVE",
"169 40 CURVE SMOOTH"
);
}
);
width = 600;
}
);
unicode = 0152;
},
{
glyphname = P;
layers = (
{
anchors = (
{
name = bottom;
position = "{256, 0}";
},
{
name = top;
position = "{372, 730}";
}
);
layerId = "9ADF6715-3D0F-493D-8567-18A6FBCFC567";
paths = (
{
closed = 1;
nodes = (
"172 0 LINE",
"214 266 LINE",
"313 266 LINE SMOOTH",
"466 266 OFFCURVE",
"583 359 OFFCURVE",
"605 498 CURVE SMOOTH",
"627 638 OFFCURVE",
"541 730 OFFCURVE",
"387 730 CURVE SMOOTH",
"138 730 LINE",
"22 0 LINE"
);
},
{
closed = 1;
nodes = (
"266 595 LINE",
"365 595 LINE SMOOTH",
"429 595 OFFCURVE",
"464 557 OFFCURVE",
"455 498 CURVE SMOOTH",
"446 439 OFFCURVE",
"399 401 OFFCURVE",
"335 401 CURVE SMOOTH",
"236 401 LINE"
);
}
);
width = 600;
},
{
anchors = (
{
name = bottom;
position = "{256, 0}";
},
{
name = top;
position = "{372, 730}";
}
);
layerId = "CCC0BD40-BA8C-414E-B576-CF0B94E6C996";
paths = (
{
closed = 1;
nodes = (
"138 0 LINE",
"186 300 LINE",
"331 300 LINE SMOOTH",
"467 300 OFFCURVE",
"567 384 OFFCURVE",
"588 515 CURVE SMOOTH",
"608 646 OFFCURVE",
"535 730 OFFCURVE",
"399 730 CURVE SMOOTH",
"164 730 LINE",
"48 0 LINE"
);
},
{
closed = 1;
nodes = (
"241 649 LINE",
"386 649 LINE SMOOTH",
"465 649 OFFCURVE",
"508 597 OFFCURVE",
"495 515 CURVE SMOOTH",
"482 433 OFFCURVE",
"422 381 OFFCURVE",
"343 381 CURVE SMOOTH",
"198 381 LINE"
);
}
);
width = 600;
},
{
anchors = (
{
name = bottom;
position = "{256, 0}";
},
{
name = top;
position = "{372, 730}";
}
);
layerId = "EDF5EB54-295C-4C90-9A2F-67CD82979CFF";
paths = (
{
closed = 1;
nodes = (
"116 0 LINE",
"167 324 LINE",
"332 324 LINE SMOOTH",
"459 324 OFFCURVE",
"555 404 OFFCURVE",
"574 527 CURVE SMOOTH",
"594 650 OFFCURVE",
"525 730 OFFCURVE",
"397 730 CURVE SMOOTH",
"182 730 LINE",
"66 0 LINE"
);
},
{
closed = 1;
nodes = (
"224 684 LINE",
"389 684 LINE SMOOTH",
"487 684 OFFCURVE",
"540 624 OFFCURVE",
"524 527 CURVE SMOOTH",
"509 431 OFFCURVE",
"437 370 OFFCURVE",
"340 370 CURVE SMOOTH",
"175 370 LINE"
);
}
);
width = 600;
}
);
unicode = 0050;
},
{
glyphname = Thorn;
layers = (
{
layerId = "9ADF6715-3D0F-493D-8567-18A6FBCFC567";
paths = (
{
closed = 1;
nodes = (
"176 0 LINE",
"202 165 LINE",
"322 165 LINE SMOOTH",
"465 165 OFFCURVE",
"565 246 OFFCURVE",
"586 380 CURVE SMOOTH",
"608 515 OFFCURVE",
"534 595 OFFCURVE",
"390 595 CURVE SMOOTH",
"270 595 LINE",
"292 730 LINE",
"142 730 LINE",
"26 0 LINE"
);
},
{
closed = 1;
nodes = (
"250 470 LINE",
"345 470 LINE SMOOTH",
"413 470 OFFCURVE",
"445 438 OFFCURVE",
"436 380 CURVE SMOOTH",
"427 322 OFFCURVE",
"385 290 OFFCURVE",
"317 290 CURVE SMOOTH",
"222 290 LINE"
);
}
);
width = 600;
},
{
layerId = "CCC0BD40-BA8C-414E-B576-CF0B94E6C996";
paths = (
{
closed = 1;
nodes = (
"136 0 LINE",
"165 180 LINE",
"318 180 LINE SMOOTH",
"450 180 OFFCURVE",
"547 258 OFFCURVE",
"566 380 CURVE SMOOTH",
"585 500 OFFCURVE",
"512 580 OFFCURVE",
"381 580 CURVE SMOOTH",
"228 580 LINE",
"252 730 LINE",
"162 730 LINE",
"46 0 LINE"
);
},
{
closed = 1;
nodes = (
"215 500 LINE",
"368 500 LINE SMOOTH",
"444 500 OFFCURVE",
"485 454 OFFCURVE",
"473 380 CURVE SMOOTH",
"461 306 OFFCURVE",
"407 260 OFFCURVE",
"330 260 CURVE SMOOTH",
"177 260 LINE"
);
}
);
width = 600;
},
{
layerId = "EDF5EB54-295C-4C90-9A2F-67CD82979CFF";
paths = (
{
closed = 1;
nodes = (
"111 0 LINE",
"142 195 LINE",
"320 195 LINE SMOOTH",
"441 195 OFFCURVE",
"528 266 OFFCURVE",
"546 380 CURVE SMOOTH",
"564 494 OFFCURVE",
"499 565 OFFCURVE",
"378 565 CURVE SMOOTH",
"200 565 LINE",
"227 730 LINE",
"177 730 LINE",
"61 0 LINE"
);
},
{
closed = 1;
nodes = (
"193 520 LINE",
"371 520 LINE SMOOTH",
"462 520 OFFCURVE",
"510 467 OFFCURVE",
"496 380 CURVE SMOOTH",
"483 294 OFFCURVE",
"418 241 OFFCURVE",
"327 241 CURVE SMOOTH",
"149 241 LINE"
);
}
);
width = 600;
}
);
unicode = 00DE;
},
{
glyphname = Q;
layers = (
{
anchors = (
{
name = bottom;
position = "{256, 0}";
},
{
name = top;
position = "{372, 730}";
}
);
layerId = "9ADF6715-3D0F-493D-8567-18A6FBCFC567";
paths = (
{
closed = 1;
nodes = (
"479 -180 LINE",
"362 77 LINE",
"345 3 LINE",
"447 29 OFFCURVE",
"513 106 OFFCURVE",
"529 210 CURVE SMOOTH",
"578 520 LINE SMOOTH",
"599 652 OFFCURVE",
"517 740 OFFCURVE",
"373 740 CURVE SMOOTH",
"228 740 OFFCURVE",
"119 653 OFFCURVE",
"98 520 CURVE SMOOTH",
"49 210 LINE SMOOTH",
"28 79 OFFCURVE",
"110 -10 OFFCURVE",
"254 -10 CURVE SMOOTH",
"260 -10 OFFCURVE",
"269 -9 OFFCURVE",
"274 -9 CURVE",
"250 4 LINE",
"332 -180 LINE"
);
},
{
closed = 1;
nodes = (
"213 121 OFFCURVE",
"190 153 OFFCURVE",
"199 210 CURVE SMOOTH",
"248 520 LINE SMOOTH",
"257 578 OFFCURVE",
"295 610 OFFCURVE",
"353 610 CURVE SMOOTH",
"411 610 OFFCURVE",
"437 578 OFFCURVE",
"428 520 CURVE SMOOTH",
"379 210 LINE SMOOTH",
"370 153 OFFCURVE",
"337 121 OFFCURVE",
"275 121 CURVE SMOOTH"
);
}
);
width = 600;
},
{
anchors = (
{
name = bottom;
position = "{256, 0}";
},
{
name = top;
position = "{372, 730}";
}
);
layerId = "CCC0BD40-BA8C-414E-B576-CF0B94E6C996";
paths = (
{
closed = 1;
nodes = (
"450 -180 LINE",
"348 50 LINE",
"342 4 LINE",
"430 31 OFFCURVE",
"492 105 OFFCURVE",
"508 205 CURVE SMOOTH",
"559 525 LINE SMOOTH",
"580 656 OFFCURVE",
"508 740 OFFCURVE",
"373 740 CURVE SMOOTH",
"238 740 OFFCURVE",
"140 656 OFFCURVE",
"119 525 CURVE SMOOTH",
"68 205 LINE SMOOTH",
"47 74 OFFCURVE",
"119 -10 OFFCURVE",
"254 -10 CURVE SMOOTH",
"264 -10 OFFCURVE",
"275 -9 OFFCURVE",
"286 -7 CURVE",
"274 -3 LINE",
"352 -180 LINE"
);
},
{
closed = 1;
nodes = (
"188 70 OFFCURVE",
"145 123 OFFCURVE",
"158 205 CURVE SMOOTH",
"209 525 LINE SMOOTH",
"222 607 OFFCURVE",
"282 660 OFFCURVE",
"361 660 CURVE SMOOTH",
"440 660 OFFCURVE",
"482 607 OFFCURVE",
"469 525 CURVE SMOOTH",
"418 205 LINE SMOOTH",
"405 123 OFFCURVE",
"346 70 OFFCURVE",
"267 70 CURVE SMOOTH"
);
}
);
width = 600;
},
{
anchors = (
{
name = bottom;
position = "{256, 0}";
},
{
name = top;
position = "{372, 730}";
}
);
layerId = "EDF5EB54-295C-4C90-9A2F-67CD82979CFF";
paths = (
{
closed = 1;
nodes = (
"433 -180 LINE",
"340 31 LINE",
"339 5 LINE",
"415 31 OFFCURVE",
"467 101 OFFCURVE",
"481 190 CURVE SMOOTH",
"537 540 LINE SMOOTH",
"556 656 OFFCURVE",
"493 740 OFFCURVE",
"374 740 CURVE SMOOTH",
"254 740 OFFCURVE",
"167 662 OFFCURVE",
"147 540 CURVE SMOOTH",
"91 190 LINE SMOOTH",
"72 69 OFFCURVE",
"136 -10 OFFCURVE",
"255 -10 CURVE SMOOTH",
"275 -10 OFFCURVE",
"298 -7 OFFCURVE",
"309 -5 CURVE",
"301 0 LINE",
"382 -180 LINE"
);
},
{
closed = 1;
nodes = (
"171 35 OFFCURVE",
"125 92 OFFCURVE",
"141 190 CURVE SMOOTH",
"197 540 LINE SMOOTH",
"213 638 OFFCURVE",
"275 695 OFFCURVE",
"367 695 CURVE SMOOTH",
"457 695 OFFCURVE",
"503 637 OFFCURVE",
"487 540 CURVE SMOOTH",
"431 190 LINE SMOOTH",
"415 92 OFFCURVE",
"354 35 OFFCURVE",
"263 35 CURVE SMOOTH"
);
}
);
width = 600;
}
);
unicode = 0051;
},
{
glyphname = R;
layers = (
{
anchors = (
{
name = bottom;
position = "{256, 0}";
},
{
name = top;
position = "{372, 730}";
}
);
layerId = "9ADF6715-3D0F-493D-8567-18A6FBCFC567";
paths = (
{
closed = 1;
nodes = (
"169 0 LINE",
"213 276 LINE",
"289 276 LINE",
"363 0 LINE",
"521 0 LINE",
"431 300 LINE",
"517 334 OFFCURVE",
"576 410 OFFCURVE",
"591 508 CURVE SMOOTH",
"612 640 OFFCURVE",
"523 730 OFFCURVE",
"372 730 CURVE SMOOTH",
"138 730 LINE",
"22 0 LINE"
);
},
{
closed = 1;
nodes = (
"264 600 LINE",
"351 600 LINE SMOOTH",
"417 600 OFFCURVE",
"450 563 OFFCURVE",
"440 501 CURVE SMOOTH",
"431 441 OFFCURVE",
"386 406 OFFCURVE",
"320 406 CURVE SMOOTH",
"233 406 LINE"
);
}
);
width = 600;
},
{
anchors = (
{
name = bottom;
position = "{256, 0}";
},
{
name = top;
position = "{372, 730}";
}
);
layerId = "CCC0BD40-BA8C-414E-B576-CF0B94E6C996";
paths = (
{
closed = 1;
nodes = (
"138 0 LINE",
"187 310 LINE",
"311 310 LINE",
"405 0 LINE",
"501 0 LINE",
"403 319 LINE",
"497 349 OFFCURVE",
"559 422 OFFCURVE",
"573 520 CURVE SMOOTH",
"593 645 OFFCURVE",
"520 730 OFFCURVE",
"390 730 CURVE SMOOTH",
"165 730 LINE",
"49 0 LINE"
);
},
{
closed = 1;
nodes = (
"241 649 LINE",
"377 649 LINE SMOOTH",
"451 649 OFFCURVE",
"493 598 OFFCURVE",
"480 520 CURVE SMOOTH",
"468 442 OFFCURVE",
"411 391 OFFCURVE",
"336 391 CURVE SMOOTH",
"200 391 LINE"
);
}
);
width = 600;
},
{
anchors = (
{
name = bottom;
position = "{256, 0}";
},
{
name = top;
position = "{372, 730}";
}
);
layerId = "EDF5EB54-295C-4C90-9A2F-67CD82979CFF";
paths = (
{
closed = 1;
nodes = (
"116 0 LINE",
"168 330 LINE",
"321 330 LINE",
"434 0 LINE",
"486 0 LINE",
"368 332 LINE",
"472 347 OFFCURVE",
"548 422 OFFCURVE",
"565 528 CURVE SMOOTH",
"585 650 OFFCURVE",
"514 730 OFFCURVE",
"387 730 CURVE SMOOTH",
"182 730 LINE",
"66 0 LINE"
);
},
{
closed = 1;
nodes = (
"224 684 LINE",
"379 684 LINE SMOOTH",
"476 684 OFFCURVE",
"530 624 OFFCURVE",
"515 530 CURVE SMOOTH",
"500 436 OFFCURVE",
"427 375 OFFCURVE",
"330 375 CURVE SMOOTH",
"175 375 LINE"
);
}
);
width = 600;
}
);
unicode = 0052;
},
{
glyphname = S;
layers = (
{
anchors = (
{
name = bottom;
position = "{256, 0}";
},
{
name = top;
position = "{372, 730}";
}
);
layerId = "9ADF6715-3D0F-493D-8567-18A6FBCFC567";
paths = (
{
closed = 1;
nodes = (
"416 -10 OFFCURVE",
"520 69 OFFCURVE",
"542 206 CURVE SMOOTH",
"560 324 OFFCURVE",
"503 415 OFFCURVE",
"392 441 CURVE SMOOTH",
"303 462 LINE SMOOTH",
"261 472 OFFCURVE",
"240 496 OFFCURVE",
"246 535 CURVE SMOOTH",
"253 582 OFFCURVE",
"292 612 OFFCURVE",
"349 612 CURVE SMOOTH",
"408 612 OFFCURVE",
"438 581 OFFCURVE",
"430 531 CURVE",
"576 531 LINE",
"595 655 OFFCURVE",
"512 740 OFFCURVE",
"369 740 CURVE SMOOTH",
"219 740 OFFCURVE",
"121 663 OFFCURVE",
"99 530 CURVE SMOOTH",
"82 423 OFFCURVE",
"141 342 OFFCURVE",
"252 315 CURVE SMOOTH",
"338 294 LINE SMOOTH",
"383 283 OFFCURVE",
"401 247 OFFCURVE",
"395 206 CURVE SMOOTH",
"388 156 OFFCURVE",
"340 120 OFFCURVE",
"277 120 CURVE SMOOTH",
"210 120 OFFCURVE",
"174 155 OFFCURVE",
"182 210 CURVE",
"36 210 LINE",
"16 79 OFFCURVE",
"106 -10 OFFCURVE",
"256 -10 CURVE SMOOTH"
);
}
);
width = 600;
},
{
anchors = (
{
name = bottom;
position = "{256, 0}";
},
{
name = top;
position = "{372, 730}";
}
);
layerId = "CCC0BD40-BA8C-414E-B576-CF0B94E6C996";
paths = (
{
closed = 1;
nodes = (
"399 -10 OFFCURVE",
"495 67 OFFCURVE",
"516 200 CURVE SMOOTH",
"532 301 OFFCURVE",
"487 377 OFFCURVE",
"394 405 CURVE SMOOTH",
"286 437 LINE SMOOTH",
"236 452 OFFCURVE",
"212 493 OFFCURVE",
"221 547 CURVE SMOOTH",
"231 614 OFFCURVE",
"287 660 OFFCURVE",
"358 660 CURVE SMOOTH",
"429 660 OFFCURVE",
"471 614 OFFCURVE",
"461 547 CURVE",
"551 547 LINE",
"569 660 OFFCURVE",
"493 740 OFFCURVE",
"370 740 CURVE SMOOTH",
"239 740 OFFCURVE",
"152 668 OFFCURVE",
"132 545 CURVE SMOOTH",
"117 451 OFFCURVE",
"162 380 OFFCURVE",
"250 354 CURVE SMOOTH",
"356 323 LINE SMOOTH",
"411 307 OFFCURVE",
"437 259 OFFCURVE",
"428 200 CURVE SMOOTH",
"415 122 OFFCURVE",
"354 70 OFFCURVE",
"271 70 CURVE SMOOTH",
"185 70 OFFCURVE",
"137 119 OFFCURVE",
"150 200 CURVE",
"60 200 LINE",
"39 69 OFFCURVE",
"117 -10 OFFCURVE",
"258 -10 CURVE SMOOTH"
);
}
);
width = 600;
},
{
anchors = (
{
name = bottom;
position = "{256, 0}";
},
{
name = top;
position = "{372, 730}";
}
);
layerId = "EDF5EB54-295C-4C90-9A2F-67CD82979CFF";
paths = (
{
closed = 1;
nodes = (
"391 -10 OFFCURVE",
"481 63 OFFCURVE",
"500 183 CURVE SMOOTH",
"515 279 OFFCURVE",
"469 357 OFFCURVE",
"380 386 CURVE SMOOTH",
"283 418 LINE SMOOTH",
"221 439 OFFCURVE",
"188 495 OFFCURVE",
"199 563 CURVE SMOOTH",
"212 642 OFFCURVE",
"281 696 OFFCURVE",
"369 696 CURVE SMOOTH",
"459 696 OFFCURVE",
"511 635 OFFCURVE",
"496 545 CURVE",
"545 545 LINE",
"564 659 OFFCURVE",
"493 740 OFFCURVE",
"377 740 CURVE SMOOTH",
"252 740 OFFCURVE",
"168 672 OFFCURVE",
"150 559 CURVE SMOOTH",
"136 471 OFFCURVE",
"180 399 OFFCURVE",
"264 372 CURVE SMOOTH",
"361 341 LINE SMOOTH",
"429 319 OFFCURVE",
"463 257 OFFCURVE",
"451 180 CURVE SMOOTH",
"437 94 OFFCURVE",
"362 35 OFFCURVE",
"267 35 CURVE SMOOTH",
"166 35 OFFCURVE",
"106 102 OFFCURVE",
"122 200 CURVE",
"73 200 LINE",
"53 75 OFFCURVE",
"129 -10 OFFCURVE",
"259 -10 CURVE SMOOTH"
);
}
);
width = 600;
}
);
unicode = 0053;
},
{
glyphname = Scedilla;
layers = (
{
anchors = (
{
name = _bottom;
position = "{256, 0}";
}
);
components = (
{
alignment = -1;
name = S;
}
);
layerId = "9ADF6715-3D0F-493D-8567-18A6FBCFC567";
paths = (
{
closed = 1;
nodes = (
"225 -225 LINE SMOOTH",
"309 -225 OFFCURVE",
"372 -182 OFFCURVE",
"380 -133 CURVE SMOOTH",
"390 -72 OFFCURVE",
"313 -43 OFFCURVE",
"253 -39 CURVE",
"281 16 LINE",
"208 16 LINE",
"159 -69 LINE",
"232 -69 OFFCURVE",
"272 -88 OFFCURVE",
"267 -119 CURVE SMOOTH",
"265 -135 OFFCURVE",
"239 -155 OFFCURVE",
"206 -155 CURVE SMOOTH",
"126 -155 LINE",
"115 -225 LINE"
);
}
);
width = 600;
},
{
anchors = (
{
name = _bottom;
position = "{256, 0}";
}
);
components = (
{
alignment = -1;
name = S;
}
);
layerId = "CCC0BD40-BA8C-414E-B576-CF0B94E6C996";
paths = (
{
closed = 1;
nodes = (
"214 -203 LINE SMOOTH",
"286 -203 OFFCURVE",
"340 -166 OFFCURVE",
"347 -120 CURVE SMOOTH",
"355 -68 OFFCURVE",
"292 -41 OFFCURVE",
"240 -35 CURVE",
"271 26 LINE",
"214 26 LINE",
"164 -69 LINE",
"231 -69 OFFCURVE",
"266 -89 OFFCURVE",
"262 -112 CURVE SMOOTH",
"259 -130 OFFCURVE",
"237 -148 OFFCURVE",
"208 -148 CURVE SMOOTH",
"138 -148 LINE",
"129 -203 LINE"
);
}
);
width = 600;
},
{
anchors = (
{
name = _bottom;
position = "{256, 0}";
}
);
components = (
{
alignment = -1;
name = S;
}
);
layerId = "EDF5EB54-295C-4C90-9A2F-67CD82979CFF";
paths = (
{
closed = 1;
nodes = (
"240 -195 LINE SMOOTH",
"300 -195 OFFCURVE",
"346 -161 OFFCURVE",
"352 -118 CURVE SMOOTH",
"361 -61 OFFCURVE",
"302 -37 OFFCURVE",
"256 -34 CURVE",
"288 26 LINE",
"246 26 LINE",
"197 -64 LINE",
"268 -64 OFFCURVE",
"311 -86 OFFCURVE",
"306 -118 CURVE SMOOTH",
"303 -140 OFFCURVE",
"278 -160 OFFCURVE",
"246 -160 CURVE SMOOTH",
"166 -160 LINE",
"160 -195 LINE"
);
}
);
width = 600;
}
);
unicode = 015E;
},
{
glyphname = Germandbls;
layers = (
{
layerId = "EDF5EB54-295C-4C90-9A2F-67CD82979CFF";
paths = (
{
closed = 1;
nodes = (
"116 0 LINE",
"202 543 LINE SMOOTH",
"216 629 OFFCURVE",
"281 685 OFFCURVE",
"369 685 CURVE SMOOTH",
"528 685 LINE",
"291 411 LINE",
"284 368 LINE",
"324 368 LINE SMOOTH",
"421 368 OFFCURVE",
"474 305 OFFCURVE",
"459 208 CURVE SMOOTH",
"443 109 OFFCURVE",
"370 45 OFFCURVE",
"273 45 CURVE SMOOTH",
"211 45 LINE",
"204 0 LINE",
"266 0 LINE SMOOTH",
"394 0 OFFCURVE",
"489 82 OFFCURVE",
"509 210 CURVE SMOOTH",
"528 330 OFFCURVE",
"458 407 OFFCURVE",
"330 407 CURVE",
"331 396 LINE",
"581 684 LINE",
"589 730 LINE",
"377 730 LINE SMOOTH",
"259 730 OFFCURVE",
"170 657 OFFCURVE",
"152 543 CURVE SMOOTH",
"66 0 LINE"
);
}
);
width = 600;
},
{
layerId = "9ADF6715-3D0F-493D-8567-18A6FBCFC567";
paths = (
{
closed = 1;
nodes = (
"151 0 LINE",
"232 511 LINE SMOOTH",
"241 568 OFFCURVE",
"286 605 OFFCURVE",
"347 605 CURVE SMOOTH",
"460 605 LINE",
"284 438 LINE",
"267 328 LINE",
"314 328 LINE SMOOTH",
"377 328 OFFCURVE",
"409 287 OFFCURVE",
"400 227 CURVE SMOOTH",
"390 167 OFFCURVE",
"346 125 OFFCURVE",
"282 125 CURVE SMOOTH",
"235 125 LINE",
"215 0 LINE",
"267 0 LINE SMOOTH",
"418 0 OFFCURVE",
"528 84 OFFCURVE",
"549 215 CURVE SMOOTH",
"569 344 OFFCURVE",
"495 427 OFFCURVE",
"359 425 CURVE",
"364 370 LINE",
"595 589 LINE",
"618 730 LINE",
"368 730 LINE SMOOTH",
"225 730 OFFCURVE",
"118 644 OFFCURVE",
"97 511 CURVE SMOOTH",
"16 0 LINE"
);
}
);
width = 600;
},
{
layerId = "CCC0BD40-BA8C-414E-B576-CF0B94E6C996";
paths = (
{
closed = 1;
nodes = (
"138 0 LINE",
"221 524 LINE SMOOTH",
"233 601 OFFCURVE",
"287 648 OFFCURVE",
"361 648 CURVE SMOOTH",
"489 648 LINE",
"293 423 LINE",
"281 345 LINE",
"326 345 LINE SMOOTH",
"406 345 OFFCURVE",
"448 295 OFFCURVE",
"435 215 CURVE SMOOTH",
"422 133 OFFCURVE",
"364 82 OFFCURVE",
"284 82 CURVE SMOOTH",
"227 82 LINE",
"214 0 LINE",
"281 0 LINE SMOOTH",
"410 0 OFFCURVE",
"510 86 OFFCURVE",
"530 215 CURVE SMOOTH",
"550 342 OFFCURVE",
"487 425 OFFCURVE",
"373 423 CURVE",
"369 396 LINE",
"587 642 LINE",
"601 730 LINE",
"374 730 LINE SMOOTH",
"248 730 OFFCURVE",
"151 648 OFFCURVE",
"131 524 CURVE SMOOTH",
"48 0 LINE"
);
}
);
width = 600;
}
);
unicode = 1E9E;
},
{
glyphname = Schwa;
layers = (
{
layerId = "9ADF6715-3D0F-493D-8567-18A6FBCFC567";
paths = (
{
closed = 1;
nodes = (
"402 -10 OFFCURVE",
"508 78 OFFCURVE",
"529 210 CURVE SMOOTH",
"578 520 LINE SMOOTH",
"599 653 OFFCURVE",
"521 740 OFFCURVE",
"374 740 CURVE SMOOTH",
"228 740 OFFCURVE",
"122 654 OFFCURVE",
"100 520 CURVE",
"250 520 LINE",
"260 578 OFFCURVE",
"294 610 OFFCURVE",
"354 610 CURVE SMOOTH",
"414 610 OFFCURVE",
"438 578 OFFCURVE",
"428 520 CURVE",
"412 416 LINE",
"82 416 LINE",
"49 210 LINE SMOOTH",
"28 78 OFFCURVE",
"109 -10 OFFCURVE",
"255 -10 CURVE SMOOTH"
);
},
{
closed = 1;
nodes = (
"212 105 OFFCURVE",
"188 138 OFFCURVE",
"199 210 CURVE SMOOTH",
"216 316 LINE",
"204 306 LINE",
"394 306 LINE",
"379 210 LINE SMOOTH",
"368 142 OFFCURVE",
"340 105 OFFCURVE",
"274 105 CURVE SMOOTH"
);
}
);
width = 600;
},
{
layerId = "CCC0BD40-BA8C-414E-B576-CF0B94E6C996";
paths = (
{
closed = 1;
nodes = (
"384 -10 OFFCURVE",
"478 73 OFFCURVE",
"498 200 CURVE SMOOTH",
"550 530 LINE SMOOTH",
"571 661 OFFCURVE",
"506 740 OFFCURVE",
"373 740 CURVE SMOOTH",
"242 740 OFFCURVE",
"150 659 OFFCURVE",
"130 530 CURVE",
"220 530 LINE",
"233 613 OFFCURVE",
"283 660 OFFCURVE",
"361 660 CURVE SMOOTH",
"440 660 OFFCURVE",
"473 613 OFFCURVE",
"460 531 CURVE SMOOTH",
"439 400 LINE",
"109 400 LINE",
"78 200 LINE SMOOTH",
"58 73 OFFCURVE",
"124 -10 OFFCURVE",
"254 -10 CURVE SMOOTH"
);
},
{
closed = 1;
nodes = (
"184 65 OFFCURVE",
"154 113 OFFCURVE",
"168 200 CURVE SMOOTH",
"190 338 LINE",
"181 330 LINE",
"428 330 LINE",
"408 200 LINE SMOOTH",
"394 113 OFFCURVE",
"348 65 OFFCURVE",
"266 65 CURVE SMOOTH"
);
}
);
width = 600;
},
{
layerId = "EDF5EB54-295C-4C90-9A2F-67CD82979CFF";
paths = (
{
closed = 1;
nodes = (
"375 -10 OFFCURVE",
"462 69 OFFCURVE",
"481 190 CURVE SMOOTH",
"537 540 LINE SMOOTH",
"556 662 OFFCURVE",
"494 740 OFFCURVE",
"372 740 CURVE SMOOTH",
"248 740 OFFCURVE",
"165 658 OFFCURVE",
"145 530 CURVE",
"195 530 LINE",
"211 632 OFFCURVE",
"270 695 OFFCURVE",
"365 695 CURVE SMOOTH",
"458 695 OFFCURVE",
"502 636 OFFCURVE",
"487 540 CURVE SMOOTH",
"461 378 LINE",
"121 378 LINE",
"91 190 LINE SMOOTH",
"72 69 OFFCURVE",
"132 -10 OFFCURVE",
"253 -10 CURVE SMOOTH"
);
},
{
closed = 1;
nodes = (
"168 34 OFFCURVE",
"126 94 OFFCURVE",
"141 190 CURVE SMOOTH",
"165 344 LINE",
"153 335 LINE",
"454 335 LINE",
"431 190 LINE SMOOTH",
"416 93 OFFCURVE",
"354 34 OFFCURVE",
"260 34 CURVE SMOOTH"
);
}
);
width = 600;
}
);
unicode = 018F;
},
{
glyphname = T;
layers = (
{
anchors = (
{
name = bottom;
position = "{256, 0}";
},
{
name = center;
position = "{314, 365}";
},
{
name = top;
position = "{372, 730}";
}
);
layerId = "9ADF6715-3D0F-493D-8567-18A6FBCFC567";
paths = (
{
closed = 1;
nodes = (
"331 0 LINE",
"424 590 LINE",
"609 590 LINE",
"632 730 LINE",
"112 730 LINE",
"89 590 LINE",
"274 590 LINE",
"181 0 LINE"
);
}
);
width = 600;
},
{
anchors = (
{
name = bottom;
position = "{256, 0}";
},
{
name = center;
position = "{314, 365}";
},
{
name = top;
position = "{372, 730}";
}
);
layerId = "CCC0BD40-BA8C-414E-B576-CF0B94E6C996";
paths = (
{
closed = 1;
nodes = (
"301 0 LINE",
"404 648 LINE",
"604 648 LINE",
"617 730 LINE",
"127 730 LINE",
"114 648 LINE",
"314 648 LINE",
"211 0 LINE"
);
}
);
width = 600;
},
{
anchors = (
{
name = bottom;
position = "{256, 0}";
},
{
name = center;
position = "{314, 365}";
},
{
name = top;
position = "{372, 730}";
}
);
layerId = "EDF5EB54-295C-4C90-9A2F-67CD82979CFF";
paths = (
{
closed = 1;
nodes = (
"282 0 LINE",
"390 684 LINE",
"604 684 LINE",
"612 730 LINE",
"132 730 LINE",
"124 684 LINE",
"340 684 LINE",
"232 0 LINE"
);
}
);
width = 600;
}
);
unicode = 0054;
},
{
glyphname = Tbar;
layers = (
{
components = (
{
alignment = -1;
name = T;
}
);
layerId = "9ADF6715-3D0F-493D-8567-18A6FBCFC567";
paths = (
{
closed = 1;
nodes = (
"500 275 LINE",
"518 390 LINE",
"118 390 LINE",
"100 275 LINE"
);
}
);
width = 600;
},
{
components = (
{
alignment = -1;
name = T;
}
);
layerId = "CCC0BD40-BA8C-414E-B576-CF0B94E6C996";
paths = (
{
closed = 1;
nodes = (
"493 295 LINE",
"505 370 LINE",
"125 370 LINE",
"113 295 LINE"
);
}
);
width = 600;
},
{
components = (
{
name = T;
}
);
layerId = "EDF5EB54-295C-4C90-9A2F-67CD82979CFF";
paths = (
{
closed = 1;
nodes = (
"486 310 LINE",
"493 355 LINE",
"133 355 LINE",
"126 310 LINE"
);
}
);
width = 600;
}
);
unicode = 0166;
},
{
glyphname = Tcedilla;
layers = (
{
components = (
{
alignment = -1;
name = T;
}
);
layerId = "9ADF6715-3D0F-493D-8567-18A6FBCFC567";
paths = (
{
closed = 1;
nodes = (
"284 -225 LINE SMOOTH",
"368 -225 OFFCURVE",
"431 -182 OFFCURVE",
"439 -133 CURVE SMOOTH",
"449 -72 OFFCURVE",
"372 -43 OFFCURVE",
"312 -39 CURVE",
"331 0 LINE",
"267 16 LINE",
"218 -69 LINE",
"291 -69 OFFCURVE",
"331 -88 OFFCURVE",
"326 -119 CURVE SMOOTH",
"324 -135 OFFCURVE",
"298 -155 OFFCURVE",
"265 -155 CURVE SMOOTH",
"185 -155 LINE",
"174 -225 LINE"
);
}
);
width = 600;
},
{
components = (
{
alignment = -1;
name = T;
}
);
layerId = "CCC0BD40-BA8C-414E-B576-CF0B94E6C996";
paths = (
{
closed = 1;
nodes = (
"257 -203 LINE SMOOTH",
"329 -203 OFFCURVE",
"383 -166 OFFCURVE",
"390 -120 CURVE SMOOTH",
"398 -68 OFFCURVE",
"335 -41 OFFCURVE",
"283 -35 CURVE",
"301 0 LINE",
"257 26 LINE",
"207 -69 LINE",
"274 -69 OFFCURVE",
"309 -89 OFFCURVE",
"305 -112 CURVE SMOOTH",
"302 -130 OFFCURVE",
"280 -148 OFFCURVE",
"251 -148 CURVE SMOOTH",
"181 -148 LINE",
"172 -203 LINE"
);
}
);
width = 600;
},
{
components = (
{
alignment = -1;
name = T;
}
);
layerId = "EDF5EB54-295C-4C90-9A2F-67CD82979CFF";
paths = (
{
closed = 1;
nodes = (
"248 -195 LINE SMOOTH",
"308 -195 OFFCURVE",
"353 -161 OFFCURVE",
"360 -118 CURVE SMOOTH",
"369 -61 OFFCURVE",
"310 -37 OFFCURVE",
"263 -34 CURVE",
"282 0 LINE",
"254 26 LINE",
"205 -64 LINE",
"276 -64 OFFCURVE",
"319 -86 OFFCURVE",
"314 -118 CURVE SMOOTH",
"311 -140 OFFCURVE",
"286 -160 OFFCURVE",
"254 -160 CURVE SMOOTH",
"174 -160 LINE",
"168 -195 LINE"
);
}
);
width = 600;
}
);
unicode = 0162;
},
{
glyphname = U;
layers = (
{
anchors = (
{
name = bottom;
position = "{256, 0}";
},
{
name = horn;
position = "{457, 730}";
},
{
name = ogonek;
position = "{305, 0}";
},
{
name = top;
position = "{372, 730}";
},
{
name = topright;
position = "{652, 730}";
}
);
layerId = "9ADF6715-3D0F-493D-8567-18A6FBCFC567";
paths = (
{
closed = 1;
nodes = (
"402 -10 OFFCURVE",
"508 76 OFFCURVE",
"530 214 CURVE SMOOTH",
"612 730 LINE",
"462 730 LINE",
"380 215 LINE SMOOTH",
"370 154 OFFCURVE",
"331 120 OFFCURVE",
"275 120 CURVE SMOOTH",
"218 120 OFFCURVE",
"190 154 OFFCURVE",
"200 215 CURVE SMOOTH",
"282 730 LINE",
"132 730 LINE",
"50 214 LINE SMOOTH",
"28 75 OFFCURVE",
"106 -10 OFFCURVE",
"254 -10 CURVE SMOOTH"
);
}
);
width = 600;
},
{
anchors = (
{
name = bottom;
position = "{256, 0}";
},
{
name = horn;
position = "{457, 730}";
},
{
name = ogonek;
position = "{305, 0}";
},
{
name = top;
position = "{372, 730}";
},
{
name = topright;
position = "{652, 730}";
}
);
layerId = "CCC0BD40-BA8C-414E-B576-CF0B94E6C996";
paths = (
{
closed = 1;
nodes = (
"391 -10 OFFCURVE",
"477 69 OFFCURVE",
"498 200 CURVE SMOOTH",
"582 730 LINE",
"492 730 LINE",
"408 200 LINE SMOOTH",
"395 120 OFFCURVE",
"347 70 OFFCURVE",
"267 70 CURVE SMOOTH",
"186 70 OFFCURVE",
"155 120 OFFCURVE",
"168 200 CURVE SMOOTH",
"252 730 LINE",
"162 730 LINE",
"78 200 LINE SMOOTH",
"57 70 OFFCURVE",
"118 -10 OFFCURVE",
"254 -10 CURVE SMOOTH"
);
}
);
width = 600;
},
{
anchors = (
{
name = bottom;
position = "{256, 0}";
},
{
name = horn;
position = "{464, 730}";
},
{
name = ogonek;
position = "{305, 0}";
},
{
name = top;
position = "{372, 730}";
},
{
name = topright;
position = "{652, 730}";
}
);
layerId = "EDF5EB54-295C-4C90-9A2F-67CD82979CFF";
paths = (
{
closed = 1;
nodes = (
"371 -10 OFFCURVE",
"459 69 OFFCURVE",
"478 190 CURVE SMOOTH",
"564 730 LINE",
"514 730 LINE",
"428 190 LINE SMOOTH",
"413 93 OFFCURVE",
"352 35 OFFCURVE",
"263 35 CURVE SMOOTH",
"173 35 OFFCURVE",
"129 92 OFFCURVE",
"144 190 CURVE SMOOTH",
"230 730 LINE",
"180 730 LINE",
"94 190 LINE SMOOTH",
"75 69 OFFCURVE",
"138 -10 OFFCURVE",
"255 -10 CURVE SMOOTH"
);
}
);
width = 600;
}
);
unicode = 0055;
},
{
glyphname = Uhorn;
layers = (
{
anchors = (
{
name = top;
position = "{372, 730}";
}
);
components = (
{
alignment = -1;
name = U;
}
);
layerId = "9ADF6715-3D0F-493D-8567-18A6FBCFC567";
paths = (
{
closed = 1;
nodes = (
"562 630 LINE SMOOTH",
"649 630 OFFCURVE",
"715 684 OFFCURVE",
"728 765 CURVE SMOOTH",
"740 840 LINE",
"620 840 LINE",
"608 765 LINE SMOOTH",
"605 743 OFFCURVE",
"590 730 OFFCURVE",
"568 730 CURVE SMOOTH",
"518 730 LINE",
"502 630 LINE"
);
}
);
width = 600;
},
{
anchors = (
{
name = top;
position = "{372, 730}";
}
);
components = (
{
name = U;
}
);
layerId = "CCC0BD40-BA8C-414E-B576-CF0B94E6C996";
paths = (
{
closed = 1;
nodes = (
"551 665 LINE SMOOTH",
"615 665 OFFCURVE",
"662 702 OFFCURVE",
"671 760 CURVE SMOOTH",
"684 840 LINE",
"609 840 LINE",
"597 765 LINE SMOOTH",
"594 744 OFFCURVE",
"578 730 OFFCURVE",
"557 730 CURVE SMOOTH",
"507 730 LINE",
"496 665 LINE"
);
}
);
width = 600;
},
{
anchors = (
{
name = top;
position = "{360, 730}";
}
);
components = (
{
alignment = -1;
name = U;
}
);
layerId = "EDF5EB54-295C-4C90-9A2F-67CD82979CFF";
paths = (
{
closed = 1;
nodes = (
"565 695 LINE SMOOTH",
"616 695 OFFCURVE",
"655 729 OFFCURVE",
"663 780 CURVE SMOOTH",
"673 840 LINE",
"633 840 LINE",
"623 780 LINE SMOOTH",
"618 750 OFFCURVE",
"598 730 OFFCURVE",
"571 730 CURVE SMOOTH",
"516 730 LINE",
"510 695 LINE"
);
}
);
width = 600;
}
);
unicode = 01AF;
},
{
glyphname = Uogonek;
layers = (
{
anchors = (
{
name = horn;
position = "{457, 730}";
},
{
name = top;
position = "{372, 730}";
}
);
layerId = "9ADF6715-3D0F-493D-8567-18A6FBCFC567";
paths = (
{
closed = 1;
nodes = (
"382 -225 LINE",
"399 -120 LINE",
"330 -120 LINE SMOOTH",
"301 -120 OFFCURVE",
"287 -103 OFFCURVE",
"290 -82 CURVE SMOOTH",
"293 -65 OFFCURVE",
"309 -38 OFFCURVE",
"339 -17 CURVE SMOOTH",
"393 21 LINE",
"463 58 OFFCURVE",
"516 127 OFFCURVE",
"529 210 CURVE SMOOTH",
"612 730 LINE",
"462 730 LINE",
"379 210 LINE SMOOTH",
"370 152 OFFCURVE",
"335 120 OFFCURVE",
"275 120 CURVE SMOOTH",
"215 120 OFFCURVE",
"190 152 OFFCURVE",
"199 210 CURVE SMOOTH",
"282 730 LINE",
"132 730 LINE",
"49 210 LINE SMOOTH",
"28 78 OFFCURVE",
"107 -10 OFFCURVE",
"254 -10 CURVE SMOOTH",
"287 -10 OFFCURVE",
"306 11 OFFCURVE",
"307 21 CURVE",
"235 -9 OFFCURVE",
"168 -68 OFFCURVE",
"161 -115 CURVE SMOOTH",
"150 -180 OFFCURVE",
"193 -225 OFFCURVE",
"274 -225 CURVE SMOOTH"
);
}
);
width = 600;
},
{
anchors = (
{
name = horn;
position = "{457, 730}";
},
{
name = top;
position = "{372, 730}";
}
);
layerId = "CCC0BD40-BA8C-414E-B576-CF0B94E6C996";
paths = (
{
closed = 1;
nodes = (
"381 -203 LINE",
"390 -143 LINE",
"330 -143 LINE SMOOTH",
"296 -143 OFFCURVE",
"279 -122 OFFCURVE",
"283 -93 CURVE SMOOTH",
"288 -65 OFFCURVE",
"307 -36 OFFCURVE",
"357 1 CURVE SMOOTH",
"390 25 LINE",
"448 60 OFFCURVE",
"485 121 OFFCURVE",
"498 200 CURVE SMOOTH",
"582 730 LINE",
"492 730 LINE",
"408 200 LINE SMOOTH",
"395 117 OFFCURVE",
"345 71 OFFCURVE",
"267 71 CURVE SMOOTH",
"189 71 OFFCURVE",
"155 117 OFFCURVE",
"168 200 CURVE SMOOTH",
"252 730 LINE",
"162 730 LINE",
"78 200 LINE SMOOTH",
"57 69 OFFCURVE",
"123 -10 OFFCURVE",
"254 -10 CURVE SMOOTH",
"258 -10 OFFCURVE",
"263 -10 OFFCURVE",
"267 -10 CURVE",
"226 -45 OFFCURVE",
"200 -82 OFFCURVE",
"196 -110 CURVE SMOOTH",
"187 -164 OFFCURVE",
"229 -203 OFFCURVE",
"303 -203 CURVE SMOOTH"
);
}
);
width = 600;
},
{
anchors = (
{
name = horn;
position = "{464, 730}";
},
{
name = top;
position = "{372, 730}";
}
);
layerId = "EDF5EB54-295C-4C90-9A2F-67CD82979CFF";
paths = (
{
closed = 1;
nodes = (
"367 -195 LINE",
"374 -153 LINE",
"310 -153 LINE SMOOTH",
"278 -153 OFFCURVE",
"262 -134 OFFCURVE",
"267 -103 CURVE SMOOTH",
"271 -75 OFFCURVE",
"300 -33 OFFCURVE",
"344 2 CURVE SMOOTH",
"355 10 LINE",
"422 45 OFFCURVE",
"465 105 OFFCURVE",
"478 190 CURVE SMOOTH",
"564 730 LINE",
"514 730 LINE",
"428 190 LINE SMOOTH",
"412 91 OFFCURVE",
"353 34 OFFCURVE",
"261 34 CURVE SMOOTH",
"169 34 OFFCURVE",
"128 91 OFFCURVE",
"144 190 CURVE SMOOTH",
"230 730 LINE",
"180 730 LINE",
"94 190 LINE SMOOTH",
"75 68 OFFCURVE",
"136 -10 OFFCURVE",
"254 -10 CURVE SMOOTH",
"265 -10 OFFCURVE",
"284 -9 OFFCURVE",
"295 -6 CURVE",
"252 -39 OFFCURVE",
"223 -80 OFFCURVE",
"218 -115 CURVE SMOOTH",
"210 -165 OFFCURVE",
"239 -195 OFFCURVE",
"294 -195 CURVE SMOOTH"
);
}
);
width = 600;
}
);
unicode = 0172;
},
{
glyphname = V;
layers = (
{
anchors = (
{
name = bottom;
position = "{256, 0}";
},
{
name = top;
position = "{372, 730}";
}
);
layerId = "9ADF6715-3D0F-493D-8567-18A6FBCFC567";
paths = (
{
closed = 1;
nodes = (
"352 0 LINE",
"647 730 LINE",
"493 730 LINE",
"322 270 LINE SMOOTH",
"310 237 OFFCURVE",
"292 178 OFFCURVE",
"282 144 CURVE",
"281 178 OFFCURVE",
"279 237 OFFCURVE",
"277 269 CURVE SMOOTH",
"249 730 LINE",
"97 730 LINE",
"162 0 LINE"
);
}
);
width = 600;
},
{
anchors = (
{
name = bottom;
position = "{256, 0}";
},
{
name = top;
position = "{372, 730}";
}
);
layerId = "CCC0BD40-BA8C-414E-B576-CF0B94E6C996";
paths = (
{
closed = 1;
nodes = (
"317 0 LINE",
"622 730 LINE",
"529 730 LINE",
"327 234 LINE SMOOTH",
"299 165 OFFCURVE",
"277 100 OFFCURVE",
"268 70 CURVE",
"268 100 OFFCURVE",
"264 165 OFFCURVE",
"258 234 CURVE SMOOTH",
"213 730 LINE",
"122 730 LINE",
"194 0 LINE"
);
}
);
width = 600;
},
{
anchors = (
{
name = bottom;
position = "{256, 0}";
},
{
name = top;
position = "{372, 730}";
}
);
layerId = "EDF5EB54-295C-4C90-9A2F-67CD82979CFF";
paths = (
{
closed = 1;
nodes = (
"288 0 LINE",
"604 730 LINE",
"552 730 LINE",
"316 180 LINE SMOOTH",
"291 122 OFFCURVE",
"271 66 OFFCURVE",
"262 40 CURVE",
"261 66 OFFCURVE",
"259 122 OFFCURVE",
"252 180 CURVE SMOOTH",
"190 730 LINE",
"140 730 LINE",
"224 0 LINE"
);
}
);
width = 600;
}
);
unicode = 0056;
},
{
glyphname = W;
layers = (
{
anchors = (
{
name = bottom;
position = "{256, 0}";
},
{
name = top;
position = "{372, 730}";
}
);
layerId = "9ADF6715-3D0F-493D-8567-18A6FBCFC567";
paths = (
{
closed = 1;
nodes = (
"191 0 LINE",
"322 485 LINE SMOOTH",
"331 519 OFFCURVE",
"347 594 OFFCURVE",
"357 640 CURVE",
"353 594 OFFCURVE",
"347 519 OFFCURVE",
"345 485 CURVE SMOOTH",
"317 0 LINE",
"473 0 LINE",
"662 730 LINE",
"539 730 LINE",
"427 242 LINE SMOOTH",
"421 213 OFFCURVE",
"406 144 OFFCURVE",
"398 100 CURVE",
"400 144 OFFCURVE",
"404 213 OFFCURVE",
"405 242 CURVE SMOOTH",
"427 730 LINE",
"313 730 LINE",
"177 242 LINE SMOOTH",
"170 213 OFFCURVE",
"153 144 OFFCURVE",
"142 100 CURVE",
"148 144 OFFCURVE",
"155 213 OFFCURVE",
"157 242 CURVE SMOOTH",
"198 730 LINE",
"82 730 LINE",
"34 0 LINE"
);
}
);
width = 600;
},
{
anchors = (
{
name = bottom;
position = "{256, 0}";
},
{
name = top;
position = "{372, 730}";
}
);
layerId = "CCC0BD40-BA8C-414E-B576-CF0B94E6C996";
paths = (
{
closed = 1;
nodes = (
"176 0 LINE",
"334 550 LINE SMOOTH",
"347 595 OFFCURVE",
"357 643 OFFCURVE",
"364 667 CURVE",
"362 643 OFFCURVE",
"357 595 OFFCURVE",
"355 550 CURVE SMOOTH",
"334 0 LINE",
"447 0 LINE",
"652 730 LINE",
"570 730 LINE",
"425 190 LINE SMOOTH",
"413 146 OFFCURVE",
"401 93 OFFCURVE",
"394 65 CURVE",
"396 93 OFFCURVE",
"398 146 OFFCURVE",
"400 190 CURVE SMOOTH",
"420 730 LINE",
"323 730 LINE",
"165 190 LINE SMOOTH",
"152 146 OFFCURVE",
"140 93 OFFCURVE",
"132 65 CURVE",
"136 93 OFFCURVE",
"141 146 OFFCURVE",
"143 190 CURVE SMOOTH",
"172 730 LINE",
"92 730 LINE",
"63 0 LINE"
);
}
);
width = 600;
},
{
anchors = (
{
name = bottom;
position = "{256, 0}";
},
{
name = top;
position = "{372, 730}";
}
);
layerId = "EDF5EB54-295C-4C90-9A2F-67CD82979CFF";
paths = (
{
closed = 1;
nodes = (
"156 0 LINE",
"322 530 LINE SMOOTH",
"338 582 OFFCURVE",
"356 652 OFFCURVE",
"368 690 CURVE",
"367 651 OFFCURVE",
"363 581 OFFCURVE",
"362 530 CURVE SMOOTH",
"353 0 LINE",
"425 0 LINE",
"632 730 LINE",
"583 730 LINE",
"435 190 LINE SMOOTH",
"425 154 OFFCURVE",
"404 80 OFFCURVE",
"391 35 CURVE",
"392 79 OFFCURVE",
"395 153 OFFCURVE",
"396 190 CURVE SMOOTH",
"405 730 LINE",
"341 730 LINE",
"175 190 LINE SMOOTH",
"164 154 OFFCURVE",
"144 80 OFFCURVE",
"131 35 CURVE",
"133 80 OFFCURVE",
"137 154 OFFCURVE",
"138 190 CURVE SMOOTH",
"156 730 LINE",
"112 730 LINE",
"86 0 LINE"
);
}
);
width = 600;
}
);
unicode = 0057;
},
{
glyphname = X;
layers = (
{
anchors = (
{
name = bottom;
position = "{256, 0}";
},
{
name = top;
position = "{372, 730}";
}
);
layerId = "9ADF6715-3D0F-493D-8567-18A6FBCFC567";
paths = (
{
closed = 1;
nodes = (
"142 0 LINE",
"259 180 LINE SMOOTH",
"278 209 OFFCURVE",
"291 237 OFFCURVE",
"297 250 CURVE",
"300 237 OFFCURVE",
"307 209 OFFCURVE",
"317 180 CURVE SMOOTH",
"376 0 LINE",
"536 0 LINE",
"400 373 LINE",
"639 730 LINE",
"473 730 LINE",
"369 570 LINE SMOOTH",
"350 541 OFFCURVE",
"339 515 OFFCURVE",
"334 504 CURVE",
"333 515 OFFCURVE",
"324 540 OFFCURVE",
"315 570 CURVE SMOOTH",
"265 730 LINE",
"105 730 LINE",
"232 381 LINE",
"-24 0 LINE"
);
}
);
width = 600;
},
{
anchors = (
{
name = bottom;
position = "{256, 0}";
},
{
name = top;
position = "{372, 730}";
}
);
layerId = "CCC0BD40-BA8C-414E-B576-CF0B94E6C996";
paths = (
{
closed = 1;
nodes = (
"100 0 LINE",
"262 233 LINE SMOOTH",
"277 255 OFFCURVE",
"295 284 OFFCURVE",
"305 300 CURVE",
"309 284 OFFCURVE",
"319 255 OFFCURVE",
"328 232 CURVE SMOOTH",
"417 0 LINE",
"516 0 LINE",
"367 374 LINE",
"621 730 LINE",
"518 730 LINE",
"369 514 LINE SMOOTH",
"353 491 OFFCURVE",
"336 462 OFFCURVE",
"327 447 CURVE",
"321 462 OFFCURVE",
"310 491 OFFCURVE",
"302 514 CURVE SMOOTH",
"223 730 LINE",
"123 730 LINE",
"264 372 LINE",
"-4 0 LINE"
);
}
);
width = 600;
},
{
anchors = (
{
name = bottom;
position = "{256, 0}";
},
{
name = top;
position = "{372, 730}";
}
);
layerId = "EDF5EB54-295C-4C90-9A2F-67CD82979CFF";
paths = (
{
closed = 1;
nodes = (
"66 0 LINE",
"246 252 LINE SMOOTH",
"261 273 OFFCURVE",
"292 316 OFFCURVE",
"313 344 CURVE",
"324 316 OFFCURVE",
"345 273 OFFCURVE",
"353 252 CURVE SMOOTH",
"449 0 LINE",
"503 0 LINE",
"346 381 LINE",
"604 730 LINE",
"548 730 LINE",
"388 508 LINE SMOOTH",
"372 485 OFFCURVE",
"340 442 OFFCURVE",
"321 416 CURVE",
"309 443 OFFCURVE",
"289 485 OFFCURVE",
"280 508 CURVE SMOOTH",
"194 730 LINE",
"140 730 LINE",
"287 381 LINE",
"9 0 LINE"
);
}
);
width = 600;
}
);
unicode = 0058;
},
{
glyphname = Y;
layers = (
{
anchors = (
{
name = bottom;
position = "{256, 0}";
},
{
name = top;
position = "{372, 730}";
},
{
name = topleft;
position = "{92, 730}";
}
);
layerId = "9ADF6715-3D0F-493D-8567-18A6FBCFC567";
paths = (
{
closed = 1;
nodes = (
"331 0 LINE",
"372 260 LINE",
"657 730 LINE",
"496 730 LINE",
"372 510 LINE SMOOTH",
"347 466 OFFCURVE",
"325 410 OFFCURVE",
"314 380 CURVE",
"313 410 OFFCURVE",
"307 466 OFFCURVE",
"296 510 CURVE SMOOTH",
"239 730 LINE",
"87 730 LINE",
"222 260 LINE",
"181 0 LINE"
);
}
);
width = 600;
},
{
anchors = (
{
name = bottom;
position = "{256, 0}";
},
{
name = top;
position = "{372, 730}";
},
{
name = topleft;
position = "{92, 730}";
}
);
layerId = "CCC0BD40-BA8C-414E-B576-CF0B94E6C996";
paths = (
{
closed = 1;
nodes = (
"301 0 LINE",
"344 273 LINE",
"637 730 LINE",
"540 730 LINE",
"350 430 LINE SMOOTH",
"329 397 OFFCURVE",
"315 372 OFFCURVE",
"310 362 CURVE",
"309 372 OFFCURVE",
"304 397 OFFCURVE",
"293 430 CURVE SMOOTH",
"199 730 LINE",
"107 730 LINE",
"254 273 LINE",
"211 0 LINE"
);
}
);
width = 600;
},
{
anchors = (
{
name = bottom;
position = "{256, 0}";
},
{
name = top;
position = "{372, 730}";
},
{
name = topleft;
position = "{92, 730}";
}
);
layerId = "EDF5EB54-295C-4C90-9A2F-67CD82979CFF";
paths = (
{
closed = 1;
nodes = (
"281 0 LINE",
"325 280 LINE",
"622 730 LINE",
"568 730 LINE",
"350 400 LINE SMOOTH",
"331 370 OFFCURVE",
"315 342 OFFCURVE",
"307 330 CURVE",
"303 343 OFFCURVE",
"295 371 OFFCURVE",
"285 400 CURVE SMOOTH",
"173 730 LINE",
"122 730 LINE",
"275 280 LINE",
"231 0 LINE"
);
}
);
width = 600;
}
);
unicode = 0059;
},
{
glyphname = Z;
layers = (
{
anchors = (
{
name = bottom;
position = "{256, 0}";
},
{
name = center;
position = "{314, 365}";
},
{
name = top;
position = "{372, 730}";
}
);
layerId = "9ADF6715-3D0F-493D-8567-18A6FBCFC567";
paths = (
{
closed = 1;
nodes = (
"481 0 LINE",
"503 140 LINE",
"228 140 LINE",
"563 590 LINE",
"586 730 LINE",
"155 730 LINE",
"132 590 LINE",
"388 590 LINE",
"54 140 LINE",
"32 0 LINE"
);
}
);
width = 600;
},
{
anchors = (
{
name = bottom;
position = "{256, 0}";
},
{
name = center;
position = "{314, 365}";
},
{
name = top;
position = "{372, 730}";
}
);
layerId = "CCC0BD40-BA8C-414E-B576-CF0B94E6C996";
paths = (
{
closed = 1;
nodes = (
"471 0 LINE",
"484 82 LINE",
"148 82 LINE",
"562 640 LINE",
"577 730 LINE",
"162 730 LINE",
"149 648 LINE",
"470 648 LINE",
"55 90 LINE",
"41 0 LINE"
);
}
);
width = 600;
},
{
anchors = (
{
name = bottom;
position = "{256, 0}";
},
{
name = center;
position = "{314, 365}";
},
{
name = top;
position = "{372, 730}";
}
);
layerId = "EDF5EB54-295C-4C90-9A2F-67CD82979CFF";
paths = (
{
closed = 1;
nodes = (
"464 0 LINE",
"471 46 LINE",
"108 46 LINE",
"558 673 LINE",
"567 730 LINE",
"167 730 LINE",
"159 684 LINE",
"508 684 LINE",
"55 50 LINE",
"47 0 LINE"
);
}
);
width = 600;
}
);
unicode = 005A;
},
{
glyphname = W.cv07;
layers = (
{
anchors = (
{
name = bottom;
position = "{256, 0}";
},
{
name = top;
position = "{372, 730}";
}
);
layerId = "9ADF6715-3D0F-493D-8567-18A6FBCFC567";
paths = (
{
closed = 1;
nodes = (
"185 0 LINE",
"333 485 LINE",
"323 0 LINE",
"483 0 LINE",
"662 730 LINE",
"538 730 LINE",
"434 242 LINE SMOOTH",
"428 215 OFFCURVE",
"413 134 OFFCURVE",
"404 90 CURVE",
"408 134 OFFCURVE",
"412 213 OFFCURVE",
"412 242 CURVE SMOOTH",
"413 605 LINE",
"289 605 LINE",
"168 242 LINE SMOOTH",
"159 215 OFFCURVE",
"143 144 OFFCURVE",
"132 100 CURVE",
"138 144 OFFCURVE",
"145 215 OFFCURVE",
"148 242 CURVE SMOOTH",
"197 730 LINE",
"82 730 LINE",
"24 0 LINE"
);
}
);
width = 600;
},
{
anchors = (
{
name = bottom;
position = "{256, 0}";
},
{
name = top;
position = "{372, 730}";
}
);
layerId = "CCC0BD40-BA8C-414E-B576-CF0B94E6C996";
paths = (
{
closed = 1;
nodes = (
"169 0 LINE",
"337 500 LINE",
"341 0 LINE",
"456 0 LINE",
"647 730 LINE",
"565 730 LINE",
"429 190 LINE SMOOTH",
"418 146 OFFCURVE",
"407 103 OFFCURVE",
"402 75 CURVE",
"404 103 OFFCURVE",
"406 144 OFFCURVE",
"406 190 CURVE SMOOTH",
"402 590 LINE",
"300 590 LINE",
"159 190 LINE SMOOTH",
"143 145 OFFCURVE",
"134 103 OFFCURVE",
"128 75 CURVE",
"131 103 OFFCURVE",
"136 146 OFFCURVE",
"139 190 CURVE SMOOTH",
"177 730 LINE",
"97 730 LINE",
"54 0 LINE"
);
}
);
width = 600;
},
{
anchors = (
{
name = bottom;
position = "{256, 0}";
},
{
name = top;
position = "{372, 730}";
}
);
layerId = "EDF5EB54-295C-4C90-9A2F-67CD82979CFF";
paths = (
{
closed = 1;
nodes = (
"146 0 LINE",
"343 530 LINE",
"363 0 LINE",
"435 0 LINE",
"632 730 LINE",
"579 730 LINE",
"441 190 LINE SMOOTH",
"432 154 OFFCURVE",
"411 83 OFFCURVE",
"401 38 CURVE",
"404 82 OFFCURVE",
"402 152 OFFCURVE",
"400 190 CURVE SMOOTH",
"379 575 LINE",
"317 575 LINE",
"171 190 LINE SMOOTH",
"158 155 OFFCURVE",
"137 82 OFFCURVE",
"125 38 CURVE",
"129 83 OFFCURVE",
"130 154 OFFCURVE",
"132 190 CURVE SMOOTH",
"160 730 LINE",
"112 730 LINE",
"78 0 LINE"
);
}
);
width = 600;
}
);
},
{
glyphname = K.cv08;
layers = (
{
anchors = (
{
name = bottom;
position = "{256, 0}";
},
{
name = top;
position = "{372, 730}";
}
);
layerId = "9ADF6715-3D0F-493D-8567-18A6FBCFC567";
paths = (
{
closed = 1;
nodes = (
"531 0 LINE",
"399 376 LINE",
"637 730 LINE",
"469 730 LINE",
"242 380 LINE",
"368 0 LINE"
);
},
{
closed = 1;
nodes = (
"172 0 LINE",
"288 730 LINE",
"138 730 LINE",
"22 0 LINE"
);
}
);
width = 600;
},
{
anchors = (
{
name = bottom;
position = "{256, 0}";
},
{
name = top;
position = "{372, 730}";
}
);
layerId = "CCC0BD40-BA8C-414E-B576-CF0B94E6C996";
paths = (
{
closed = 1;
nodes = (
"516 0 LINE",
"321 376 LINE",
"622 730 LINE",
"512 730 LINE",
"214 380 LINE",
"410 0 LINE"
);
},
{
closed = 1;
nodes = (
"139 0 LINE",
"255 730 LINE",
"165 730 LINE",
"49 0 LINE"
);
}
);
width = 600;
},
{
anchors = (
{
name = bottom;
position = "{256, 0}";
},
{
name = top;
position = "{372, 730}";
}
);
layerId = "EDF5EB54-295C-4C90-9A2F-67CD82979CFF";
paths = (
{
closed = 1;
nodes = (
"496 0 LINE",
"249 377 LINE",
"596 730 LINE",
"532 730 LINE",
"188 381 LINE",
"437 0 LINE"
);
},
{
closed = 1;
nodes = (
"116 0 LINE",
"232 730 LINE",
"182 730 LINE",
"66 0 LINE"
);
}
);
width = 600;
}
);
},
{
glyphname = Q.cv16;
layers = (
{
anchors = (
{
name = bottom;
position = "{256, 0}";
},
{
name = top;
position = "{372, 730}";
}
);
components = (
{
name = O;
}
);
layerId = "9ADF6715-3D0F-493D-8567-18A6FBCFC567";
paths = (
{
closed = 1;
nodes = (
"457 -180 LINE",
"476 -65 LINE",
"346 -65 LINE SMOOTH",
"318 -65 OFFCURVE",
"303 -50 OFFCURVE",
"308 -22 CURVE SMOOTH",
"322 71 LINE",
"192 71 LINE",
"176 -34 LINE SMOOTH",
"161 -127 OFFCURVE",
"210 -180 OFFCURVE",
"312 -180 CURVE SMOOTH"
);
}
);
width = 600;
},
{
anchors = (
{
name = bottom;
position = "{256, 0}";
},
{
name = top;
position = "{372, 730}";
}
);
components = (
{
name = O;
}
);
layerId = "CCC0BD40-BA8C-414E-B576-CF0B94E6C996";
paths = (
{
closed = 1;
nodes = (
"432 -180 LINE",
"445 -98 LINE",
"335 -98 LINE SMOOTH",
"299 -98 OFFCURVE",
"279 -73 OFFCURVE",
"285 -35 CURVE SMOOTH",
"299 48 LINE",
"209 48 LINE",
"195 -35 LINE SMOOTH",
"182 -123 OFFCURVE",
"231 -180 OFFCURVE",
"322 -180 CURVE SMOOTH"
);
}
);
width = 600;
},
{
anchors = (
{
name = bottom;
position = "{256, 0}";
},
{
name = top;
position = "{372, 730}";
}
);
components = (
{
name = O;
}
);
layerId = "EDF5EB54-295C-4C90-9A2F-67CD82979CFF";
paths = (
{
closed = 1;
nodes = (
"417 -180 LINE",
"425 -135 LINE",
"335 -135 LINE SMOOTH",
"283 -135 OFFCURVE",
"259 -107 OFFCURVE",
"267 -55 CURVE SMOOTH",
"280 25 LINE",
"230 25 LINE",
"217 -55 LINE SMOOTH",
"204 -136 OFFCURVE",
"243 -180 OFFCURVE",
"327 -180 CURVE SMOOTH"
);
}
);
width = 600;
}
);
},
{
export = 0;
glyphname = A.half;
layers = (
{
layerId = "EDF5EB54-295C-4C90-9A2F-67CD82979CFF";
paths = (
{
closed = 1;
nodes = (
"285 0 LINE",
"330 0 LINE",
"230 335 LINE",
"188 335 LINE",
"-18 0 LINE",
"32 0 LINE",
"156 206 LINE SMOOTH",
"183 252 OFFCURVE",
"195 276 OFFCURVE",
"203 297 CURVE",
"205 276 OFFCURVE",
"212 251 OFFCURVE",
"225 206 CURVE SMOOTH"
);
},
{
closed = 1;
nodes = (
"63 75 LINE",
"271 75 LINE",
"277 114 LINE",
"69 114 LINE"
);
}
);
width = 400;
},
{
layerId = "9ADF6715-3D0F-493D-8567-18A6FBCFC567";
paths = (
{
closed = 1;
nodes = (
"265 0 LINE",
"351 0 LINE",
"256 335 LINE",
"162 335 LINE",
"-39 0 LINE",
"54 0 LINE",
"173 206 LINE SMOOTH",
"187 231 OFFCURVE",
"195 252 OFFCURVE",
"201 270 CURVE",
"201 252 OFFCURVE",
"202 232 OFFCURVE",
"209 206 CURVE SMOOTH"
);
},
{
closed = 1;
nodes = (
"71 60 LINE",
"259 60 LINE",
"270 134 LINE",
"82 134 LINE"
);
}
);
width = 400;
},
{
layerId = "CCC0BD40-BA8C-414E-B576-CF0B94E6C996";
paths = (
{
closed = 1;
nodes = (
"274 0 LINE",
"341 0 LINE",
"246 335 LINE",
"172 335 LINE",
"-29 0 LINE",
"43 0 LINE",
"162 206 LINE SMOOTH",
"176 231 OFFCURVE",
"195 262 OFFCURVE",
"201 280 CURVE",
"201 262 OFFCURVE",
"211 231 OFFCURVE",
"218 206 CURVE SMOOTH"
);
},
{
closed = 1;
nodes = (
"71 65 LINE",
"259 65 LINE",
"269 124 LINE",
"81 124 LINE"
);
}
);
width = 400;
}
);
},
{
export = 0;
glyphname = B.half;
layers = (
{
layerId = "9ADF6715-3D0F-493D-8567-18A6FBCFC567";
paths = (
{
closed = 1;
nodes = (
"210 0 LINE SMOOTH",
"279 0 OFFCURVE",
"342 38 OFFCURVE",
"351 93 CURVE SMOOTH",
"359 146 OFFCURVE",
"318 181 OFFCURVE",
"245 179 CURVE",
"244 168 LINE",
"305 166 OFFCURVE",
"351 200 OFFCURVE",
"359 251 CURVE SMOOTH",
"367 301 OFFCURVE",
"316 335 OFFCURVE",
"248 335 CURVE SMOOTH",
"44 335 LINE",
"-9 0 LINE"
);
},
{
closed = 1;
nodes = (
"99 137 LINE",
"219 137 LINE SMOOTH",
"250 137 OFFCURVE",
"269 125 OFFCURVE",
"265 100 CURVE SMOOTH",
"261 75 OFFCURVE",
"238 66 OFFCURVE",
"207 66 CURVE SMOOTH",
"87 66 LINE"
);
},
{
closed = 1;
nodes = (
"120 269 LINE",
"230 269 LINE SMOOTH",
"257 269 OFFCURVE",
"273 260 OFFCURVE",
"269 235 CURVE SMOOTH",
"265 210 OFFCURVE",
"245 199 OFFCURVE",
"218 199 CURVE SMOOTH",
"109 199 LINE"
);
}
);
width = 400;
},
{
layerId = "CCC0BD40-BA8C-414E-B576-CF0B94E6C996";
paths = (
{
closed = 1;
nodes = (
"210 0 LINE SMOOTH",
"279 0 OFFCURVE",
"332 38 OFFCURVE",
"341 93 CURVE SMOOTH",
"349 146 OFFCURVE",
"308 181 OFFCURVE",
"235 179 CURVE",
"234 168 LINE",
"295 166 OFFCURVE",
"341 200 OFFCURVE",
"349 251 CURVE SMOOTH",
"357 301 OFFCURVE",
"316 335 OFFCURVE",
"248 335 CURVE SMOOTH",
"54 335 LINE",
"1 0 LINE"
);
},
{
closed = 1;
nodes = (
"90 144 LINE",
"230 144 LINE SMOOTH",
"261 144 OFFCURVE",
"279 127 OFFCURVE",
"275 102 CURVE SMOOTH",
"271 77 OFFCURVE",
"247 58 OFFCURVE",
"216 58 CURVE SMOOTH",
"76 58 LINE"
);
},
{
closed = 1;
nodes = (
"111 277 LINE",
"241 277 LINE SMOOTH",
"268 277 OFFCURVE",
"283 258 OFFCURVE",
"279 233 CURVE SMOOTH",
"275 208 OFFCURVE",
"253 191 OFFCURVE",
"226 191 CURVE SMOOTH",
"97 191 LINE"
);
}
);
width = 400;
},
{
layerId = "EDF5EB54-295C-4C90-9A2F-67CD82979CFF";
paths = (
{
closed = 1;
nodes = (
"211 0 LINE SMOOTH",
"271 0 OFFCURVE",
"318 38 OFFCURVE",
"327 93 CURVE SMOOTH",
"335 146 OFFCURVE",
"299 181 OFFCURVE",
"238 179 CURVE",
"237 168 LINE",
"286 166 OFFCURVE",
"327 199 OFFCURVE",
"334 249 CURVE SMOOTH",
"343 300 OFFCURVE",
"308 335 OFFCURVE",
"249 335 CURVE SMOOTH",
"67 335 LINE",
"14 0 LINE"
);
},
{
closed = 1;
nodes = (
"83 148 LINE",
"231 148 LINE SMOOTH",
"266 148 OFFCURVE",
"287 126 OFFCURVE",
"282 94 CURVE SMOOTH",
"277 61 OFFCURVE",
"249 39 OFFCURVE",
"214 39 CURVE SMOOTH",
"66 39 LINE"
);
},
{
closed = 1;
nodes = (
"107 296 LINE",
"245 296 LINE SMOOTH",
"276 296 OFFCURVE",
"293 274 OFFCURVE",
"288 242 CURVE SMOOTH",
"283 209 OFFCURVE",
"258 187 OFFCURVE",
"227 187 CURVE SMOOTH",
"90 187 LINE"
);
}
);
width = 400;
}
);
},
{
export = 0;
glyphname = C.half;
layers = (
{
layerId = "9ADF6715-3D0F-493D-8567-18A6FBCFC567";
paths = (
{
closed = 1;
nodes = (
"254 -5 OFFCURVE",
"322 45 OFFCURVE",
"353 118 CURVE",
"265 118 LINE",
"249 91 OFFCURVE",
"214 73 OFFCURVE",
"175 73 CURVE SMOOTH",
"123 73 OFFCURVE",
"91 104 OFFCURVE",
"91 151 CURVE SMOOTH",
"91 210 OFFCURVE",
"139 262 OFFCURVE",
"204 262 CURVE SMOOTH",
"243 262 OFFCURVE",
"274 244 OFFCURVE",
"280 217 CURVE",
"368 217 LINE",
"361 290 OFFCURVE",
"309 340 OFFCURVE",
"217 340 CURVE SMOOTH",
"96 340 OFFCURVE",
"2 252 OFFCURVE",
"2 137 CURVE SMOOTH",
"2 51 OFFCURVE",
"63 -5 OFFCURVE",
"162 -5 CURVE SMOOTH"
);
}
);
width = 400;
},
{
layerId = "EDF5EB54-295C-4C90-9A2F-67CD82979CFF";
paths = (
{
closed = 1;
nodes = (
"246 -5 OFFCURVE",
"311 36 OFFCURVE",
"335 102 CURVE",
"289 102 LINE",
"271 62 OFFCURVE",
"228 33 OFFCURVE",
"173 33 CURVE SMOOTH",
"112 33 OFFCURVE",
"72 76 OFFCURVE",
"72 141 CURVE SMOOTH",
"72 225 OFFCURVE",
"134 302 OFFCURVE",
"216 302 CURVE SMOOTH",
"271 302 OFFCURVE",
"304 273 OFFCURVE",
"310 233 CURVE",
"356 233 LINE",
"352 299 OFFCURVE",
"297 340 OFFCURVE",
"222 340 CURVE SMOOTH",
"92 340 OFFCURVE",
"24 235 OFFCURVE",
"24 134 CURVE SMOOTH",
"24 50 OFFCURVE",
"80 -5 OFFCURVE",
"167 -5 CURVE SMOOTH"
);
}
);
width = 400;
},
{
layerId = "CCC0BD40-BA8C-414E-B576-CF0B94E6C996";
paths = (
{
closed = 1;
nodes = (
"238 -5 OFFCURVE",
"311 41 OFFCURVE",
"343 107 CURVE",
"275 107 LINE",
"255 75 OFFCURVE",
"212 53 OFFCURVE",
"171 53 CURVE SMOOTH",
"117 53 OFFCURVE",
"80 91 OFFCURVE",
"80 146 CURVE SMOOTH",
"80 222 OFFCURVE",
"141 282 OFFCURVE",
"208 282 CURVE SMOOTH",
"249 282 OFFCURVE",
"284 260 OFFCURVE",
"294 228 CURVE",
"362 228 LINE",
"352 294 OFFCURVE",
"293 340 OFFCURVE",
"217 340 CURVE SMOOTH",
"106 340 OFFCURVE",
"12 248 OFFCURVE",
"12 139 CURVE SMOOTH",
"12 55 OFFCURVE",
"72 -5 OFFCURVE",
"162 -5 CURVE SMOOTH"
);
}
);
width = 400;
}
);
},
{
export = 0;
glyphname = D.half;
layers = (
{
layerId = "9ADF6715-3D0F-493D-8567-18A6FBCFC567";
paths = (
{
closed = 1;
nodes = (
"151 0 LINE SMOOTH",
"261 0 OFFCURVE",
"347 68 OFFCURVE",
"362 167 CURVE SMOOTH",
"378 267 OFFCURVE",
"314 335 OFFCURVE",
"204 335 CURVE SMOOTH",
"44 335 LINE",
"-9 0 LINE"
);
},
{
closed = 1;
nodes = (
"118 257 LINE",
"192 257 LINE SMOOTH",
"250 257 OFFCURVE",
"283 220 OFFCURVE",
"274 167 CURVE SMOOTH",
"266 114 OFFCURVE",
"221 77 OFFCURVE",
"163 77 CURVE SMOOTH",
"89 77 LINE"
);
}
);
width = 400;
},
{
layerId = "CCC0BD40-BA8C-414E-B576-CF0B94E6C996";
paths = (
{
closed = 1;
nodes = (
"151 0 LINE SMOOTH",
"251 0 OFFCURVE",
"337 69 OFFCURVE",
"352 167 CURVE SMOOTH",
"368 266 OFFCURVE",
"304 335 OFFCURVE",
"204 335 CURVE SMOOTH",
"54 335 LINE",
"1 0 LINE"
);
},
{
closed = 1;
nodes = (
"111 277 LINE",
"195 277 LINE SMOOTH",
"255 277 OFFCURVE",
"295 232 OFFCURVE",
"284 167 CURVE SMOOTH",
"274 102 OFFCURVE",
"220 57 OFFCURVE",
"160 57 CURVE SMOOTH",
"76 57 LINE"
);
}
);
width = 400;
},
{
layerId = "EDF5EB54-295C-4C90-9A2F-67CD82979CFF";
paths = (
{
closed = 1;
nodes = (
"145 0 LINE SMOOTH",
"272 0 OFFCURVE",
"340 99 OFFCURVE",
"340 199 CURVE SMOOTH",
"340 281 OFFCURVE",
"285 335 OFFCURVE",
"198 335 CURVE SMOOTH",
"73 335 LINE",
"20 0 LINE"
);
},
{
closed = 1;
nodes = (
"113 297 LINE",
"192 297 LINE SMOOTH",
"253 297 OFFCURVE",
"292 256 OFFCURVE",
"292 194 CURVE SMOOTH",
"292 102 OFFCURVE",
"228 38 OFFCURVE",
"151 38 CURVE SMOOTH",
"72 38 LINE"
);
}
);
width = 400;
}
);
},
{
export = 0;
glyphname = E.half;
layers = (
{
layerId = "9ADF6715-3D0F-493D-8567-18A6FBCFC567";
paths = (
{
closed = 1;
nodes = (
"101 70 LINE",
"112 138 LINE",
"304 138 LINE",
"313 197 LINE",
"121 197 LINE",
"132 265 LINE",
"354 265 LINE",
"365 335 LINE",
"57 335 LINE",
"4 0 LINE",
"312 0 LINE",
"323 70 LINE"
);
}
);
width = 400;
},
{
layerId = "CCC0BD40-BA8C-414E-B576-CF0B94E6C996";
paths = (
{
closed = 1;
nodes = (
"83 58 LINE",
"97 144 LINE",
"299 144 LINE",
"306 191 LINE",
"104 191 LINE",
"118 277 LINE",
"350 277 LINE",
"359 335 LINE",
"61 335 LINE",
"8 0 LINE",
"306 0 LINE",
"315 58 LINE"
);
}
);
width = 400;
},
{
layerId = "EDF5EB54-295C-4C90-9A2F-67CD82979CFF";
paths = (
{
closed = 1;
nodes = (
"77 38 LINE",
"95 149 LINE",
"292 149 LINE",
"297 186 LINE",
"100 186 LINE",
"118 297 LINE",
"345 297 LINE",
"351 335 LINE",
"79 335 LINE",
"26 0 LINE",
"298 0 LINE",
"304 38 LINE"
);
}
);
width = 400;
}
);
},
{
export = 0;
glyphname = F.half;
layers = (
{
layerId = "9ADF6715-3D0F-493D-8567-18A6FBCFC567";
paths = (
{
closed = 1;
nodes = (
"90 0 LINE",
"108 112 LINE",
"300 112 LINE",
"312 192 LINE",
"120 192 LINE",
"130 255 LINE",
"352 255 LINE",
"365 335 LINE",
"57 335 LINE",
"4 0 LINE"
);
}
);
width = 400;
},
{
layerId = "CCC0BD40-BA8C-414E-B576-CF0B94E6C996";
paths = (
{
closed = 1;
nodes = (
"84 0 LINE",
"105 133 LINE",
"307 133 LINE",
"316 191 LINE",
"114 191 LINE",
"128 277 LINE",
"360 277 LINE",
"369 335 LINE",
"71 335 LINE",
"18 0 LINE"
);
}
);
width = 400;
},
{
layerId = "EDF5EB54-295C-4C90-9A2F-67CD82979CFF";
paths = (
{
closed = 1;
nodes = (
"81 0 LINE",
"104 143 LINE",
"301 143 LINE",
"307 181 LINE",
"110 181 LINE",
"128 297 LINE",
"355 297 LINE",
"361 335 LINE",
"89 335 LINE",
"36 0 LINE"
);
}
);
width = 400;
}
);
},
{
export = 0;
glyphname = G.half;
layers = (
{
layerId = "9ADF6715-3D0F-493D-8567-18A6FBCFC567";
paths = (
{
closed = 1;
nodes = (
"263 -5 OFFCURVE",
"351 69 OFFCURVE",
"366 167 CURVE SMOOTH",
"369 181 LINE",
"192 181 LINE",
"181 114 LINE",
"263 114 LINE",
"244 87 OFFCURVE",
"209 73 OFFCURVE",
"175 73 CURVE SMOOTH",
"120 73 OFFCURVE",
"84 113 OFFCURVE",
"92 167 CURVE SMOOTH",
"101 221 OFFCURVE",
"149 262 OFFCURVE",
"204 262 CURVE SMOOTH",
"239 262 OFFCURVE",
"272 251 OFFCURVE",
"284 234 CURVE",
"372 234 LINE",
"361 295 OFFCURVE",
"294 340 OFFCURVE",
"217 340 CURVE SMOOTH",
"111 340 OFFCURVE",
"20 266 OFFCURVE",
"4 167 CURVE SMOOTH",
"-11 69 OFFCURVE",
"56 -5 OFFCURVE",
"162 -5 CURVE SMOOTH"
);
}
);
width = 400;
},
{
layerId = "CCC0BD40-BA8C-414E-B576-CF0B94E6C996";
paths = (
{
closed = 1;
nodes = (
"257 -5 OFFCURVE",
"340 65 OFFCURVE",
"356 167 CURVE SMOOTH",
"359 181 LINE",
"192 181 LINE",
"183 124 LINE",
"282 124 LINE",
"256 72 OFFCURVE",
"214 53 OFFCURVE",
"171 53 CURVE SMOOTH",
"117 53 OFFCURVE",
"80 91 OFFCURVE",
"80 146 CURVE SMOOTH",
"80 222 OFFCURVE",
"141 282 OFFCURVE",
"208 282 CURVE SMOOTH",
"249 282 OFFCURVE",
"283 260 OFFCURVE",
"294 234 CURVE",
"362 234 LINE",
"351 294 OFFCURVE",
"293 340 OFFCURVE",
"217 340 CURVE SMOOTH",
"106 340 OFFCURVE",
"12 248 OFFCURVE",
"12 139 CURVE SMOOTH",
"12 55 OFFCURVE",
"72 -5 OFFCURVE",
"162 -5 CURVE SMOOTH"
);
}
);
width = 400;
},
{
layerId = "EDF5EB54-295C-4C90-9A2F-67CD82979CFF";
paths = (
{
closed = 1;
nodes = (
"261 -5 OFFCURVE",
"336 61 OFFCURVE",
"351 167 CURVE SMOOTH",
"353 181 LINE",
"191 181 LINE",
"185 143 LINE",
"299 143 LINE",
"282 76 OFFCURVE",
"229 33 OFFCURVE",
"167 33 CURVE SMOOTH",
"105 33 OFFCURVE",
"66 76 OFFCURVE",
"66 140 CURVE SMOOTH",
"66 222 OFFCURVE",
"125 302 OFFCURVE",
"210 302 CURVE SMOOTH",
"265 302 OFFCURVE",
"298 273 OFFCURVE",
"305 241 CURVE",
"351 241 LINE",
"346 299 OFFCURVE",
"291 340 OFFCURVE",
"216 340 CURVE SMOOTH",
"86 340 OFFCURVE",
"18 235 OFFCURVE",
"18 134 CURVE SMOOTH",
"18 50 OFFCURVE",
"74 -5 OFFCURVE",
"161 -5 CURVE SMOOTH"
);
}
);
width = 400;
}
);
},
{
export = 0;
glyphname = H.half;
layers = (
{
layerId = "9ADF6715-3D0F-493D-8567-18A6FBCFC567";
paths = (
{
closed = 1;
nodes = (
"77 0 LINE",
"98 133 LINE",
"256 133 LINE",
"235 0 LINE",
"321 0 LINE",
"374 335 LINE",
"288 335 LINE",
"269 213 LINE",
"111 213 LINE",
"130 335 LINE",
"44 335 LINE",
"-9 0 LINE"
);
}
);
width = 400;
},
{
layerId = "CCC0BD40-BA8C-414E-B576-CF0B94E6C996";
paths = (
{
closed = 1;
nodes = (
"67 0 LINE",
"90 143 LINE",
"268 143 LINE",
"245 0 LINE",
"311 0 LINE",
"364 335 LINE",
"298 335 LINE",
"277 203 LINE",
"99 203 LINE",
"120 335 LINE",
"54 335 LINE",
"1 0 LINE"
);
}
);
width = 400;
},
{
layerId = "EDF5EB54-295C-4C90-9A2F-67CD82979CFF";
paths = (
{
closed = 1;
nodes = (
"57 0 LINE",
"81 154 LINE",
"279 154 LINE",
"255 0 LINE",
"301 0 LINE",
"354 335 LINE",
"308 335 LINE",
"285 192 LINE",
"87 192 LINE",
"110 335 LINE",
"64 335 LINE",
"11 0 LINE"
);
}
);
width = 400;
}
);
},
{
export = 0;
glyphname = I.half;
layers = (
{
layerId = "9ADF6715-3D0F-493D-8567-18A6FBCFC567";
paths = (
{
closed = 1;
nodes = (
"314 0 LINE",
"326 78 LINE",
"211 78 LINE",
"240 257 LINE",
"355 257 LINE",
"367 335 LINE",
"51 335 LINE",
"39 257 LINE",
"154 257 LINE",
"125 78 LINE",
"10 78 LINE",
"-2 0 LINE"
);
}
);
width = 400;
},
{
layerId = "CCC0BD40-BA8C-414E-B576-CF0B94E6C996";
paths = (
{
closed = 1;
nodes = (
"314 0 LINE",
"324 60 LINE",
"199 60 LINE",
"233 275 LINE",
"358 275 LINE",
"367 335 LINE",
"51 335 LINE",
"42 275 LINE",
"167 275 LINE",
"133 60 LINE",
"8 60 LINE",
"-2 0 LINE"
);
}
);
width = 400;
},
{
layerId = "EDF5EB54-295C-4C90-9A2F-67CD82979CFF";
paths = (
{
closed = 1;
nodes = (
"304 0 LINE",
"310 38 LINE",
"185 38 LINE",
"226 297 LINE",
"351 297 LINE",
"357 335 LINE",
"61 335 LINE",
"55 297 LINE",
"180 297 LINE",
"139 38 LINE",
"14 38 LINE",
"8 0 LINE"
);
}
);
width = 400;
}
);
},
{
export = 0;
glyphname = K.half;
layers = (
{
layerId = "9ADF6715-3D0F-493D-8567-18A6FBCFC567";
paths = (
{
closed = 1;
nodes = (
"77 0 LINE",
"98 133 LINE",
"166 133 LINE",
"242 0 LINE",
"336 0 LINE",
"238 172 LINE",
"379 335 LINE",
"279 335 LINE",
"171 211 LINE",
"110 211 LINE",
"130 335 LINE",
"44 335 LINE",
"-9 0 LINE"
);
}
);
width = 400;
},
{
layerId = "CCC0BD40-BA8C-414E-B576-CF0B94E6C996";
paths = (
{
closed = 1;
nodes = (
"67 0 LINE",
"90 143 LINE",
"172 143 LINE",
"251 0 LINE",
"326 0 LINE",
"232 170 LINE",
"369 335 LINE",
"292 335 LINE",
"175 201 LINE",
"99 201 LINE",
"120 335 LINE",
"54 335 LINE",
"1 0 LINE"
);
}
);
width = 400;
},
{
layerId = "EDF5EB54-295C-4C90-9A2F-67CD82979CFF";
paths = (
{
closed = 1;
nodes = (
"57 0 LINE",
"81 153 LINE",
"171 153 LINE",
"262 0 LINE",
"316 0 LINE",
"214 172 LINE",
"359 335 LINE",
"305 335 LINE",
"174 191 LINE",
"87 191 LINE",
"110 335 LINE",
"64 335 LINE",
"11 0 LINE"
);
}
);
width = 400;
}
);
},
{
export = 0;
glyphname = L.half;
layers = (
{
anchors = (
{
name = topright;
position = "{652, 730}";
}
);
layerId = "9ADF6715-3D0F-493D-8567-18A6FBCFC567";
paths = (
{
closed = 1;
nodes = (
"326 0 LINE",
"339 80 LINE",
"127 80 LINE",
"167 335 LINE",
"81 335 LINE",
"28 0 LINE"
);
}
);
width = 400;
},
{
anchors = (
{
name = topright;
position = "{652, 730}";
}
);
layerId = "CCC0BD40-BA8C-414E-B576-CF0B94E6C996";
paths = (
{
closed = 1;
nodes = (
"326 0 LINE",
"336 60 LINE",
"114 60 LINE",
"157 335 LINE",
"91 335 LINE",
"38 0 LINE"
);
}
);
width = 400;
},
{
anchors = (
{
name = topright;
position = "{652, 730}";
}
);
layerId = "EDF5EB54-295C-4C90-9A2F-67CD82979CFF";
paths = (
{
closed = 1;
nodes = (
"316 0 LINE",
"322 40 LINE",
"100 40 LINE",
"147 335 LINE",
"101 335 LINE",
"48 0 LINE"
);
}
);
width = 400;
}
);
},
{
export = 0;
glyphname = M.half;
layers = (
{
layerId = "CCC0BD40-BA8C-414E-B576-CF0B94E6C996";
paths = (
{
closed = 1;
nodes = (
"51 0 LINE",
"66 95 LINE SMOOTH",
"82 198 OFFCURVE",
"84 244 OFFCURVE",
"82 295 CURVE",
"138 96 LINE",
"205 96 LINE",
"323 298 LINE",
"301 247 OFFCURVE",
"291 185 OFFCURVE",
"277 95 CURVE SMOOTH",
"262 0 LINE",
"326 0 LINE",
"379 335 LINE",
"286 335 LINE",
"214 213 LINE SMOOTH",
"195 180 OFFCURVE",
"185 168 OFFCURVE",
"178 145 CURVE",
"176 168 OFFCURVE",
"172 181 OFFCURVE",
"163 212 CURVE SMOOTH",
"127 335 LINE",
"39 335 LINE",
"-14 0 LINE"
);
}
);
width = 400;
},
{
layerId = "EDF5EB54-295C-4C90-9A2F-67CD82979CFF";
paths = (
{
closed = 1;
nodes = (
"41 0 LINE",
"56 95 LINE SMOOTH",
"72 198 OFFCURVE",
"81 252 OFFCURVE",
"78 303 CURVE",
"151 96 LINE",
"190 96 LINE",
"330 306 LINE",
"312 255 OFFCURVE",
"301 185 OFFCURVE",
"287 95 CURVE SMOOTH",
"272 0 LINE",
"316 0 LINE",
"369 335 LINE",
"307 335 LINE",
"205 183 LINE SMOOTH",
"184 153 OFFCURVE",
"182 144 OFFCURVE",
"176 131 CURVE",
"174 144 OFFCURVE",
"171 153 OFFCURVE",
"161 182 CURVE SMOOTH",
"108 335 LINE",
"49 335 LINE",
"-4 0 LINE"
);
}
);
width = 400;
},
{
layerId = "9ADF6715-3D0F-493D-8567-18A6FBCFC567";
paths = (
{
closed = 1;
nodes = (
"56 0 LINE",
"71 95 LINE SMOOTH",
"87 198 OFFCURVE",
"93 235 OFFCURVE",
"91 286 CURVE",
"129 96 LINE",
"215 96 LINE",
"311 289 LINE",
"294 238 OFFCURVE",
"285 185 OFFCURVE",
"271 95 CURVE SMOOTH",
"256 0 LINE",
"336 0 LINE",
"389 335 LINE",
"263 335 LINE",
"203 213 LINE SMOOTH",
"187 180 OFFCURVE",
"184 169 OFFCURVE",
"180 153 CURVE",
"180 169 OFFCURVE",
"180 180 OFFCURVE",
"174 212 CURVE SMOOTH",
"150 335 LINE",
"29 335 LINE",
"-24 0 LINE"
);
}
);
width = 400;
}
);
},
{
export = 0;
glyphname = N.half;
layers = (
{
layerId = "9ADF6715-3D0F-493D-8567-18A6FBCFC567";
paths = (
{
closed = 1;
nodes = (
"76 0 LINE",
"94 115 LINE SMOOTH",
"105 188 OFFCURVE",
"103 207 OFFCURVE",
"101 258 CURVE",
"213 0 LINE",
"321 0 LINE",
"374 335 LINE",
"289 335 LINE",
"272 230 LINE SMOOTH",
"260 157 OFFCURVE",
"262 127 OFFCURVE",
"264 77 CURVE",
"153 335 LINE",
"44 335 LINE",
"-9 0 LINE"
);
}
);
width = 400;
},
{
layerId = "CCC0BD40-BA8C-414E-B576-CF0B94E6C996";
paths = (
{
closed = 1;
nodes = (
"66 0 LINE",
"83 105 LINE SMOOTH",
"98 195 OFFCURVE",
"98 212 OFFCURVE",
"96 268 CURVE",
"233 0 LINE",
"311 0 LINE",
"364 335 LINE",
"299 335 LINE",
"282 230 LINE SMOOTH",
"268 141 OFFCURVE",
"267 126 OFFCURVE",
"269 67 CURVE",
"132 335 LINE",
"54 335 LINE",
"1 0 LINE"
);
}
);
width = 400;
},
{
layerId = "EDF5EB54-295C-4C90-9A2F-67CD82979CFF";
paths = (
{
closed = 1;
nodes = (
"56 0 LINE",
"74 115 LINE SMOOTH",
"90 218 OFFCURVE",
"95 247 OFFCURVE",
"92 298 CURVE",
"248 0 LINE",
"301 0 LINE",
"354 335 LINE",
"309 335 LINE",
"292 230 LINE SMOOTH",
"275 127 OFFCURVE",
"270 87 OFFCURVE",
"273 37 CURVE",
"117 335 LINE",
"64 335 LINE",
"11 0 LINE"
);
}
);
width = 400;
}
);
},
{
export = 0;
glyphname = O.half;
layers = (
{
layerId = "EDF5EB54-295C-4C90-9A2F-67CD82979CFF";
paths = (
{
closed = 1;
nodes = (
"269 -5 OFFCURVE",
"353 89 OFFCURVE",
"353 198 CURVE SMOOTH",
"353 281 OFFCURVE",
"296 340 OFFCURVE",
"211 340 CURVE SMOOTH",
"102 340 OFFCURVE",
"14 251 OFFCURVE",
"14 138 CURVE SMOOTH",
"14 55 OFFCURVE",
"71 -5 OFFCURVE",
"156 -5 CURVE SMOOTH"
);
},
{
closed = 1;
nodes = (
"101 33 OFFCURVE",
"61 78 OFFCURVE",
"61 141 CURVE SMOOTH",
"61 224 OFFCURVE",
"125 302 OFFCURVE",
"205 302 CURVE SMOOTH",
"266 302 OFFCURVE",
"305 257 OFFCURVE",
"305 194 CURVE SMOOTH",
"305 104 OFFCURVE",
"239 33 OFFCURVE",
"162 33 CURVE SMOOTH"
);
}
);
width = 400;
},
{
layerId = "CCC0BD40-BA8C-414E-B576-CF0B94E6C996";
paths = (
{
closed = 1;
nodes = (
"267 -5 OFFCURVE",
"359 87 OFFCURVE",
"359 197 CURVE SMOOTH",
"359 281 OFFCURVE",
"300 340 OFFCURVE",
"210 340 CURVE SMOOTH",
"99 340 OFFCURVE",
"5 248 OFFCURVE",
"5 139 CURVE SMOOTH",
"5 55 OFFCURVE",
"65 -5 OFFCURVE",
"155 -5 CURVE SMOOTH"
);
},
{
closed = 1;
nodes = (
"110 53 OFFCURVE",
"73 92 OFFCURVE",
"73 147 CURVE SMOOTH",
"73 217 OFFCURVE",
"132 282 OFFCURVE",
"201 282 CURVE SMOOTH",
"254 282 OFFCURVE",
"291 243 OFFCURVE",
"291 189 CURVE SMOOTH",
"291 113 OFFCURVE",
"230 53 OFFCURVE",
"164 53 CURVE SMOOTH"
);
}
);
width = 400;
},
{
layerId = "9ADF6715-3D0F-493D-8567-18A6FBCFC567";
paths = (
{
closed = 1;
nodes = (
"270 -5 OFFCURVE",
"367 84 OFFCURVE",
"367 196 CURVE SMOOTH",
"367 280 OFFCURVE",
"304 340 OFFCURVE",
"210 340 CURVE SMOOTH",
"96 340 OFFCURVE",
"-4 251 OFFCURVE",
"-4 140 CURVE SMOOTH",
"-4 56 OFFCURVE",
"60 -5 OFFCURVE",
"155 -5 CURVE SMOOTH"
);
},
{
closed = 1;
nodes = (
"118 73 OFFCURVE",
"85 106 OFFCURVE",
"85 152 CURVE SMOOTH",
"85 213 OFFCURVE",
"137 262 OFFCURVE",
"197 262 CURVE SMOOTH",
"245 262 OFFCURVE",
"278 229 OFFCURVE",
"278 184 CURVE SMOOTH",
"278 122 OFFCURVE",
"228 73 OFFCURVE",
"168 73 CURVE SMOOTH"
);
}
);
width = 400;
}
);
},
{
export = 0;
glyphname = P.half;
layers = (
{
layerId = "9ADF6715-3D0F-493D-8567-18A6FBCFC567";
paths = (
{
closed = 1;
nodes = (
"87 0 LINE",
"104 107 LINE",
"209 107 LINE SMOOTH",
"294 107 OFFCURVE",
"360 153 OFFCURVE",
"371 220 CURVE SMOOTH",
"382 288 OFFCURVE",
"330 335 OFFCURVE",
"245 335 CURVE SMOOTH",
"54 335 LINE",
"1 0 LINE"
);
},
{
closed = 1;
nodes = (
"129 267 LINE",
"236 267 LINE SMOOTH",
"269 267 OFFCURVE",
"288 248 OFFCURVE",
"284 220 CURVE SMOOTH",
"280 193 OFFCURVE",
"254 175 OFFCURVE",
"221 175 CURVE SMOOTH",
"115 175 LINE"
);
}
);
width = 400;
},
{
layerId = "CCC0BD40-BA8C-414E-B576-CF0B94E6C996";
paths = (
{
closed = 1;
nodes = (
"77 0 LINE",
"96 117 LINE",
"221 117 LINE SMOOTH",
"295 117 OFFCURVE",
"352 163 OFFCURVE",
"362 225 CURVE SMOOTH",
"372 288 OFFCURVE",
"329 335 OFFCURVE",
"255 335 CURVE SMOOTH",
"64 335 LINE",
"11 0 LINE"
);
},
{
closed = 1;
nodes = (
"121 277 LINE",
"248 277 LINE SMOOTH",
"281 277 OFFCURVE",
"299 254 OFFCURVE",
"295 225 CURVE SMOOTH",
"290 197 OFFCURVE",
"264 175 OFFCURVE",
"231 175 CURVE SMOOTH",
"105 175 LINE"
);
}
);
width = 400;
},
{
layerId = "EDF5EB54-295C-4C90-9A2F-67CD82979CFF";
paths = (
{
closed = 1;
nodes = (
"67 0 LINE",
"87 127 LINE",
"222 127 LINE SMOOTH",
"290 127 OFFCURVE",
"343 169 OFFCURVE",
"352 230 CURVE SMOOTH",
"362 292 OFFCURVE",
"323 335 OFFCURVE",
"255 335 CURVE SMOOTH",
"74 335 LINE",
"21 0 LINE"
);
},
{
closed = 1;
nodes = (
"114 297 LINE",
"251 297 LINE SMOOTH",
"290 297 OFFCURVE",
"312 270 OFFCURVE",
"305 230 CURVE SMOOTH",
"299 191 OFFCURVE",
"268 165 OFFCURVE",
"229 165 CURVE SMOOTH",
"93 165 LINE"
);
}
);
width = 400;
}
);
},
{
export = 0;
glyphname = Q.half;
layers = (
{
layerId = "9ADF6715-3D0F-493D-8567-18A6FBCFC567";
paths = (
{
closed = 1;
nodes = (
"184 -5 OFFCURVE",
"224 5 OFFCURVE",
"249 18 CURVE",
"226 89 LINE",
"210 80 OFFCURVE",
"185 73 OFFCURVE",
"168 73 CURVE SMOOTH",
"118 73 OFFCURVE",
"85 106 OFFCURVE",
"85 152 CURVE SMOOTH",
"85 213 OFFCURVE",
"137 261 OFFCURVE",
"197 261 CURVE SMOOTH",
"246 261 OFFCURVE",
"279 229 OFFCURVE",
"279 184 CURVE SMOOTH",
"279 171 OFFCURVE",
"276 150 OFFCURVE",
"266 134 CURVE",
"314 63 LINE",
"343 95 OFFCURVE",
"368 147 OFFCURVE",
"368 196 CURVE SMOOTH",
"368 280 OFFCURVE",
"305 340 OFFCURVE",
"210 340 CURVE SMOOTH",
"96 340 OFFCURVE",
"-4 251 OFFCURVE",
"-4 140 CURVE SMOOTH",
"-4 56 OFFCURVE",
"60 -5 OFFCURVE",
"155 -5 CURVE SMOOTH"
);
},
{
closed = 1;
nodes = (
"339 -58 LINE",
"226 125 LINE",
"138 125 LINE",
"251 -58 LINE"
);
}
);
width = 400;
},
{
layerId = "CCC0BD40-BA8C-414E-B576-CF0B94E6C996";
paths = (
{
closed = 1;
nodes = (
"188 -5 OFFCURVE",
"220 3 OFFCURVE",
"249 18 CURVE",
"223 69 LINE",
"205 59 OFFCURVE",
"185 53 OFFCURVE",
"164 53 CURVE SMOOTH",
"110 53 OFFCURVE",
"73 92 OFFCURVE",
"73 147 CURVE SMOOTH",
"73 217 OFFCURVE",
"132 281 OFFCURVE",
"201 281 CURVE SMOOTH",
"254 281 OFFCURVE",
"291 243 OFFCURVE",
"291 189 CURVE SMOOTH",
"291 165 OFFCURVE",
"283 138 OFFCURVE",
"272 117 CURVE",
"308 63 LINE",
"340 100 OFFCURVE",
"359 149 OFFCURVE",
"359 197 CURVE SMOOTH",
"359 281 OFFCURVE",
"300 340 OFFCURVE",
"210 340 CURVE SMOOTH",
"97 340 OFFCURVE",
"5 249 OFFCURVE",
"5 139 CURVE SMOOTH",
"5 55 OFFCURVE",
"65 -5 OFFCURVE",
"155 -5 CURVE SMOOTH"
);
},
{
closed = 1;
nodes = (
"329 -58 LINE",
"216 125 LINE",
"147 125 LINE",
"260 -58 LINE"
);
}
);
width = 400;
},
{
layerId = "EDF5EB54-295C-4C90-9A2F-67CD82979CFF";
paths = (
{
closed = 1;
nodes = (
"187 -5 OFFCURVE",
"217 2 OFFCURVE",
"244 16 CURVE",
"222 48 LINE",
"203 38 OFFCURVE",
"182 33 OFFCURVE",
"161 33 CURVE SMOOTH",
"100 33 OFFCURVE",
"60 76 OFFCURVE",
"60 141 CURVE SMOOTH",
"60 225 OFFCURVE",
"123 302 OFFCURVE",
"204 302 CURVE SMOOTH",
"265 302 OFFCURVE",
"304 259 OFFCURVE",
"304 195 CURVE SMOOTH",
"304 168 OFFCURVE",
"295 120 OFFCURVE",
"275 97 CURVE",
"302 62 LINE",
"333 98 OFFCURVE",
"352 153 OFFCURVE",
"352 202 CURVE SMOOTH",
"352 285 OFFCURVE",
"297 340 OFFCURVE",
"210 340 CURVE SMOOTH",
"97 340 OFFCURVE",
"13 248 OFFCURVE",
"13 134 CURVE SMOOTH",
"13 50 OFFCURVE",
"68 -5 OFFCURVE",
"155 -5 CURVE SMOOTH"
);
},
{
closed = 1;
nodes = (
"326 -58 LINE",
"204 125 LINE",
"156 125 LINE",
"278 -58 LINE"
);
}
);
width = 400;
}
);
},
{
export = 0;
glyphname = R.half;
layers = (
{
layerId = "9ADF6715-3D0F-493D-8567-18A6FBCFC567";
paths = (
{
closed = 1;
nodes = (
"87 0 LINE",
"104 107 LINE",
"209 107 LINE SMOOTH",
"301 107 OFFCURVE",
"372 161 OFFCURVE",
"372 238 CURVE SMOOTH",
"372 296 OFFCURVE",
"322 335 OFFCURVE",
"245 335 CURVE SMOOTH",
"54 335 LINE",
"1 0 LINE"
);
},
{
closed = 1;
nodes = (
"341 0 LINE",
"246 141 LINE",
"154 141 LINE",
"247 0 LINE"
);
},
{
closed = 1;
nodes = (
"129 267 LINE",
"236 267 LINE SMOOTH",
"266 267 OFFCURVE",
"285 251 OFFCURVE",
"285 227 CURVE SMOOTH",
"285 196 OFFCURVE",
"257 175 OFFCURVE",
"221 175 CURVE SMOOTH",
"115 175 LINE"
);
}
);
width = 400;
},
{
layerId = "CCC0BD40-BA8C-414E-B576-CF0B94E6C996";
paths = (
{
closed = 1;
nodes = (
"67 0 LINE",
"87 129 LINE",
"219 129 LINE SMOOTH",
"300 129 OFFCURVE",
"360 172 OFFCURVE",
"360 245 CURVE SMOOTH",
"360 298 OFFCURVE",
"319 335 OFFCURVE",
"252 335 CURVE SMOOTH",
"54 335 LINE",
"1 0 LINE"
);
},
{
closed = 1;
nodes = (
"331 0 LINE",
"238 141 LINE",
"164 141 LINE",
"255 0 LINE"
);
},
{
closed = 1;
nodes = (
"111 277 LINE",
"245 277 LINE SMOOTH",
"274 277 OFFCURVE",
"293 260 OFFCURVE",
"293 236 CURVE SMOOTH",
"293 203 OFFCURVE",
"264 179 OFFCURVE",
"228 179 CURVE SMOOTH",
"95 179 LINE"
);
}
);
width = 400;
},
{
layerId = "EDF5EB54-295C-4C90-9A2F-67CD82979CFF";
paths = (
{
closed = 1;
nodes = (
"57 0 LINE",
"77 127 LINE",
"212 127 LINE SMOOTH",
"289 127 OFFCURVE",
"343 178 OFFCURVE",
"343 246 CURVE SMOOTH",
"343 299 OFFCURVE",
"305 335 OFFCURVE",
"245 335 CURVE SMOOTH",
"64 335 LINE",
"11 0 LINE"
);
},
{
closed = 1;
nodes = (
"318 0 LINE",
"226 141 LINE",
"173 141 LINE",
"264 0 LINE"
);
},
{
closed = 1;
nodes = (
"104 297 LINE",
"241 297 LINE SMOOTH",
"275 297 OFFCURVE",
"296 276 OFFCURVE",
"296 244 CURVE SMOOTH",
"296 197 OFFCURVE",
"263 165 OFFCURVE",
"219 165 CURVE SMOOTH",
"83 165 LINE"
);
}
);
width = 400;
}
);
},
{
export = 0;
glyphname = S.half;
layers = (
{
layerId = "9ADF6715-3D0F-493D-8567-18A6FBCFC567";
paths = (
{
closed = 1;
nodes = (
"190 -3 LINE SMOOTH",
"274 -3 OFFCURVE",
"342 42 OFFCURVE",
"342 118 CURVE SMOOTH",
"342 166 OFFCURVE",
"304 201 OFFCURVE",
"238 208 CURVE SMOOTH",
"149 218 LINE SMOOTH",
"128 220 OFFCURVE",
"116 228 OFFCURVE",
"116 239 CURVE SMOOTH",
"116 255 OFFCURVE",
"134 268 OFFCURVE",
"158 268 CURVE SMOOTH",
"228 268 LINE SMOOTH",
"255 268 OFFCURVE",
"273 257 OFFCURVE",
"273 244 CURVE",
"359 244 LINE",
"359 302 OFFCURVE",
"313 338 OFFCURVE",
"240 338 CURVE SMOOTH",
"170 338 LINE SMOOTH",
"93 338 OFFCURVE",
"29 296 OFFCURVE",
"29 227 CURVE SMOOTH",
"29 180 OFFCURVE",
"66 146 OFFCURVE",
"130 139 CURVE SMOOTH",
"216 129 LINE SMOOTH",
"240 126 OFFCURVE",
"255 115 OFFCURVE",
"255 101 CURVE SMOOTH",
"255 83 OFFCURVE",
"233 67 OFFCURVE",
"201 67 CURVE SMOOTH",
"133 67 LINE SMOOTH",
"102 67 OFFCURVE",
"84 83 OFFCURVE",
"85 103 CURVE",
"-1 103 LINE",
"-4 37 OFFCURVE",
"44 -3 OFFCURVE",
"122 -3 CURVE SMOOTH"
);
}
);
width = 400;
},
{
layerId = "CCC0BD40-BA8C-414E-B576-CF0B94E6C996";
paths = (
{
closed = 1;
nodes = (
"168 -4 LINE SMOOTH",
"256 -4 OFFCURVE",
"332 39 OFFCURVE",
"332 116 CURVE SMOOTH",
"332 160 OFFCURVE",
"297 191 OFFCURVE",
"236 198 CURVE SMOOTH",
"150 208 LINE SMOOTH",
"122 211 OFFCURVE",
"107 223 OFFCURVE",
"107 240 CURVE SMOOTH",
"107 265 OFFCURVE",
"137 281 OFFCURVE",
"184 281 CURVE SMOOTH",
"209 281 LINE SMOOTH",
"253 281 OFFCURVE",
"281 267 OFFCURVE",
"283 244 CURVE",
"349 244 LINE",
"349 302 OFFCURVE",
"299 339 OFFCURVE",
"218 339 CURVE SMOOTH",
"193 339 LINE SMOOTH",
"111 339 OFFCURVE",
"39 299 OFFCURVE",
"39 228 CURVE SMOOTH",
"39 185 OFFCURVE",
"74 155 OFFCURVE",
"132 149 CURVE SMOOTH",
"218 139 LINE SMOOTH",
"250 135 OFFCURVE",
"268 119 OFFCURVE",
"265 98 CURVE SMOOTH",
"260 71 OFFCURVE",
"227 54 OFFCURVE",
"178 54 CURVE SMOOTH",
"153 54 LINE SMOOTH",
"105 54 OFFCURVE",
"75 73 OFFCURVE",
"75 103 CURVE",
"9 103 LINE",
"6 37 OFFCURVE",
"57 -4 OFFCURVE",
"143 -4 CURVE SMOOTH"
);
}
);
width = 400;
},
{
layerId = "EDF5EB54-295C-4C90-9A2F-67CD82979CFF";
paths = (
{
closed = 1;
nodes = (
"158 -4 LINE SMOOTH",
"262 -4 OFFCURVE",
"321 50 OFFCURVE",
"321 110 CURVE SMOOTH",
"321 148 OFFCURVE",
"295 181 OFFCURVE",
"235 188 CURVE SMOOTH",
"148 198 LINE SMOOTH",
"116 202 OFFCURVE",
"96 217 OFFCURVE",
"96 239 CURVE SMOOTH",
"96 276 OFFCURVE",
"138 301 OFFCURVE",
"197 301 CURVE SMOOTH",
"207 301 LINE SMOOTH",
"259 301 OFFCURVE",
"293 278 OFFCURVE",
"293 244 CURVE",
"339 244 LINE",
"341 302 OFFCURVE",
"293 339 OFFCURVE",
"213 339 CURVE SMOOTH",
"203 339 LINE SMOOTH",
"112 339 OFFCURVE",
"50 296 OFFCURVE",
"50 230 CURVE SMOOTH",
"50 197 OFFCURVE",
"76 166 OFFCURVE",
"133 159 CURVE SMOOTH",
"220 149 LINE SMOOTH",
"254 145 OFFCURVE",
"275 129 OFFCURVE",
"275 104 CURVE SMOOTH",
"275 64 OFFCURVE",
"229 34 OFFCURVE",
"164 34 CURVE SMOOTH",
"155 34 LINE SMOOTH",
"98 34 OFFCURVE",
"64 61 OFFCURVE",
"65 103 CURVE",
"19 103 LINE",
"14 37 OFFCURVE",
"64 -4 OFFCURVE",
"149 -4 CURVE SMOOTH"
);
}
);
width = 400;
}
);
},
{
export = 0;
glyphname = T.half;
layers = (
{
layerId = "9ADF6715-3D0F-493D-8567-18A6FBCFC567";
paths = (
{
closed = 1;
nodes = (
"199 0 LINE",
"239 255 LINE",
"381 255 LINE",
"394 335 LINE",
"24 335 LINE",
"11 255 LINE",
"153 255 LINE",
"113 0 LINE"
);
}
);
width = 400;
},
{
layerId = "CCC0BD40-BA8C-414E-B576-CF0B94E6C996";
paths = (
{
closed = 1;
nodes = (
"189 0 LINE",
"233 275 LINE",
"385 275 LINE",
"394 335 LINE",
"24 335 LINE",
"15 275 LINE",
"167 275 LINE",
"123 0 LINE"
);
}
);
width = 400;
},
{
layerId = "EDF5EB54-295C-4C90-9A2F-67CD82979CFF";
paths = (
{
closed = 1;
nodes = (
"179 0 LINE",
"226 297 LINE",
"378 297 LINE",
"384 335 LINE",
"34 335 LINE",
"28 297 LINE",
"180 297 LINE",
"133 0 LINE"
);
}
);
width = 400;
}
);
},
{
export = 0;
glyphname = U.half;
layers = (
{
layerId = "9ADF6715-3D0F-493D-8567-18A6FBCFC567";
paths = (
{
closed = 1;
nodes = (
"252 -10 OFFCURVE",
"329 53 OFFCURVE",
"344 144 CURVE SMOOTH",
"374 335 LINE",
"288 335 LINE",
"258 144 LINE SMOOTH",
"251 100 OFFCURVE",
"214 70 OFFCURVE",
"167 70 CURVE SMOOTH",
"120 70 OFFCURVE",
"93 100 OFFCURVE",
"100 144 CURVE SMOOTH",
"130 335 LINE",
"44 335 LINE",
"14 144 LINE SMOOTH",
"-1 53 OFFCURVE",
"56 -10 OFFCURVE",
"154 -10 CURVE SMOOTH"
);
}
);
width = 400;
},
{
layerId = "CCC0BD40-BA8C-414E-B576-CF0B94E6C996";
paths = (
{
closed = 1;
nodes = (
"246 -10 OFFCURVE",
"319 49 OFFCURVE",
"334 144 CURVE SMOOTH",
"364 335 LINE",
"298 335 LINE",
"268 144 LINE SMOOTH",
"258 85 OFFCURVE",
"217 50 OFFCURVE",
"164 50 CURVE SMOOTH",
"111 50 OFFCURVE",
"80 85 OFFCURVE",
"90 144 CURVE SMOOTH",
"120 335 LINE",
"54 335 LINE",
"24 144 LINE SMOOTH",
"9 49 OFFCURVE",
"62 -10 OFFCURVE",
"154 -10 CURVE SMOOTH"
);
}
);
width = 400;
},
{
layerId = "EDF5EB54-295C-4C90-9A2F-67CD82979CFF";
paths = (
{
closed = 1;
nodes = (
"240 -10 OFFCURVE",
"309 49 OFFCURVE",
"322 134 CURVE SMOOTH",
"354 335 LINE",
"308 335 LINE",
"276 134 LINE SMOOTH",
"266 72 OFFCURVE",
"220 30 OFFCURVE",
"161 30 CURVE SMOOTH",
"102 30 OFFCURVE",
"68 72 OFFCURVE",
"78 134 CURVE SMOOTH",
"110 335 LINE",
"64 335 LINE",
"32 134 LINE SMOOTH",
"19 49 OFFCURVE",
"68 -10 OFFCURVE",
"154 -10 CURVE SMOOTH"
);
}
);
width = 400;
}
);
},
{
export = 0;
glyphname = V.half;
layers = (
{
layerId = "9ADF6715-3D0F-493D-8567-18A6FBCFC567";
paths = (
{
closed = 1;
nodes = (
"100 335 LINE",
"14 335 LINE",
"109 0 LINE",
"203 0 LINE",
"404 335 LINE",
"311 335 LINE",
"192 129 LINE SMOOTH",
"178 104 OFFCURVE",
"170 83 OFFCURVE",
"164 65 CURVE",
"164 83 OFFCURVE",
"163 103 OFFCURVE",
"156 129 CURVE SMOOTH"
);
}
);
width = 400;
},
{
layerId = "CCC0BD40-BA8C-414E-B576-CF0B94E6C996";
paths = (
{
closed = 1;
nodes = (
"91 335 LINE",
"24 335 LINE",
"119 0 LINE",
"193 0 LINE",
"394 335 LINE",
"320 335 LINE",
"200 129 LINE SMOOTH",
"186 104 OFFCURVE",
"170 73 OFFCURVE",
"164 55 CURVE",
"164 73 OFFCURVE",
"154 104 OFFCURVE",
"147 129 CURVE SMOOTH"
);
}
);
width = 400;
},
{
layerId = "EDF5EB54-295C-4C90-9A2F-67CD82979CFF";
paths = (
{
closed = 1;
nodes = (
"82 335 LINE",
"35 335 LINE",
"135 0 LINE",
"177 0 LINE",
"383 335 LINE",
"334 335 LINE",
"210 129 LINE SMOOTH",
"182 83 OFFCURVE",
"171 60 OFFCURVE",
"163 39 CURVE",
"161 60 OFFCURVE",
"155 84 OFFCURVE",
"142 129 CURVE SMOOTH"
);
}
);
width = 400;
}
);
},
{
export = 0;
glyphname = X.half;
layers = (
{
layerId = "9ADF6715-3D0F-493D-8567-18A6FBCFC567";
paths = (
{
closed = 1;
nodes = (
"79 0 LINE",
"159 86 LINE SMOOTH",
"168 95 OFFCURVE",
"172 109 OFFCURVE",
"174 122 CURVE",
"175 109 OFFCURVE",
"178 96 OFFCURVE",
"185 85 CURVE SMOOTH",
"237 0 LINE",
"336 0 LINE",
"228 167 LINE",
"389 335 LINE",
"286 335 LINE",
"208 249 LINE SMOOTH",
"199 239 OFFCURVE",
"195 226 OFFCURVE",
"193 214 CURVE",
"191 226 OFFCURVE",
"186 240 OFFCURVE",
"180 249 CURVE SMOOTH",
"128 335 LINE",
"30 335 LINE",
"138 169 LINE",
"-24 0 LINE"
);
}
);
width = 400;
},
{
layerId = "CCC0BD40-BA8C-414E-B576-CF0B94E6C996";
paths = (
{
closed = 1;
nodes = (
"67 0 LINE",
"147 86 LINE SMOOTH",
"167 108 OFFCURVE",
"174 123 OFFCURVE",
"178 141 CURVE",
"181 123 OFFCURVE",
"186 107 OFFCURVE",
"199 85 CURVE SMOOTH",
"251 0 LINE",
"326 0 LINE",
"227 167 LINE",
"379 335 LINE",
"298 335 LINE",
"220 249 LINE SMOOTH",
"200 227 OFFCURVE",
"193 213 OFFCURVE",
"188 195 CURVE",
"184 213 OFFCURVE",
"179 227 OFFCURVE",
"166 249 CURVE SMOOTH",
"114 335 LINE",
"40 335 LINE",
"139 169 LINE",
"-14 0 LINE"
);
}
);
width = 400;
},
{
layerId = "EDF5EB54-295C-4C90-9A2F-67CD82979CFF";
paths = (
{
closed = 1;
nodes = (
"57 0 LINE",
"135 88 LINE SMOOTH",
"154 110 OFFCURVE",
"168 126 OFFCURVE",
"181 143 CURVE",
"189 126 OFFCURVE",
"196 110 OFFCURVE",
"211 85 CURVE SMOOTH",
"262 0 LINE",
"316 0 LINE",
"216 168 LINE",
"369 335 LINE",
"309 335 LINE",
"230 247 LINE SMOOTH",
"211 225 OFFCURVE",
"194 207 OFFCURVE",
"186 195 CURVE",
"182 205 OFFCURVE",
"168 227 OFFCURVE",
"155 249 CURVE SMOOTH",
"104 335 LINE",
"50 335 LINE",
"151 169 LINE",
"-4 0 LINE"
);
}
);
width = 400;
}
);
},
{
glyphname = a;
layers = (
{
anchors = (
{
name = bottom;
position = "{261, 0}";
},
{
name = ogonek;
position = "{390, 0}";
},
{
name = top;
position = "{348, 550}";
}
);
layerId = "9ADF6715-3D0F-493D-8567-18A6FBCFC567";
paths = (
{
closed = 1;
nodes = (
"271 -10 OFFCURVE",
"349 55 OFFCURVE",
"364 150 CURVE",
"335 125 LINE",
"360 125 LINE",
"359 117 LINE SMOOTH",
"348 48 OFFCURVE",
"399 0 OFFCURVE",
"485 0 CURVE SMOOTH",
"540 0 LINE",
"561 130 LINE",
"515 130 LINE SMOOTH",
"492 130 OFFCURVE",
"478 145 OFFCURVE",
"482 168 CURVE SMOOTH",
"542 550 LINE",
"393 550 LINE",
"380 445 LINE",
"345 445 LINE",
"375 410 LINE",
"389 499 OFFCURVE",
"344 560 OFFCURVE",
"265 560 CURVE SMOOTH",
"166 560 OFFCURVE",
"83 472 OFFCURVE",
"62 345 CURVE SMOOTH",
"39 205 LINE SMOOTH",
"18 78 OFFCURVE",
"72 -10 OFFCURVE",
"174 -10 CURVE SMOOTH"
);
},
{
closed = 1;
nodes = (
"204 120 OFFCURVE",
"182 155 OFFCURVE",
"190 210 CURVE SMOOTH",
"211 340 LINE SMOOTH",
"220 395 OFFCURVE",
"253 430 OFFCURVE",
"298 430 CURVE SMOOTH",
"344 430 OFFCURVE",
"368 395 OFFCURVE",
"359 340 CURVE SMOOTH",
"338 210 LINE SMOOTH",
"330 155 OFFCURVE",
"295 120 OFFCURVE",
"249 120 CURVE SMOOTH"
);
}
);
width = 600;
},
{
anchors = (
{
name = bottom;
position = "{261, 0}";
},
{
name = ogonek;
position = "{410, 0}";
},
{
name = top;
position = "{348, 550}";
}
);
layerId = "EDF5EB54-295C-4C90-9A2F-67CD82979CFF";
paths = (
{
closed = 1;
nodes = (
"318 -10 OFFCURVE",
"391 51 OFFCURVE",
"405 140 CURVE",
"385 119 LINE",
"398 119 LINE",
"396 105 LINE SMOOTH",
"386 43 OFFCURVE",
"419 0 OFFCURVE",
"478 0 CURVE SMOOTH",
"523 0 LINE",
"530 45 LINE",
"485 45 LINE SMOOTH",
"450 45 OFFCURVE",
"429 69 OFFCURVE",
"435 105 CURVE SMOOTH",
"505 550 LINE",
"455 550 LINE",
"442 465 LINE",
"424 465 LINE",
"443 410 LINE",
"456 499 OFFCURVE",
"404 560 OFFCURVE",
"316 560 CURVE SMOOTH",
"215 560 OFFCURVE",
"133 479 OFFCURVE",
"114 360 CURVE SMOOTH",
"87 189 LINE SMOOTH",
"68 71 OFFCURVE",
"124 -10 OFFCURVE",
"225 -10 CURVE SMOOTH"
);
},
{
closed = 1;
nodes = (
"163 33 OFFCURVE",
"122 93 OFFCURVE",
"137 189 CURVE SMOOTH",
"164 360 LINE SMOOTH",
"179 456 OFFCURVE",
"239 517 OFFCURVE",
"319 517 CURVE SMOOTH",
"400 517 OFFCURVE",
"440 456 OFFCURVE",
"425 360 CURVE SMOOTH",
"398 189 LINE SMOOTH",
"383 93 OFFCURVE",
"323 33 OFFCURVE",
"242 33 CURVE SMOOTH"
);
}
);
width = 600;
},
{
anchors = (
{
name = bottom;
position = "{261, 0}";
},
{
name = ogonek;
position = "{420, 0}";
},
{
name = top;
position = "{348, 550}";
}
);
layerId = "CCC0BD40-BA8C-414E-B576-CF0B94E6C996";
paths = (
{
closed = 1;
nodes = (
"301 -10 OFFCURVE",
"376 54 OFFCURVE",
"390 147 CURVE",
"369 147 LINE",
"385 136 LINE",
"382 117 LINE SMOOTH",
"371 48 OFFCURVE",
"409 0 OFFCURVE",
"475 0 CURVE SMOOTH",
"525 0 LINE",
"538 82 LINE",
"493 82 LINE SMOOTH",
"467 82 OFFCURVE",
"451 100 OFFCURVE",
"455 127 CURVE SMOOTH",
"522 550 LINE",
"432 550 LINE",
"417 445 LINE",
"397 445 LINE",
"412 424 LINE",
"425 505 OFFCURVE",
"378 560 OFFCURVE",
"296 560 CURVE SMOOTH",
"197 560 OFFCURVE",
"115 477 OFFCURVE",
"95 355 CURVE SMOOTH",
"70 194 LINE SMOOTH",
"51 73 OFFCURVE",
"106 -10 OFFCURVE",
"205 -10 CURVE SMOOTH"
);
},
{
closed = 1;
nodes = (
"182 68 OFFCURVE",
"149 119 OFFCURVE",
"161 200 CURVE SMOOTH",
"184 350 LINE SMOOTH",
"196 431 OFFCURVE",
"246 482 OFFCURVE",
"313 482 CURVE SMOOTH",
"378 482 OFFCURVE",
"412 431 OFFCURVE",
"400 350 CURVE SMOOTH",
"377 200 LINE SMOOTH",
"364 119 OFFCURVE",
"314 68 OFFCURVE",
"248 68 CURVE SMOOTH"
);
}
);
width = 600;
}
);
unicode = 0061;
},
{
glyphname = aogonek;
layers = (
{
components = (
{
name = a;
}
);
layerId = "EDF5EB54-295C-4C90-9A2F-67CD82979CFF";
paths = (
{
closed = 1;
nodes = (
"491 -195 LINE",
"498 -153 LINE",
"434 -153 LINE SMOOTH",
"402 -153 OFFCURVE",
"386 -134 OFFCURVE",
"391 -103 CURVE SMOOTH",
"394 -77 OFFCURVE",
"431 -39 OFFCURVE",
"492 0 CURVE",
"463 10 LINE",
"392 -29 OFFCURVE",
"347 -75 OFFCURVE",
"342 -115 CURVE SMOOTH",
"334 -165 OFFCURVE",
"363 -195 OFFCURVE",
"418 -195 CURVE"
);
}
);
width = 600;
},
{
components = (
{
name = a;
}
);
layerId = "CCC0BD40-BA8C-414E-B576-CF0B94E6C996";
paths = (
{
closed = 1;
nodes = (
"493 -203 LINE",
"502 -143 LINE",
"442 -143 LINE SMOOTH",
"408 -143 OFFCURVE",
"391 -122 OFFCURVE",
"395 -93 CURVE SMOOTH",
"400 -65 OFFCURVE",
"439 -31 OFFCURVE",
"504 0 CURVE",
"437 10 LINE",
"362 -24 OFFCURVE",
"315 -68 OFFCURVE",
"308 -110 CURVE SMOOTH",
"299 -164 OFFCURVE",
"341 -203 OFFCURVE",
"415 -203 CURVE SMOOTH"
);
}
);
width = 600;
},
{
components = (
{
name = a;
}
);
layerId = "9ADF6715-3D0F-493D-8567-18A6FBCFC567";
paths = (
{
closed = 1;
nodes = (
"504 -225 LINE",
"521 -120 LINE",
"452 -120 LINE SMOOTH",
"423 -120 OFFCURVE",
"409 -103 OFFCURVE",
"412 -83 CURVE SMOOTH",
"416 -58 OFFCURVE",
"451 -28 OFFCURVE",
"506 0 CURVE",
"434 11 LINE",
"346 -13 OFFCURVE",
"291 -58 OFFCURVE",
"283 -115 CURVE SMOOTH",
"272 -180 OFFCURVE",
"315 -225 OFFCURVE",
"396 -225 CURVE SMOOTH"
);
}
);
width = 600;
}
);
unicode = 0105;
},
{
glyphname = ae;
layers = (
{
anchors = (
{
name = top;
position = "{346, 550}";
}
);
layerId = "9ADF6715-3D0F-493D-8567-18A6FBCFC567";
paths = (
{
closed = 1;
nodes = (
"198 -10 OFFCURVE",
"254 25 OFFCURVE",
"270 81 CURVE",
"268 25 OFFCURVE",
"315 -10 OFFCURVE",
"378 -10 CURVE SMOOTH",
"465 -10 OFFCURVE",
"535 55 OFFCURVE",
"550 150 CURVE",
"431 150 LINE",
"425 111 OFFCURVE",
"404 87 OFFCURVE",
"376 87 CURVE SMOOTH",
"348 87 OFFCURVE",
"335 111 OFFCURVE",
"341 150 CURVE SMOOTH",
"357 250 LINE",
"566 250 LINE",
"589 400 LINE SMOOTH",
"604 495 OFFCURVE",
"553 560 OFFCURVE",
"466 560 CURVE SMOOTH",
"403 560 OFFCURVE",
"347 525 OFFCURVE",
"331 468 CURVE",
"333 525 OFFCURVE",
"290 560 OFFCURVE",
"226 560 CURVE SMOOTH",
"139 560 OFFCURVE",
"68 495 OFFCURVE",
"53 400 CURVE",
"172 400 LINE",
"179 439 OFFCURVE",
"199 463 OFFCURVE",
"227 463 CURVE SMOOTH",
"255 463 OFFCURVE",
"268 439 OFFCURVE",
"262 400 CURVE SMOOTH",
"251 330 LINE",
"206 330 LINE SMOOTH",
"105 330 OFFCURVE",
"25 260 OFFCURVE",
"9 159 CURVE SMOOTH",
"-7 59 OFFCURVE",
"43 -10 OFFCURVE",
"132 -10 CURVE SMOOTH"
);
},
{
closed = 1;
nodes = (
"135 87 OFFCURVE",
"122 120 OFFCURVE",
"130 168 CURVE SMOOTH",
"137 217 OFFCURVE",
"161 250 OFFCURVE",
"194 250 CURVE SMOOTH",
"239 250 LINE",
"223 150 LINE SMOOTH",
"217 111 OFFCURVE",
"195 87 OFFCURVE",
"167 87 CURVE SMOOTH"
);
},
{
closed = 1;
nodes = (
"380 400 LINE SMOOTH",
"386 439 OFFCURVE",
"408 463 OFFCURVE",
"435 463 CURVE SMOOTH",
"463 463 OFFCURVE",
"476 439 OFFCURVE",
"470 400 CURVE SMOOTH",
"459 330 LINE",
"369 330 LINE"
);
}
);
width = 600;
},
{
anchors = (
{
name = top;
position = "{346, 550}";
}
);
layerId = "CCC0BD40-BA8C-414E-B576-CF0B94E6C996";
paths = (
{
closed = 1;
nodes = (
"196 -10 OFFCURVE",
"253 27 OFFCURVE",
"273 80 CURVE",
"275 27 OFFCURVE",
"316 -10 OFFCURVE",
"374 -10 CURVE SMOOTH",
"460 -10 OFFCURVE",
"529 50 OFFCURVE",
"543 137 CURVE",
"459 137 LINE",
"452 94 OFFCURVE",
"420 65 OFFCURVE",
"378 65 CURVE SMOOTH",
"335 65 OFFCURVE",
"314 96 OFFCURVE",
"323 150 CURVE SMOOTH",
"340 256 LINE",
"562 256 LINE",
"584 400 LINE SMOOTH",
"599 495 OFFCURVE",
"551 560 OFFCURVE",
"465 560 CURVE SMOOTH",
"403 560 OFFCURVE",
"350 524 OFFCURVE",
"335 471 CURVE",
"336 524 OFFCURVE",
"292 560 OFFCURVE",
"227 560 CURVE SMOOTH",
"147 560 OFFCURVE",
"82 501 OFFCURVE",
"69 414 CURVE",
"148 414 LINE",
"154 456 OFFCURVE",
"187 485 OFFCURVE",
"228 485 CURVE SMOOTH",
"271 485 OFFCURVE",
"291 454 OFFCURVE",
"282 399 CURVE SMOOTH",
"270 324 LINE",
"189 324 LINE SMOOTH",
"99 324 OFFCURVE",
"28 257 OFFCURVE",
"12 159 CURVE SMOOTH",
"-4 59 OFFCURVE",
"45 -10 OFFCURVE",
"132 -10 CURVE SMOOTH"
);
},
{
closed = 1;
nodes = (
"110 65 OFFCURVE",
"87 102 OFFCURVE",
"96 160 CURVE SMOOTH",
"106 219 OFFCURVE",
"139 256 OFFCURVE",
"181 256 CURVE SMOOTH",
"260 256 LINE",
"243 150 LINE SMOOTH",
"235 98 OFFCURVE",
"201 65 OFFCURVE",
"157 65 CURVE SMOOTH"
);
},
{
closed = 1;
nodes = (
"362 400 LINE SMOOTH",
"370 452 OFFCURVE",
"403 485 OFFCURVE",
"445 485 CURVE SMOOTH",
"487 485 OFFCURVE",
"508 452 OFFCURVE",
"500 400 CURVE SMOOTH",
"488 324 LINE",
"350 324 LINE"
);
}
);
width = 600;
},
{
anchors = (
{
name = top;
position = "{346, 550}";
}
);
layerId = "EDF5EB54-295C-4C90-9A2F-67CD82979CFF";
paths = (
{
closed = 1;
nodes = (
"194 -10 OFFCURVE",
"253 25 OFFCURVE",
"271 75 CURVE",
"274 25 OFFCURVE",
"318 -10 OFFCURVE",
"380 -10 CURVE SMOOTH",
"460 -10 OFFCURVE",
"525 50 OFFCURVE",
"539 137 CURVE",
"491 137 LINE",
"481 76 OFFCURVE",
"437 34 OFFCURVE",
"384 34 CURVE SMOOTH",
"327 34 OFFCURVE",
"295 77 OFFCURVE",
"305 140 CURVE SMOOTH",
"326 269 LINE",
"559 269 LINE",
"581 410 LINE SMOOTH",
"595 499 OFFCURVE",
"549 560 OFFCURVE",
"467 560 CURVE SMOOTH",
"407 560 OFFCURVE",
"353 525 OFFCURVE",
"334 474 CURVE",
"334 525 OFFCURVE",
"293 560 OFFCURVE",
"232 560 CURVE SMOOTH",
"156 560 OFFCURVE",
"93 501 OFFCURVE",
"80 414 CURVE",
"128 414 LINE",
"137 475 OFFCURVE",
"180 517 OFFCURVE",
"232 517 CURVE SMOOTH",
"282 517 OFFCURVE",
"310 473 OFFCURVE",
"300 410 CURVE SMOOTH",
"284 312 LINE",
"175 312 LINE SMOOTH",
"98 312 OFFCURVE",
"35 248 OFFCURVE",
"21 155 CURVE SMOOTH",
"5 57 OFFCURVE",
"49 -10 OFFCURVE",
"128 -10 CURVE SMOOTH"
);
},
{
closed = 1;
nodes = (
"88 31 OFFCURVE",
"57 81 OFFCURVE",
"69 155 CURVE SMOOTH",
"79 223 OFFCURVE",
"120 269 OFFCURVE",
"169 269 CURVE SMOOTH",
"278 269 LINE",
"257 140 LINE SMOOTH",
"246 75 OFFCURVE",
"201 31 OFFCURVE",
"144 31 CURVE SMOOTH"
);
},
{
closed = 1;
nodes = (
"348 410 LINE SMOOTH",
"358 473 OFFCURVE",
"402 517 OFFCURVE",
"457 517 CURVE SMOOTH",
"512 517 OFFCURVE",
"543 473 OFFCURVE",
"533 410 CURVE SMOOTH",
"517 312 LINE",
"332 312 LINE"
);
}
);
width = 600;
}
);
unicode = 00E6;
},
{
glyphname = b;
layers = (
{
anchors = (
{
name = bottom;
position = "{256, 0}";
},
{
name = top;
position = "{372, 730}";
}
);
layerId = "CCC0BD40-BA8C-414E-B576-CF0B94E6C996";
paths = (
{
closed = 1;
nodes = (
"401 -10 OFFCURVE",
"479 64 OFFCURVE",
"500 194 CURVE SMOOTH",
"525 355 LINE SMOOTH",
"545 482 OFFCURVE",
"488 560 OFFCURVE",
"377 560 CURVE SMOOTH",
"280 560 OFFCURVE",
"216 510 OFFCURVE",
"203 424 CURVE",
"226 445 LINE",
"206 445 LINE",
"228 570 LINE",
"254 730 LINE",
"164 730 LINE",
"48 0 LINE",
"138 0 LINE",
"155 105 LINE",
"173 105 LINE",
"158 126 LINE",
"145 42 OFFCURVE",
"195 -10 OFFCURVE",
"286 -10 CURVE SMOOTH"
);
},
{
closed = 1;
nodes = (
"195 68 OFFCURVE",
"157 117 OFFCURVE",
"170 200 CURVE SMOOTH",
"193 350 LINE SMOOTH",
"207 433 OFFCURVE",
"260 482 OFFCURVE",
"334 482 CURVE SMOOTH",
"410 482 OFFCURVE",
"449 445 OFFCURVE",
"435 355 CURVE SMOOTH",
"410 195 LINE SMOOTH",
"396 105 OFFCURVE",
"345 68 OFFCURVE",
"269 68 CURVE SMOOTH"
);
}
);
width = 600;
},
{
anchors = (
{
name = bottom;
position = "{256, 0}";
},
{
name = top;
position = "{372, 730}";
}
);
layerId = "EDF5EB54-295C-4C90-9A2F-67CD82979CFF";
paths = (
{
closed = 1;
nodes = (
"379 -10 OFFCURVE",
"461 67 OFFCURVE",
"481 189 CURVE SMOOTH",
"508 360 LINE SMOOTH",
"527 480 OFFCURVE",
"468 560 OFFCURVE",
"358 560 CURVE SMOOTH",
"258 560 OFFCURVE",
"185 502 OFFCURVE",
"171 410 CURVE",
"206 455 LINE",
"188 455 LINE",
"208 580 LINE",
"232 730 LINE",
"182 730 LINE",
"66 0 LINE",
"116 0 LINE",
"131 95 LINE",
"146 95 LINE",
"128 140 LINE",
"114 49 OFFCURVE",
"171 -10 OFFCURVE",
"267 -10 CURVE SMOOTH"
);
},
{
closed = 1;
nodes = (
"174 33 OFFCURVE",
"130 91 OFFCURVE",
"146 189 CURVE SMOOTH",
"173 360 LINE SMOOTH",
"189 458 OFFCURVE",
"250 517 OFFCURVE",
"341 517 CURVE SMOOTH",
"430 517 OFFCURVE",
"474 458 OFFCURVE",
"458 360 CURVE SMOOTH",
"431 189 LINE SMOOTH",
"415 91 OFFCURVE",
"353 33 OFFCURVE",
"264 33 CURVE SMOOTH"
);
}
);
width = 600;
},
{
anchors = (
{
name = bottom;
position = "{256, 0}";
},
{
name = top;
position = "{372, 730}";
}
);
layerId = "9ADF6715-3D0F-493D-8567-18A6FBCFC567";
paths = (
{
closed = 1;
nodes = (
"426 -10 OFFCURVE",
"508 73 OFFCURVE",
"528 205 CURVE SMOOTH",
"551 345 LINE SMOOTH",
"571 476 OFFCURVE",
"513 560 OFFCURVE",
"407 560 CURVE SMOOTH",
"302 560 OFFCURVE",
"231 487 OFFCURVE",
"210 360 CURVE",
"271 435 LINE",
"236 435 LINE",
"264 580 LINE",
"288 730 LINE",
"138 730 LINE",
"22 0 LINE",
"167 0 LINE",
"185 115 LINE",
"220 115 LINE",
"183 190 LINE",
"163 66 OFFCURVE",
"214 -10 OFFCURVE",
"316 -10 CURVE SMOOTH"
);
},
{
closed = 1;
nodes = (
"222 120 OFFCURVE",
"196 154 OFFCURVE",
"206 215 CURVE SMOOTH",
"225 335 LINE SMOOTH",
"235 396 OFFCURVE",
"271 430 OFFCURVE",
"328 430 CURVE SMOOTH",
"383 430 OFFCURVE",
"409 398 OFFCURVE",
"400 340 CURVE SMOOTH",
"379 210 LINE SMOOTH",
"370 152 OFFCURVE",
"334 120 OFFCURVE",
"279 120 CURVE SMOOTH"
);
}
);
width = 600;
}
);
unicode = 0062;
},
{
glyphname = c;
layers = (
{
anchors = (
{
name = bottom;
position = "{265, 0}";
},
{
name = top;
position = "{352, 550}";
}
);
layerId = "9ADF6715-3D0F-493D-8567-18A6FBCFC567";
paths = (
{
closed = 1;
nodes = (
"413 -10 OFFCURVE",
"513 65 OFFCURVE",
"539 195 CURVE",
"393 195 LINE",
"381 147 OFFCURVE",
"339 120 OFFCURVE",
"284 120 CURVE SMOOTH",
"224 120 OFFCURVE",
"196 152 OFFCURVE",
"205 210 CURVE SMOOTH",
"226 340 LINE SMOOTH",
"235 398 OFFCURVE",
"273 430 OFFCURVE",
"333 430 CURVE SMOOTH",
"387 430 OFFCURVE",
"422 402 OFFCURVE",
"418 355 CURVE",
"564 355 LINE",
"579 480 OFFCURVE",
"497 560 OFFCURVE",
"354 560 CURVE SMOOTH",
"199 560 OFFCURVE",
"99 480 OFFCURVE",
"76 340 CURVE SMOOTH",
"55 210 LINE SMOOTH",
"34 79 OFFCURVE",
"118 -10 OFFCURVE",
"263 -10 CURVE SMOOTH"
);
}
);
width = 600;
},
{
anchors = (
{
name = bottom;
position = "{264, 0}";
},
{
name = top;
position = "{351, 550}";
}
);
layerId = "CCC0BD40-BA8C-414E-B576-CF0B94E6C996";
paths = (
{
closed = 1;
nodes = (
"394 -10 OFFCURVE",
"484 59 OFFCURVE",
"508 180 CURVE",
"418 180 LINE",
"402 110 OFFCURVE",
"349 70 OFFCURVE",
"275 70 CURVE SMOOTH",
"196 70 OFFCURVE",
"153 117 OFFCURVE",
"166 200 CURVE SMOOTH",
"190 351 LINE SMOOTH",
"203 433 OFFCURVE",
"261 480 OFFCURVE",
"340 480 CURVE SMOOTH",
"414 480 OFFCURVE",
"455 440 OFFCURVE",
"448 370 CURVE",
"538 370 LINE",
"552 485 OFFCURVE",
"479 560 OFFCURVE",
"353 560 CURVE SMOOTH",
"214 560 OFFCURVE",
"119 483 OFFCURVE",
"99 350 CURVE SMOOTH",
"76 200 LINE SMOOTH",
"56 71 OFFCURVE",
"131 -10 OFFCURVE",
"262 -10 CURVE SMOOTH"
);
}
);
width = 600;
},
{
anchors = (
{
name = bottom;
position = "{265, 0}";
},
{
name = top;
position = "{352, 550}";
}
);
layerId = "EDF5EB54-295C-4C90-9A2F-67CD82979CFF";
paths = (
{
closed = 1;
nodes = (
"389 -10 OFFCURVE",
"473 59 OFFCURVE",
"492 180 CURVE",
"442 180 LINE",
"427 90 OFFCURVE",
"363 36 OFFCURVE",
"271 36 CURVE SMOOTH",
"180 36 OFFCURVE",
"133 94 OFFCURVE",
"148 190 CURVE SMOOTH",
"175 360 LINE SMOOTH",
"190 457 OFFCURVE",
"255 514 OFFCURVE",
"346 514 CURVE SMOOTH",
"438 514 OFFCURVE",
"486 460 OFFCURVE",
"472 370 CURVE",
"522 370 LINE",
"540 482 OFFCURVE",
"471 560 OFFCURVE",
"354 560 CURVE SMOOTH",
"229 560 OFFCURVE",
"145 487 OFFCURVE",
"125 360 CURVE SMOOTH",
"98 190 LINE SMOOTH",
"79 70 OFFCURVE",
"144 -10 OFFCURVE",
"263 -10 CURVE SMOOTH"
);
}
);
width = 600;
}
);
unicode = 0063;
},
{
glyphname = ccedilla;
layers = (
{
anchors = (
{
name = _bottom;
position = "{258, 0}";
}
);
components = (
{
name = c;
}
);
layerId = "EDF5EB54-295C-4C90-9A2F-67CD82979CFF";
paths = (
{
closed = 1;
nodes = (
"217 -195 LINE SMOOTH",
"277 -195 OFFCURVE",
"323 -161 OFFCURVE",
"329 -118 CURVE SMOOTH",
"338 -61 OFFCURVE",
"279 -37 OFFCURVE",
"233 -34 CURVE",
"265 26 LINE",
"223 26 LINE",
"174 -64 LINE",
"245 -64 OFFCURVE",
"288 -86 OFFCURVE",
"283 -118 CURVE SMOOTH",
"280 -140 OFFCURVE",
"255 -160 OFFCURVE",
"223 -160 CURVE SMOOTH",
"143 -160 LINE",
"137 -195 LINE"
);
}
);
width = 600;
},
{
anchors = (
{
name = _bottom;
position = "{260, 0}";
}
);
components = (
{
name = c;
}
);
layerId = "CCC0BD40-BA8C-414E-B576-CF0B94E6C996";
paths = (
{
closed = 1;
nodes = (
"218 -203 LINE SMOOTH",
"290 -203 OFFCURVE",
"344 -166 OFFCURVE",
"351 -120 CURVE SMOOTH",
"359 -68 OFFCURVE",
"296 -41 OFFCURVE",
"244 -35 CURVE",
"275 26 LINE",
"218 26 LINE",
"168 -69 LINE",
"235 -69 OFFCURVE",
"270 -89 OFFCURVE",
"266 -112 CURVE SMOOTH",
"263 -130 OFFCURVE",
"241 -148 OFFCURVE",
"212 -148 CURVE SMOOTH",
"142 -148 LINE",
"133 -203 LINE"
);
}
);
width = 600;
},
{
anchors = (
{
name = _bottom;
position = "{259, 0}";
}
);
components = (
{
name = c;
}
);
layerId = "9ADF6715-3D0F-493D-8567-18A6FBCFC567";
paths = (
{
closed = 1;
nodes = (
"223 -225 LINE SMOOTH",
"307 -225 OFFCURVE",
"370 -182 OFFCURVE",
"378 -133 CURVE SMOOTH",
"388 -72 OFFCURVE",
"311 -43 OFFCURVE",
"251 -39 CURVE",
"279 16 LINE",
"206 16 LINE",
"157 -69 LINE",
"230 -69 OFFCURVE",
"270 -88 OFFCURVE",
"265 -119 CURVE SMOOTH",
"263 -135 OFFCURVE",
"237 -155 OFFCURVE",
"204 -155 CURVE SMOOTH",
"124 -155 LINE",
"113 -225 LINE"
);
}
);
width = 600;
}
);
unicode = 00E7;
},
{
glyphname = d;
layers = (
{
anchors = (
{
name = bottom;
position = "{256, 0}";
},
{
name = center;
position = "{300, 275}";
},
{
name = top;
position = "{372, 730}";
},
{
name = topright;
position = "{623, 550}";
}
);
layerId = "EDF5EB54-295C-4C90-9A2F-67CD82979CFF";
paths = (
{
closed = 1;
nodes = (
"345 -10 OFFCURVE",
"413 45 OFFCURVE",
"428 140 CURVE",
"393 95 LINE",
"411 95 LINE",
"396 0 LINE",
"446 0 LINE",
"562 730 LINE",
"512 730 LINE",
"488 580 LINE",
"468 455 LINE",
"450 455 LINE",
"471 410 LINE",
"485 501 OFFCURVE",
"428 560 OFFCURVE",
"332 560 CURVE SMOOTH",
"216 560 OFFCURVE",
"138 487 OFFCURVE",
"118 360 CURVE SMOOTH",
"91 189 LINE SMOOTH",
"72 71 OFFCURVE",
"133 -10 OFFCURVE",
"241 -10 CURVE SMOOTH"
);
},
{
closed = 1;
nodes = (
"169 33 OFFCURVE",
"126 91 OFFCURVE",
"141 189 CURVE SMOOTH",
"168 360 LINE SMOOTH",
"183 458 OFFCURVE",
"246 517 OFFCURVE",
"335 517 CURVE SMOOTH",
"426 517 OFFCURVE",
"468 458 OFFCURVE",
"453 360 CURVE SMOOTH",
"426 189 LINE SMOOTH",
"411 91 OFFCURVE",
"348 33 OFFCURVE",
"258 33 CURVE SMOOTH"
);
}
);
width = 600;
},
{
anchors = (
{
name = bottom;
position = "{256, 0}";
},
{
name = center;
position = "{300, 275}";
},
{
name = top;
position = "{372, 730}";
},
{
name = topright;
position = "{623, 550}";
}
);
layerId = "9ADF6715-3D0F-493D-8567-18A6FBCFC567";
paths = (
{
closed = 1;
nodes = (
"296 -10 OFFCURVE",
"367 63 OFFCURVE",
"388 190 CURVE",
"328 115 LINE",
"363 115 LINE",
"345 0 LINE",
"490 0 LINE",
"606 730 LINE",
"456 730 LINE",
"432 580 LINE",
"414 435 LINE",
"379 435 LINE",
"416 360 LINE",
"436 485 OFFCURVE",
"385 560 OFFCURVE",
"283 560 CURVE SMOOTH",
"171 560 OFFCURVE",
"94 482 OFFCURVE",
"71 345 CURVE SMOOTH",
"48 205 LINE SMOOTH",
"27 76 OFFCURVE",
"88 -10 OFFCURVE",
"192 -10 CURVE SMOOTH"
);
},
{
closed = 1;
nodes = (
"216 120 OFFCURVE",
"190 152 OFFCURVE",
"199 210 CURVE SMOOTH",
"220 340 LINE SMOOTH",
"229 398 OFFCURVE",
"265 430 OFFCURVE",
"320 430 CURVE SMOOTH",
"377 430 OFFCURVE",
"403 396 OFFCURVE",
"393 335 CURVE SMOOTH",
"374 215 LINE SMOOTH",
"364 154 OFFCURVE",
"328 120 OFFCURVE",
"271 120 CURVE SMOOTH"
);
}
);
width = 600;
},
{
anchors = (
{
name = bottom;
position = "{256, 0}";
},
{
name = center;
position = "{300, 275}";
},
{
name = top;
position = "{372, 730}";
},
{
name = topright;
position = "{623, 550}";
}
);
layerId = "CCC0BD40-BA8C-414E-B576-CF0B94E6C996";
paths = (
{
closed = 1;
nodes = (
"318 -10 OFFCURVE",
"381 40 OFFCURVE",
"394 126 CURVE",
"373 105 LINE",
"391 105 LINE",
"374 0 LINE",
"464 0 LINE",
"580 730 LINE",
"490 730 LINE",
"464 570 LINE",
"446 445 LINE",
"426 445 LINE",
"443 424 LINE",
"456 507 OFFCURVE",
"403 560 OFFCURVE",
"313 560 CURVE SMOOTH",
"197 560 OFFCURVE",
"119 485 OFFCURVE",
"99 355 CURVE SMOOTH",
"74 194 LINE SMOOTH",
"55 71 OFFCURVE",
"116 -10 OFFCURVE",
"222 -10 CURVE SMOOTH"
);
},
{
closed = 1;
nodes = (
"189 68 OFFCURVE",
"150 105 OFFCURVE",
"164 195 CURVE SMOOTH",
"189 355 LINE SMOOTH",
"203 445 OFFCURVE",
"254 482 OFFCURVE",
"330 482 CURVE SMOOTH",
"404 482 OFFCURVE",
"442 433 OFFCURVE",
"429 350 CURVE SMOOTH",
"406 200 LINE SMOOTH",
"393 117 OFFCURVE",
"339 68 OFFCURVE",
"265 68 CURVE SMOOTH"
);
}
);
width = 600;
}
);
unicode = 0064;
},
{
glyphname = eth;
layers = (
{
layerId = "9ADF6715-3D0F-493D-8567-18A6FBCFC567";
paths = (
{
closed = 1;
nodes = (
"415 0 OFFCURVE",
"531 96 OFFCURVE",
"556 251 CURVE SMOOTH",
"569 337 OFFCURVE",
"546 429 OFFCURVE",
"480 537 CURVE SMOOTH",
"439 604 LINE",
"552 641 LINE",
"567 747 LINE",
"386 687 LINE",
"361 730 LINE",
"208 730 LINE",
"261 642 LINE",
"158 608 LINE",
"143 501 LINE",
"313 558 LINE",
"354 489 LINE SMOOTH",
"400 412 OFFCURVE",
"408 380 OFFCURVE",
"406 375 CURVE",
"400 375 LINE",
"386 410 OFFCURVE",
"340 456 OFFCURVE",
"271 456 CURVE SMOOTH",
"150 456 OFFCURVE",
"54 368 OFFCURVE",
"33 236 CURVE SMOOTH",
"11 94 OFFCURVE",
"99 0 OFFCURVE",
"256 0 CURVE SMOOTH"
);
},
{
closed = 1;
nodes = (
"209 125 OFFCURVE",
"173 168 OFFCURVE",
"183 235 CURVE SMOOTH",
"194 302 OFFCURVE",
"244 345 OFFCURVE",
"311 345 CURVE SMOOTH",
"377 345 OFFCURVE",
"414 301 OFFCURVE",
"403 235 CURVE SMOOTH",
"393 168 OFFCURVE",
"343 125 OFFCURVE",
"276 125 CURVE SMOOTH"
);
}
);
width = 600;
},
{
layerId = "CCC0BD40-BA8C-414E-B576-CF0B94E6C996";
paths = (
{
closed = 1;
nodes = (
"392 -10 OFFCURVE",
"499 83 OFFCURVE",
"521 223 CURVE SMOOTH",
"535 308 OFFCURVE",
"515 410 OFFCURVE",
"466 493 CURVE SMOOTH",
"401 604 LINE",
"521 653 LINE",
"533 735 LINE",
"366 668 LINE",
"332 730 LINE",
"237 730 LINE",
"292 633 LINE",
"164 577 LINE",
"151 496 LINE",
"327 569 LINE",
"377 480 LINE SMOOTH",
"405 430 OFFCURVE",
"421 393 OFFCURVE",
"425 380 CURVE",
"411 380 LINE",
"400 404 OFFCURVE",
"364 436 OFFCURVE",
"306 436 CURVE SMOOTH",
"179 436 OFFCURVE",
"81 348 OFFCURVE",
"60 215 CURVE SMOOTH",
"39 80 OFFCURVE",
"116 -10 OFFCURVE",
"253 -10 CURVE SMOOTH"
);
},
{
closed = 1;
nodes = (
"183 70 OFFCURVE",
"136 128 OFFCURVE",
"150 215 CURVE SMOOTH",
"164 302 OFFCURVE",
"229 360 OFFCURVE",
"312 360 CURVE SMOOTH",
"397 360 OFFCURVE",
"444 302 OFFCURVE",
"430 215 CURVE SMOOTH",
"416 128 OFFCURVE",
"351 70 OFFCURVE",
"266 70 CURVE SMOOTH"
);
}
);
width = 600;
},
{
layerId = "EDF5EB54-295C-4C90-9A2F-67CD82979CFF";
paths = (
{
closed = 1;
nodes = (
"388 -10 OFFCURVE",
"488 78 OFFCURVE",
"510 213 CURVE SMOOTH",
"524 302 OFFCURVE",
"499 403 OFFCURVE",
"433 517 CURVE SMOOTH",
"379 610 LINE",
"524 673 LINE",
"530 717 LINE",
"360 644 LINE",
"314 730 LINE",
"264 730 LINE",
"323 628 LINE",
"161 557 LINE",
"155 513 LINE",
"342 594 LINE",
"398 491 LINE SMOOTH",
"437 419 OFFCURVE",
"453 366 OFFCURVE",
"456 347 CURVE",
"453 347 LINE",
"437 385 OFFCURVE",
"388 436 OFFCURVE",
"315 436 CURVE SMOOTH",
"186 436 OFFCURVE",
"91 350 OFFCURVE",
"70 215 CURVE SMOOTH",
"49 79 OFFCURVE",
"121 -10 OFFCURVE",
"254 -10 CURVE SMOOTH"
);
},
{
closed = 1;
nodes = (
"161 40 OFFCURVE",
"108 108 OFFCURVE",
"125 215 CURVE SMOOTH",
"142 322 OFFCURVE",
"217 390 OFFCURVE",
"318 390 CURVE SMOOTH",
"413 390 OFFCURVE",
"471 318 OFFCURVE",
"455 216 CURVE SMOOTH",
"438 109 OFFCURVE",
"362 40 OFFCURVE",
"262 40 CURVE SMOOTH"
);
}
);
width = 600;
}
);
unicode = 00F0;
},
{
glyphname = dcaron;
layers = (
{
components = (
{
name = caroncomb.alt;
transform = "{1, 0, 0, 1, 665, 0}";
}
);
layerId = "9ADF6715-3D0F-493D-8567-18A6FBCFC567";
paths = (
{
closed = 1;
nodes = (
"240 -10 OFFCURVE",
"294 45 OFFCURVE",
"309 140 CURVE",
"267 105 LINE",
"302 105 LINE",
"285 0 LINE",
"420 0 LINE",
"536 730 LINE",
"396 730 LINE",
"372 580 LINE",
"355 445 LINE",
"320 445 LINE",
"352 410 LINE",
"367 502 OFFCURVE",
"325 560 OFFCURVE",
"248 560 CURVE SMOOTH",
"144 560 OFFCURVE",
"73 484 OFFCURVE",
"52 351 CURVE SMOOTH",
"28 200 LINE SMOOTH",
"7 71 OFFCURVE",
"59 -10 OFFCURVE",
"159 -10 CURVE SMOOTH"
);
},
{
closed = 1;
nodes = (
"182 110 OFFCURVE",
"158 145 OFFCURVE",
"168 205 CURVE SMOOTH",
"191 346 LINE SMOOTH",
"201 405 OFFCURVE",
"235 440 OFFCURVE",
"283 440 CURVE SMOOTH",
"325 440 OFFCURVE",
"345 405 OFFCURVE",
"335 346 CURVE SMOOTH",
"312 205 LINE SMOOTH",
"302 145 OFFCURVE",
"272 110 OFFCURVE",
"230 110 CURVE SMOOTH"
);
}
);
width = 600;
},
{
components = (
{
name = caroncomb.alt;
transform = "{1, 0, 0, 1, 665, 0}";
}
);
layerId = "CCC0BD40-BA8C-414E-B576-CF0B94E6C996";
paths = (
{
closed = 1;
nodes = (
"270 -10 OFFCURVE",
"328 40 OFFCURVE",
"341 126 CURVE",
"318 105 LINE",
"336 105 LINE",
"319 0 LINE",
"409 0 LINE",
"525 730 LINE",
"435 730 LINE",
"409 570 LINE",
"391 445 LINE",
"371 445 LINE",
"388 424 LINE",
"401 507 OFFCURVE",
"356 560 OFFCURVE",
"273 560 CURVE SMOOTH",
"167 560 OFFCURVE",
"96 487 OFFCURVE",
"76 360 CURVE SMOOTH",
"49 189 LINE SMOOTH",
"30 67 OFFCURVE",
"81 -10 OFFCURVE",
"182 -10 CURVE SMOOTH"
);
},
{
closed = 1;
nodes = (
"159 68 OFFCURVE",
"127 115 OFFCURVE",
"140 195 CURVE SMOOTH",
"165 355 LINE SMOOTH",
"178 435 OFFCURVE",
"224 482 OFFCURVE",
"290 482 CURVE SMOOTH",
"356 482 OFFCURVE",
"388 435 OFFCURVE",
"375 355 CURVE SMOOTH",
"350 195 LINE SMOOTH",
"337 115 OFFCURVE",
"291 68 OFFCURVE",
"225 68 CURVE SMOOTH"
);
}
);
width = 600;
},
{
components = (
{
name = caroncomb.alt;
transform = "{1, 0, 0, 1, 670, 0}";
}
);
layerId = "EDF5EB54-295C-4C90-9A2F-67CD82979CFF";
paths = (
{
closed = 1;
nodes = (
"314 -10 OFFCURVE",
"378 45 OFFCURVE",
"393 140 CURVE",
"361 95 LINE",
"376 95 LINE",
"361 0 LINE",
"411 0 LINE",
"527 730 LINE",
"477 730 LINE",
"453 580 LINE",
"433 455 LINE",
"419 455 LINE",
"436 410 LINE",
"451 502 OFFCURVE",
"401 560 OFFCURVE",
"307 560 CURVE SMOOTH",
"197 560 OFFCURVE",
"123 487 OFFCURVE",
"103 360 CURVE SMOOTH",
"76 189 LINE SMOOTH",
"57 67 OFFCURVE",
"111 -10 OFFCURVE",
"216 -10 CURVE SMOOTH"
);
},
{
closed = 1;
nodes = (
"152 33 OFFCURVE",
"111 93 OFFCURVE",
"126 189 CURVE SMOOTH",
"153 360 LINE SMOOTH",
"168 456 OFFCURVE",
"229 517 OFFCURVE",
"310 517 CURVE SMOOTH",
"392 517 OFFCURVE",
"433 456 OFFCURVE",
"418 360 CURVE SMOOTH",
"391 189 LINE SMOOTH",
"376 93 OFFCURVE",
"315 33 OFFCURVE",
"233 33 CURVE SMOOTH"
);
}
);
width = 600;
}
);
unicode = 010F;
},
{
glyphname = dcroat;
layers = (
{
layerId = "9ADF6715-3D0F-493D-8567-18A6FBCFC567";
paths = (
{
closed = 1;
nodes = (
"28 73 OFFCURVE",
"86 -10 OFFCURVE",
"197 -10 CURVE SMOOTH",
"276 -10 OFFCURVE",
"335 32 OFFCURVE",
"359 105 CURVE",
"362 105 LINE",
"345 0 LINE",
"490 0 LINE",
"578 555 LINE",
"644 555 LINE",
"658 645 LINE",
"592 645 LINE",
"606 730 LINE",
"456 730 LINE",
"442 645 LINE",
"298 645 LINE",
"284 555 LINE",
"428 555 LINE",
"422 520 LINE",
"406 385 LINE",
"403 385 LINE",
"403 458 OFFCURVE",
"357 500 OFFCURVE",
"278 500 CURVE SMOOTH",
"167 500 OFFCURVE",
"82 416 OFFCURVE",
"61 285 CURVE SMOOTH",
"48 205 LINE SMOOTH"
);
},
{
closed = 1;
nodes = (
"210 280 LINE SMOOTH",
"219 337 OFFCURVE",
"256 370 OFFCURVE",
"312 370 CURVE SMOOTH",
"367 370 OFFCURVE",
"393 337 OFFCURVE",
"384 280 CURVE SMOOTH",
"373 210 LINE SMOOTH",
"364 152 OFFCURVE",
"327 120 OFFCURVE",
"272 120 CURVE SMOOTH",
"216 120 OFFCURVE",
"190 152 OFFCURVE",
"199 210 CURVE SMOOTH"
);
}
);
width = 600;
},
{
layerId = "CCC0BD40-BA8C-414E-B576-CF0B94E6C996";
paths = (
{
closed = 1;
nodes = (
"57 68 OFFCURVE",
"112 -10 OFFCURVE",
"222 -10 CURVE SMOOTH",
"306 -10 OFFCURVE",
"367 33 OFFCURVE",
"387 105 CURVE",
"389 105 LINE",
"372 0 LINE",
"462 0 LINE",
"552 570 LINE",
"646 570 LINE",
"658 645 LINE",
"564 645 LINE",
"578 730 LINE",
"488 730 LINE",
"474 645 LINE",
"308 645 LINE",
"296 570 LINE",
"462 570 LINE",
"453 510 LINE",
"435 385 LINE",
"432 385 LINE",
"434 456 OFFCURVE",
"385 500 OFFCURVE",
"303 500 CURVE SMOOTH",
"192 500 OFFCURVE",
"113 422 OFFCURVE",
"93 295 CURVE SMOOTH",
"77 194 LINE SMOOTH"
);
},
{
closed = 1;
nodes = (
"182 290 LINE SMOOTH",
"195 375 OFFCURVE",
"245 422 OFFCURVE",
"321 422 CURVE SMOOTH",
"395 422 OFFCURVE",
"431 373 OFFCURVE",
"418 290 CURVE SMOOTH",
"404 200 LINE SMOOTH",
"391 117 OFFCURVE",
"339 68 OFFCURVE",
"265 68 CURVE SMOOTH",
"189 68 OFFCURVE",
"154 115 OFFCURVE",
"168 200 CURVE SMOOTH"
);
}
);
width = 600;
},
{
layerId = "EDF5EB54-295C-4C90-9A2F-67CD82979CFF";
paths = (
{
closed = 1;
nodes = (
"72 69 OFFCURVE",
"131 -10 OFFCURVE",
"241 -10 CURVE SMOOTH",
"312 -10 OFFCURVE",
"372 22 OFFCURVE",
"404 75 CURVE",
"408 75 LINE",
"396 0 LINE",
"446 0 LINE",
"539 586 LINE",
"639 586 LINE",
"646 631 LINE",
"546 631 LINE",
"562 730 LINE",
"512 730 LINE",
"496 631 LINE",
"316 631 LINE",
"309 586 LINE",
"489 586 LINE",
"478 520 LINE",
"462 415 LINE",
"458 415 LINE",
"443 468 OFFCURVE",
"393 500 OFFCURVE",
"322 500 CURVE SMOOTH",
"212 500 OFFCURVE",
"128 420 OFFCURVE",
"109 300 CURVE SMOOTH",
"91 189 LINE SMOOTH"
);
},
{
closed = 1;
nodes = (
"159 300 LINE SMOOTH",
"174 398 OFFCURVE",
"236 457 OFFCURVE",
"325 457 CURVE SMOOTH",
"416 457 OFFCURVE",
"459 398 OFFCURVE",
"444 300 CURVE SMOOTH",
"426 189 LINE SMOOTH",
"410 91 OFFCURVE",
"348 33 OFFCURVE",
"258 33 CURVE SMOOTH",
"169 33 OFFCURVE",
"125 91 OFFCURVE",
"141 189 CURVE SMOOTH"
);
}
);
width = 600;
}
);
unicode = 0111;
},
{
glyphname = e;
layers = (
{
anchors = (
{
name = bottom;
position = "{256, 0}";
},
{
name = ogonek;
position = "{311, 0}";
},
{
name = top;
position = "{343, 550}";
}
);
layerId = "EDF5EB54-295C-4C90-9A2F-67CD82979CFF";
paths = (
{
closed = 1;
nodes = (
"359 -10 OFFCURVE",
"437 43 OFFCURVE",
"468 135 CURVE",
"418 135 LINE",
"397 72 OFFCURVE",
"336 34 OFFCURVE",
"262 34 CURVE SMOOTH",
"167 34 OFFCURVE",
"125 92 OFFCURVE",
"141 190 CURVE SMOOTH",
"153 265 LINE",
"367 265 LINE SMOOTH",
"449 265 OFFCURVE",
"500 306 OFFCURVE",
"512 384 CURVE SMOOTH",
"527 479 OFFCURVE",
"465 560 OFFCURVE",
"346 560 CURVE SMOOTH",
"220 560 OFFCURVE",
"138 487 OFFCURVE",
"118 360 CURVE SMOOTH",
"91 190 LINE SMOOTH",
"72 72 OFFCURVE",
"132 -10 OFFCURVE",
"255 -10 CURVE SMOOTH"
);
},
{
closed = 1;
nodes = (
"168 360 LINE SMOOTH",
"183 457 OFFCURVE",
"245 516 OFFCURVE",
"339 516 CURVE SMOOTH",
"431 516 OFFCURVE",
"474 456 OFFCURVE",
"462 384 CURVE SMOOTH",
"454 334 OFFCURVE",
"425 308 OFFCURVE",
"375 308 CURVE SMOOTH",
"160 308 LINE"
);
}
);
width = 600;
},
{
anchors = (
{
name = bottom;
position = "{256, 0}";
},
{
name = ogonek;
position = "{306, 0}";
},
{
name = top;
position = "{343, 550}";
}
);
layerId = "CCC0BD40-BA8C-414E-B576-CF0B94E6C996";
paths = (
{
closed = 1;
nodes = (
"377 -10 OFFCURVE",
"463 45 OFFCURVE",
"490 140 CURVE",
"400 140 LINE",
"384 96 OFFCURVE",
"334 68 OFFCURVE",
"267 68 CURVE SMOOTH",
"189 68 OFFCURVE",
"147 119 OFFCURVE",
"160 200 CURVE SMOOTH",
"168 250 LINE",
"370 250 LINE SMOOTH",
"460 250 OFFCURVE",
"519 295 OFFCURVE",
"533 382 CURVE SMOOTH",
"549 486 OFFCURVE",
"470 560 OFFCURVE",
"345 560 CURVE SMOOTH",
"208 560 OFFCURVE",
"116 480 OFFCURVE",
"94 340 CURVE SMOOTH",
"73 210 LINE SMOOTH",
"51 73 OFFCURVE",
"124 -10 OFFCURVE",
"254 -10 CURVE SMOOTH"
);
},
{
closed = 1;
nodes = (
"183 350 LINE SMOOTH",
"196 437 OFFCURVE",
"252 486 OFFCURVE",
"333 486 CURVE SMOOTH",
"407 486 OFFCURVE",
"452 444 OFFCURVE",
"442 382 CURVE SMOOTH",
"435 339 OFFCURVE",
"412 322 OFFCURVE",
"380 322 CURVE SMOOTH",
"179 322 LINE"
);
}
);
width = 600;
},
{
anchors = (
{
name = bottom;
position = "{256, 0}";
},
{
name = ogonek;
position = "{301, 0}";
},
{
name = top;
position = "{343, 550}";
}
);
layerId = "9ADF6715-3D0F-493D-8567-18A6FBCFC567";
paths = (
{
closed = 1;
nodes = (
"380 -10 OFFCURVE",
"474 48 OFFCURVE",
"512 150 CURVE",
"365 150 LINE",
"354 123 OFFCURVE",
"316 110 OFFCURVE",
"274 110 CURVE SMOOTH",
"209 110 OFFCURVE",
"178 141 OFFCURVE",
"192 210 CURVE SMOOTH",
"197 234 LINE",
"385 234 LINE SMOOTH",
"480 234 OFFCURVE",
"544 285 OFFCURVE",
"557 373 CURVE SMOOTH",
"574 485 OFFCURVE",
"488 560 OFFCURVE",
"346 560 CURVE SMOOTH",
"194 560 OFFCURVE",
"94 480 OFFCURVE",
"70 340 CURVE SMOOTH",
"49 210 LINE SMOOTH",
"27 81 OFFCURVE",
"111 -10 OFFCURVE",
"255 -10 CURVE SMOOTH"
);
},
{
closed = 1;
nodes = (
"213 340 LINE SMOOTH",
"224 408 OFFCURVE",
"262 449 OFFCURVE",
"328 449 CURVE SMOOTH",
"382 449 OFFCURVE",
"415 417 OFFCURVE",
"407 371 CURVE SMOOTH",
"402 339 OFFCURVE",
"386 329 OFFCURVE",
"364 329 CURVE SMOOTH",
"211 327 LINE"
);
}
);
width = 600;
}
);
unicode = 0065;
},
{
glyphname = eogonek;
layers = (
{
anchors = (
{
name = top;
position = "{343, 550}";
}
);
layerId = "9ADF6715-3D0F-493D-8567-18A6FBCFC567";
paths = (
{
closed = 1;
nodes = (
"388 -225 LINE",
"405 -120 LINE",
"336 -120 LINE SMOOTH",
"307 -120 OFFCURVE",
"293 -103 OFFCURVE",
"296 -83 CURVE SMOOTH",
"299 -66 OFFCURVE",
"317 -42 OFFCURVE",
"347 -18 CURVE SMOOTH",
"406 29 LINE",
"454 58 OFFCURVE",
"494 99 OFFCURVE",
"515 150 CURVE",
"368 150 LINE",
"354 122 OFFCURVE",
"323 105 OFFCURVE",
"276 105 CURVE SMOOTH",
"209 105 OFFCURVE",
"181 141 OFFCURVE",
"192 210 CURVE SMOOTH",
"197 240 LINE",
"534 240 LINE",
"550 340 LINE SMOOTH",
"571 472 OFFCURVE",
"492 560 OFFCURVE",
"346 560 CURVE SMOOTH",
"199 560 OFFCURVE",
"91 472 OFFCURVE",
"70 340 CURVE SMOOTH",
"49 210 LINE SMOOTH",
"28 78 OFFCURVE",
"108 -10 OFFCURVE",
"255 -10 CURVE SMOOTH",
"290 -10 OFFCURVE",
"316 9 OFFCURVE",
"320 29 CURVE",
"225 -19 OFFCURVE",
"174 -68 OFFCURVE",
"167 -115 CURVE SMOOTH",
"156 -180 OFFCURVE",
"199 -225 OFFCURVE",
"280 -225 CURVE SMOOTH"
);
},
{
closed = 1;
nodes = (
"415 327 LINE",
"210 325 LINE",
"213 340 LINE SMOOTH",
"224 408 OFFCURVE",
"262 447 OFFCURVE",
"328 447 CURVE SMOOTH",
"393 447 OFFCURVE",
"418 410 OFFCURVE",
"407 342 CURVE SMOOTH",
"403 317 LINE"
);
}
);
width = 600;
},
{
anchors = (
{
name = top;
position = "{343, 550}";
}
);
layerId = "CCC0BD40-BA8C-414E-B576-CF0B94E6C996";
paths = (
{
closed = 1;
nodes = (
"375 -203 LINE",
"384 -143 LINE",
"324 -143 LINE SMOOTH",
"290 -143 OFFCURVE",
"273 -122 OFFCURVE",
"277 -93 CURVE SMOOTH",
"282 -65 OFFCURVE",
"305 -36 OFFCURVE",
"356 1 CURVE SMOOTH",
"374 14 LINE",
"430 39 OFFCURVE",
"472 83 OFFCURVE",
"488 140 CURVE",
"398 140 LINE",
"380 91 OFFCURVE",
"335 66 OFFCURVE",
"266 66 CURVE SMOOTH",
"184 66 OFFCURVE",
"150 113 OFFCURVE",
"164 200 CURVE SMOOTH",
"172 253 LINE",
"508 253 LINE",
"523 350 LINE SMOOTH",
"544 477 OFFCURVE",
"475 560 OFFCURVE",
"345 560 CURVE SMOOTH",
"215 560 OFFCURVE",
"120 477 OFFCURVE",
"99 350 CURVE SMOOTH",
"76 200 LINE SMOOTH",
"56 73 OFFCURVE",
"124 -10 OFFCURVE",
"254 -10 CURVE SMOOTH",
"257 -10 OFFCURVE",
"261 -10 OFFCURVE",
"264 -10 CURVE",
"220 -45 OFFCURVE",
"194 -80 OFFCURVE",
"190 -110 CURVE SMOOTH",
"181 -164 OFFCURVE",
"223 -203 OFFCURVE",
"297 -203 CURVE SMOOTH"
);
},
{
closed = 1;
nodes = (
"471 321 LINE",
"183 321 LINE",
"187 350 LINE SMOOTH",
"201 437 OFFCURVE",
"251 485 OFFCURVE",
"333 485 CURVE SMOOTH",
"415 485 OFFCURVE",
"449 437 OFFCURVE",
"435 350 CURVE SMOOTH",
"425 281 LINE"
);
}
);
width = 600;
},
{
anchors = (
{
name = top;
position = "{343, 550}";
}
);
layerId = "EDF5EB54-295C-4C90-9A2F-67CD82979CFF";
paths = (
{
closed = 1;
nodes = (
"374 -195 LINE",
"381 -153 LINE",
"317 -153 LINE SMOOTH",
"285 -153 OFFCURVE",
"269 -134 OFFCURVE",
"274 -103 CURVE SMOOTH",
"278 -75 OFFCURVE",
"307 -36 OFFCURVE",
"351 0 CURVE SMOOTH",
"382 24 LINE",
"423 50 OFFCURVE",
"453 88 OFFCURVE",
"471 135 CURVE",
"421 135 LINE",
"392 72 OFFCURVE",
"336 34 OFFCURVE",
"262 34 CURVE SMOOTH",
"169 34 OFFCURVE",
"126 94 OFFCURVE",
"141 190 CURVE SMOOTH",
"153 265 LINE",
"493 265 LINE",
"508 360 LINE SMOOTH",
"527 481 OFFCURVE",
"467 560 OFFCURVE",
"346 560 CURVE SMOOTH",
"224 560 OFFCURVE",
"137 481 OFFCURVE",
"118 360 CURVE SMOOTH",
"91 190 LINE SMOOTH",
"72 68 OFFCURVE",
"132 -10 OFFCURVE",
"255 -10 CURVE SMOOTH",
"272 -10 OFFCURVE",
"290 -8 OFFCURVE",
"305 -5 CURVE",
"253 -48 OFFCURVE",
"230 -84 OFFCURVE",
"225 -115 CURVE SMOOTH",
"217 -165 OFFCURVE",
"246 -195 OFFCURVE",
"301 -195 CURVE SMOOTH"
);
},
{
closed = 1;
nodes = (
"472 308 LINE",
"160 308 LINE",
"168 360 LINE SMOOTH",
"183 457 OFFCURVE",
"245 516 OFFCURVE",
"339 516 CURVE SMOOTH",
"431 516 OFFCURVE",
"473 456 OFFCURVE",
"458 360 CURVE SMOOTH",
"446 286 LINE"
);
}
);
width = 600;
}
);
unicode = 0119;
},
{
glyphname = schwa;
layers = (
{
layerId = "9ADF6715-3D0F-493D-8567-18A6FBCFC567";
paths = (
{
closed = 1;
nodes = (
"400 -10 OFFCURVE",
"508 78 OFFCURVE",
"529 210 CURVE SMOOTH",
"550 340 LINE SMOOTH",
"571 472 OFFCURVE",
"491 560 OFFCURVE",
"344 560 CURVE SMOOTH",
"225 560 OFFCURVE",
"124 496 OFFCURVE",
"84 400 CURVE",
"231 400 LINE",
"245 428 OFFCURVE",
"276 445 OFFCURVE",
"323 445 CURVE SMOOTH",
"390 445 OFFCURVE",
"418 409 OFFCURVE",
"407 340 CURVE SMOOTH",
"402 310 LINE",
"65 310 LINE",
"49 210 LINE SMOOTH",
"28 78 OFFCURVE",
"107 -10 OFFCURVE",
"253 -10 CURVE SMOOTH"
);
},
{
closed = 1;
nodes = (
"207 105 OFFCURVE",
"181 142 OFFCURVE",
"192 210 CURVE SMOOTH",
"196 235 LINE",
"185 225 LINE",
"389 225 LINE",
"386 210 LINE SMOOTH",
"375 142 OFFCURVE",
"338 105 OFFCURVE",
"272 105 CURVE SMOOTH"
);
}
);
width = 600;
},
{
layerId = "CCC0BD40-BA8C-414E-B576-CF0B94E6C996";
paths = (
{
closed = 1;
nodes = (
"384 -10 OFFCURVE",
"478 73 OFFCURVE",
"498 200 CURVE SMOOTH",
"521 350 LINE SMOOTH",
"542 477 OFFCURVE",
"475 560 OFFCURVE",
"345 560 CURVE SMOOTH",
"229 560 OFFCURVE",
"140 502 OFFCURVE",
"113 410 CURVE",
"203 410 LINE",
"221 459 OFFCURVE",
"264 484 OFFCURVE",
"333 484 CURVE SMOOTH",
"415 484 OFFCURVE",
"447 437 OFFCURVE",
"433 350 CURVE SMOOTH",
"425 297 LINE",
"93 297 LINE",
"78 200 LINE SMOOTH",
"58 73 OFFCURVE",
"124 -10 OFFCURVE",
"254 -10 CURVE SMOOTH"
);
},
{
closed = 1;
nodes = (
"184 65 OFFCURVE",
"152 113 OFFCURVE",
"166 200 CURVE SMOOTH",
"172 237 LINE",
"163 229 LINE",
"414 229 LINE",
"410 200 LINE SMOOTH",
"396 113 OFFCURVE",
"348 65 OFFCURVE",
"266 65 CURVE SMOOTH"
);
}
);
width = 600;
},
{
layerId = "EDF5EB54-295C-4C90-9A2F-67CD82979CFF";
paths = (
{
closed = 1;
nodes = (
"375 -10 OFFCURVE",
"462 69 OFFCURVE",
"481 190 CURVE SMOOTH",
"508 360 LINE SMOOTH",
"527 482 OFFCURVE",
"467 560 OFFCURVE",
"344 560 CURVE SMOOTH",
"241 560 OFFCURVE",
"162 504 OFFCURVE",
"128 415 CURVE",
"178 415 LINE",
"207 478 OFFCURVE",
"263 516 OFFCURVE",
"337 516 CURVE SMOOTH",
"430 516 OFFCURVE",
"473 456 OFFCURVE",
"458 360 CURVE SMOOTH",
"446 285 LINE",
"106 285 LINE",
"91 190 LINE SMOOTH",
"72 69 OFFCURVE",
"132 -10 OFFCURVE",
"253 -10 CURVE SMOOTH"
);
},
{
closed = 1;
nodes = (
"168 34 OFFCURVE",
"126 94 OFFCURVE",
"141 190 CURVE SMOOTH",
"151 251 LINE",
"138 242 LINE",
"439 242 LINE",
"431 190 LINE SMOOTH",
"416 93 OFFCURVE",
"354 34 OFFCURVE",
"260 34 CURVE SMOOTH"
);
}
);
width = 600;
}
);
unicode = 0259;
},
{
glyphname = f;
layers = (
{
anchors = (
{
name = bottom;
position = "{256, 0}";
},
{
name = top;
position = "{372, 730}";
}
);
layerId = "CCC0BD40-BA8C-414E-B576-CF0B94E6C996";
paths = (
{
closed = 1;
nodes = (
"73 -180 LINE SMOOTH",
"181 -180 OFFCURVE",
"255 -119 OFFCURVE",
"271 -20 CURVE SMOOTH",
"332 353 LINE",
"546 353 LINE",
"559 435 LINE",
"345 435 LINE",
"367 570 LINE SMOOTH",
"376 623 OFFCURVE",
"405 648 OFFCURVE",
"461 648 CURVE SMOOTH",
"587 648 LINE",
"600 730 LINE",
"475 730 LINE SMOOTH",
"367 730 OFFCURVE",
"293 669 OFFCURVE",
"277 570 CURVE SMOOTH",
"255 435 LINE",
"84 435 LINE",
"71 353 LINE",
"242 353 LINE",
"181 -20 LINE SMOOTH",
"172 -73 OFFCURVE",
"143 -98 OFFCURVE",
"87 -98 CURVE SMOOTH",
"13 -98 LINE",
"0 -180 LINE"
);
}
);
width = 600;
},
{
anchors = (
{
name = bottom;
position = "{256, 0}";
},
{
name = top;
position = "{372, 730}";
}
);
layerId = "EDF5EB54-295C-4C90-9A2F-67CD82979CFF";
paths = (
{
closed = 1;
nodes = (
"98 -180 LINE SMOOTH",
"179 -180 OFFCURVE",
"235 -133 OFFCURVE",
"248 -55 CURVE SMOOTH",
"321 389 LINE",
"540 389 LINE",
"547 434 LINE",
"328 434 LINE",
"356 605 LINE SMOOTH",
"365 656 OFFCURVE",
"397 685 OFFCURVE",
"448 685 CURVE SMOOTH",
"587 685 LINE",
"595 730 LINE",
"456 730 LINE SMOOTH",
"375 730 OFFCURVE",
"319 683 OFFCURVE",
"306 605 CURVE SMOOTH",
"278 434 LINE",
"94 434 LINE",
"87 389 LINE",
"271 389 LINE",
"198 -55 LINE SMOOTH",
"189 -106 OFFCURVE",
"157 -135 OFFCURVE",
"106 -135 CURVE SMOOTH",
"8 -135 LINE",
"0 -180 LINE"
);
}
);
width = 600;
},
{
anchors = (
{
name = bottom;
position = "{256, 0}";
},
{
name = top;
position = "{372, 730}";
}
);
layerId = "9ADF6715-3D0F-493D-8567-18A6FBCFC567";
paths = (
{
closed = 1;
nodes = (
"48 -180 LINE SMOOTH",
"189 -180 OFFCURVE",
"288 -106 OFFCURVE",
"308 14 CURVE SMOOTH",
"354 300 LINE",
"549 300 LINE",
"571 435 LINE",
"376 435 LINE",
"395 555 LINE SMOOTH",
"400 582 OFFCURVE",
"420 600 OFFCURVE",
"447 600 CURVE SMOOTH",
"579 600 LINE",
"600 730 LINE",
"463 730 LINE SMOOTH",
"349 730 OFFCURVE",
"262 662 OFFCURVE",
"246 560 CURVE SMOOTH",
"226 435 LINE",
"74 435 LINE",
"52 300 LINE",
"204 300 LINE",
"159 19 LINE SMOOTH",
"152 -31 OFFCURVE",
"115 -60 OFFCURVE",
"62 -60 CURVE SMOOTH",
"19 -60 LINE",
"0 -180 LINE"
);
}
);
width = 600;
}
);
unicode = 0066;
},
{
glyphname = g;
layers = (
{
anchors = (
{
name = bottom;
position = "{213, -270}";
},
{
name = top;
position = "{340, 550}";
}
);
layerId = "EDF5EB54-295C-4C90-9A2F-67CD82979CFF";
paths = (
{
closed = 1;
nodes = (
"246 -180 LINE SMOOTH",
"358 -180 OFFCURVE",
"426 -124 OFFCURVE",
"444 -15 CURVE SMOOTH",
"533 550 LINE",
"483 550 LINE",
"468 455 LINE",
"455 455 LINE",
"468 410 LINE",
"482 501 OFFCURVE",
"428 560 OFFCURVE",
"332 560 CURVE SMOOTH",
"219 560 OFFCURVE",
"137 483 OFFCURVE",
"118 360 CURVE SMOOTH",
"99 239 LINE SMOOTH",
"80 119 OFFCURVE",
"139 40 OFFCURVE",
"249 40 CURVE SMOOTH",
"345 40 OFFCURVE",
"419 99 OFFCURVE",
"433 190 CURVE",
"401 145 LINE",
"419 145 LINE",
"401 30 LINE",
"394 -15 LINE SMOOTH",
"381 -94 OFFCURVE",
"333 -135 OFFCURVE",
"254 -135 CURVE SMOOTH",
"109 -135 LINE",
"101 -180 LINE"
);
},
{
closed = 1;
nodes = (
"177 83 OFFCURVE",
"133 141 OFFCURVE",
"149 239 CURVE SMOOTH",
"168 360 LINE SMOOTH",
"184 458 OFFCURVE",
"246 517 OFFCURVE",
"335 517 CURVE SMOOTH",
"426 517 OFFCURVE",
"469 458 OFFCURVE",
"453 360 CURVE SMOOTH",
"434 239 LINE SMOOTH",
"418 141 OFFCURVE",
"356 83 OFFCURVE",
"266 83 CURVE SMOOTH"
);
}
);
width = 600;
},
{
anchors = (
{
name = bottom;
position = "{213, -270}";
},
{
name = top;
position = "{340, 550}";
}
);
layerId = "9ADF6715-3D0F-493D-8567-18A6FBCFC567";
paths = (
{
closed = 1;
nodes = (
"232 -180 LINE SMOOTH",
"373 -180 OFFCURVE",
"473 -106 OFFCURVE",
"492 14 CURVE SMOOTH",
"577 550 LINE",
"432 550 LINE",
"417 455 LINE",
"382 455 LINE",
"422 360 LINE",
"442 484 OFFCURVE",
"391 560 OFFCURVE",
"288 560 CURVE SMOOTH",
"177 560 OFFCURVE",
"92 476 OFFCURVE",
"71 345 CURVE SMOOTH",
"55 245 LINE SMOOTH",
"34 113 OFFCURVE",
"93 30 OFFCURVE",
"204 30 CURVE SMOOTH",
"310 30 OFFCURVE",
"382 103 OFFCURVE",
"401 230 CURVE",
"336 165 LINE",
"371 165 LINE",
"349 40 LINE",
"346 19 LINE SMOOTH",
"339 -31 OFFCURVE",
"302 -60 OFFCURVE",
"246 -60 CURVE SMOOTH",
"91 -60 LINE",
"72 -180 LINE"
);
},
{
closed = 1;
nodes = (
"222 160 OFFCURVE",
"197 192 OFFCURVE",
"206 250 CURVE SMOOTH",
"220 340 LINE SMOOTH",
"229 397 OFFCURVE",
"265 430 OFFCURVE",
"321 430 CURVE SMOOTH",
"376 430 OFFCURVE",
"403 397 OFFCURVE",
"394 340 CURVE SMOOTH",
"380 250 LINE SMOOTH",
"371 192 OFFCURVE",
"333 160 OFFCURVE",
"278 160 CURVE SMOOTH"
);
}
);
width = 600;
},
{
anchors = (
{
name = bottom;
position = "{213, -270}";
},
{
name = top;
position = "{340, 550}";
}
);
layerId = "CCC0BD40-BA8C-414E-B576-CF0B94E6C996";
paths = (
{
closed = 1;
nodes = (
"242 -180 LINE SMOOTH",
"360 -180 OFFCURVE",
"445 -111 OFFCURVE",
"463 0 CURVE SMOOTH",
"550 550 LINE",
"461 550 LINE",
"446 455 LINE",
"429 455 LINE",
"442 430 LINE",
"455 510 OFFCURVE",
"405 560 OFFCURVE",
"316 560 CURVE SMOOTH",
"203 560 OFFCURVE",
"119 481 OFFCURVE",
"100 356 CURVE SMOOTH",
"82 240 LINE SMOOTH",
"62 114 OFFCURVE",
"120 38 OFFCURVE",
"233 38 CURVE SMOOTH",
"322 38 OFFCURVE",
"387 85 OFFCURVE",
"400 165 CURVE",
"379 140 LINE",
"397 140 LINE",
"381 50 LINE",
"373 0 LINE SMOOTH",
"363 -60 OFFCURVE",
"318 -98 OFFCURVE",
"256 -98 CURVE SMOOTH",
"101 -98 LINE",
"88 -180 LINE"
);
},
{
closed = 1;
nodes = (
"196 113 OFFCURVE",
"159 160 OFFCURVE",
"171 235 CURVE SMOOTH",
"191 360 LINE SMOOTH",
"203 435 OFFCURVE",
"254 482 OFFCURVE",
"330 482 CURVE SMOOTH",
"404 482 OFFCURVE",
"442 433 OFFCURVE",
"429 350 CURVE SMOOTH",
"413 245 LINE SMOOTH",
"400 162 OFFCURVE",
"346 113 OFFCURVE",
"272 113 CURVE SMOOTH"
);
}
);
width = 600;
}
);
unicode = 0067;
},
{
glyphname = h;
layers = (
{
anchors = (
{
name = bottom;
position = "{256, 0}";
},
{
name = center;
position = "{314, 365}";
},
{
name = top;
position = "{207, 730}";
}
);
layerId = "EDF5EB54-295C-4C90-9A2F-67CD82979CFF";
paths = (
{
closed = 1;
nodes = (
"116 0 LINE",
"173 360 LINE SMOOTH",
"188 457 OFFCURVE",
"253 517 OFFCURVE",
"341 517 CURVE SMOOTH",
"427 517 OFFCURVE",
"471 459 OFFCURVE",
"455 360 CURVE SMOOTH",
"398 0 LINE",
"448 0 LINE",
"506 367 LINE SMOOTH",
"525 485 OFFCURVE",
"466 560 OFFCURVE",
"358 560 CURVE SMOOTH",
"262 560 OFFCURVE",
"188 501 OFFCURVE",
"174 410 CURVE",
"206 460 LINE",
"189 460 LINE",
"208 580 LINE",
"232 730 LINE",
"182 730 LINE",
"66 0 LINE"
);
}
);
width = 600;
},
{
anchors = (
{
name = bottom;
position = "{256, 0}";
},
{
name = center;
position = "{314, 365}";
},
{
name = top;
position = "{206, 730}";
}
);
layerId = "9ADF6715-3D0F-493D-8567-18A6FBCFC567";
paths = (
{
closed = 1;
nodes = (
"172 0 LINE",
"226 340 LINE SMOOTH",
"235 397 OFFCURVE",
"272 430 OFFCURVE",
"325 430 CURVE SMOOTH",
"378 430 OFFCURVE",
"405 397 OFFCURVE",
"396 340 CURVE SMOOTH",
"342 0 LINE",
"492 0 LINE",
"548 355 LINE SMOOTH",
"568 479 OFFCURVE",
"511 560 OFFCURVE",
"404 560 CURVE SMOOTH",
"314 560 OFFCURVE",
"242 499 OFFCURVE",
"227 410 CURVE",
"281 445 LINE",
"237 445 LINE",
"259 550 LINE",
"288 730 LINE",
"138 730 LINE",
"22 0 LINE"
);
}
);
width = 600;
},
{
anchors = (
{
name = bottom;
position = "{256, 0}";
},
{
name = center;
position = "{314, 365}";
},
{
name = top;
position = "{207, 730}";
}
);
layerId = "CCC0BD40-BA8C-414E-B576-CF0B94E6C996";
paths = (
{
closed = 1;
nodes = (
"138 0 LINE",
"193 350 LINE SMOOTH",
"206 435 OFFCURVE",
"261 484 OFFCURVE",
"336 484 CURVE SMOOTH",
"408 484 OFFCURVE",
"445 438 OFFCURVE",
"432 355 CURVE SMOOTH",
"376 0 LINE",
"466 0 LINE",
"525 370 LINE SMOOTH",
"544 487 OFFCURVE",
"484 560 OFFCURVE",
"374 560 CURVE SMOOTH",
"282 560 OFFCURVE",
"219 510 OFFCURVE",
"205 424 CURVE",
"227 445 LINE",
"208 445 LINE",
"225 550 LINE",
"254 730 LINE",
"164 730 LINE",
"48 0 LINE"
);
}
);
width = 600;
}
);
unicode = 0068;
},
{
glyphname = idotless;
layers = (
{
anchors = (
{
name = bottom;
position = "{276, 0}";
},
{
name = ogonek;
position = "{290, 0}";
},
{
name = top;
position = "{363, 550}";
}
);
layerId = "9ADF6715-3D0F-493D-8567-18A6FBCFC567";
paths = (
{
closed = 1;
nodes = (
"516 0 LINE",
"538 136 LINE",
"378 136 LINE",
"443 550 LINE",
"138 550 LINE",
"117 415 LINE",
"282 415 LINE",
"238 136 LINE",
"48 136 LINE",
"26 0 LINE"
);
}
);
width = 600;
},
{
anchors = (
{
name = bottom;
position = "{271, 0}";
},
{
name = ogonek;
position = "{290, 0}";
},
{
name = top;
position = "{358, 550}";
}
);
layerId = "CCC0BD40-BA8C-414E-B576-CF0B94E6C996";
paths = (
{
closed = 1;
nodes = (
"506 0 LINE",
"519 82 LINE",
"334 82 LINE",
"408 550 LINE",
"148 550 LINE",
"135 468 LINE",
"305 468 LINE",
"244 82 LINE",
"49 82 LINE",
"36 0 LINE"
);
}
);
width = 600;
},
{
anchors = (
{
name = bottom;
position = "{271, 0}";
},
{
name = ogonek;
position = "{290, 0}";
},
{
name = top;
position = "{358, 550}";
}
);
layerId = "EDF5EB54-295C-4C90-9A2F-67CD82979CFF";
paths = (
{
closed = 1;
nodes = (
"491 0 LINE",
"498 45 LINE",
"309 45 LINE",
"389 550 LINE",
"163 550 LINE",
"156 505 LINE",
"332 505 LINE",
"259 45 LINE",
"58 45 LINE",
"51 0 LINE"
);
}
);
width = 600;
}
);
unicode = 0131;
},
{
glyphname = iogonek;
layers = (
{
components = (
{
name = idotless;
},
{
name = dotaccentcomb;
transform = "{1, 0, 0, 1, 614, 0}";
}
);
layerId = "EDF5EB54-295C-4C90-9A2F-67CD82979CFF";
paths = (
{
closed = 1;
nodes = (
"315 -195 LINE",
"322 -153 LINE",
"258 -153 LINE SMOOTH",
"226 -153 OFFCURVE",
"210 -134 OFFCURVE",
"215 -103 CURVE SMOOTH",
"219 -75 OFFCURVE",
"248 -36 OFFCURVE",
"292 0 CURVE SMOOTH",
"305 10 LINE",
"268 10 LINE",
"211 -27 OFFCURVE",
"172 -74 OFFCURVE",
"166 -115 CURVE SMOOTH",
"158 -165 OFFCURVE",
"187 -195 OFFCURVE",
"242 -195 CURVE"
);
}
);
width = 600;
},
{
components = (
{
name = idotless;
},
{
name = dotaccentcomb;
transform = "{1, 0, 0, 1, 615, 0}";
}
);
layerId = "CCC0BD40-BA8C-414E-B576-CF0B94E6C996";
paths = (
{
closed = 1;
nodes = (
"324 -203 LINE",
"333 -143 LINE",
"273 -143 LINE SMOOTH",
"239 -143 OFFCURVE",
"222 -122 OFFCURVE",
"226 -93 CURVE SMOOTH",
"231 -65 OFFCURVE",
"254 -36 OFFCURVE",
"305 1 CURVE",
"318 10 LINE",
"243 10 LINE",
"173 -34 OFFCURVE",
"145 -72 OFFCURVE",
"139 -110 CURVE SMOOTH",
"130 -164 OFFCURVE",
"172 -203 OFFCURVE",
"246 -203 CURVE SMOOTH"
);
}
);
width = 600;
},
{
components = (
{
name = idotless;
},
{
name = dotaccentcomb;
transform = "{1, 0, 0, 1, 620, 0}";
}
);
layerId = "9ADF6715-3D0F-493D-8567-18A6FBCFC567";
paths = (
{
closed = 1;
nodes = (
"344 -225 LINE",
"361 -120 LINE",
"292 -120 LINE SMOOTH",
"263 -120 OFFCURVE",
"249 -103 OFFCURVE",
"252 -83 CURVE SMOOTH",
"255 -66 OFFCURVE",
"273 -42 OFFCURVE",
"303 -18 CURVE SMOOTH",
"340 11 LINE",
"254 11 LINE",
"181 -19 OFFCURVE",
"130 -68 OFFCURVE",
"123 -115 CURVE SMOOTH",
"112 -180 OFFCURVE",
"155 -225 OFFCURVE",
"236 -225 CURVE SMOOTH"
);
}
);
width = 600;
}
);
unicode = 012F;
},
{
glyphname = jdotless;
layers = (
{
anchors = (
{
name = bottom;
position = "{213, -270}";
},
{
name = top;
position = "{433, 550}";
}
);
layerId = "9ADF6715-3D0F-493D-8567-18A6FBCFC567";
paths = (
{
closed = 1;
nodes = (
"173 -180 LINE SMOOTH",
"316 -180 OFFCURVE",
"410 -100 OFFCURVE",
"432 40 CURVE SMOOTH",
"513 550 LINE",
"113 550 LINE",
"92 415 LINE",
"342 415 LINE",
"283 45 LINE SMOOTH",
"275 -9 OFFCURVE",
"235 -45 OFFCURVE",
"184 -45 CURVE SMOOTH",
"24 -45 LINE",
"2 -180 LINE"
);
}
);
width = 600;
},
{
anchors = (
{
name = bottom;
position = "{208, -270}";
},
{
name = top;
position = "{423, 550}";
}
);
layerId = "CCC0BD40-BA8C-414E-B576-CF0B94E6C996";
paths = (
{
closed = 1;
nodes = (
"141 -180 LINE SMOOTH",
"281 -180 OFFCURVE",
"374 -103 OFFCURVE",
"396 31 CURVE SMOOTH",
"478 550 LINE",
"128 550 LINE",
"115 468 LINE",
"375 468 LINE",
"306 31 LINE SMOOTH",
"293 -51 OFFCURVE",
"237 -98 OFFCURVE",
"154 -98 CURVE SMOOTH",
"30 -98 LINE",
"17 -180 LINE"
);
}
);
width = 600;
},
{
anchors = (
{
name = bottom;
position = "{209, -270}";
},
{
name = top;
position = "{423, 550}";
}
);
layerId = "EDF5EB54-295C-4C90-9A2F-67CD82979CFF";
paths = (
{
closed = 1;
nodes = (
"153 -180 LINE SMOOTH",
"277 -180 OFFCURVE",
"359 -111 OFFCURVE",
"378 10 CURVE SMOOTH",
"463 550 LINE",
"148 550 LINE",
"141 505 LINE",
"406 505 LINE",
"328 10 LINE SMOOTH",
"313 -82 OFFCURVE",
"253 -135 OFFCURVE",
"161 -135 CURVE SMOOTH",
"45 -135 LINE",
"37 -180 LINE"
);
}
);
width = 600;
}
);
unicode = 0237;
},
{
glyphname = k;
layers = (
{
anchors = (
{
name = bottom;
position = "{256, 0}";
},
{
name = top;
position = "{372, 730}";
}
);
layerId = "EDF5EB54-295C-4C90-9A2F-67CD82979CFF";
paths = (
{
closed = 1;
nodes = (
"121 0 LINE",
"163 264 LINE",
"296 264 LINE",
"433 0 LINE",
"489 0 LINE",
"340 289 LINE",
"566 550 LINE",
"505 550 LINE",
"296 309 LINE",
"170 309 LINE",
"237 730 LINE",
"187 730 LINE",
"71 0 LINE"
);
}
);
width = 600;
},
{
anchors = (
{
name = bottom;
position = "{256, 0}";
},
{
name = top;
position = "{372, 730}";
}
);
layerId = "CCC0BD40-BA8C-414E-B576-CF0B94E6C996";
paths = (
{
closed = 1;
nodes = (
"143 0 LINE",
"182 245 LINE",
"293 245 LINE",
"414 0 LINE",
"515 0 LINE",
"372 288 LINE",
"592 550 LINE",
"485 550 LINE",
"295 323 LINE",
"194 323 LINE",
"259 730 LINE",
"169 730 LINE",
"53 0 LINE"
);
}
);
width = 600;
},
{
anchors = (
{
name = bottom;
position = "{256, 0}";
},
{
name = top;
position = "{372, 730}";
}
);
layerId = "9ADF6715-3D0F-493D-8567-18A6FBCFC567";
paths = (
{
closed = 1;
nodes = (
"177 0 LINE",
"211 216 LINE",
"291 216 LINE",
"372 0 LINE",
"536 0 LINE",
"425 281 LINE",
"620 550 LINE",
"451 550 LINE",
"303 342 LINE",
"231 342 LINE",
"293 730 LINE",
"143 730 LINE",
"27 0 LINE"
);
}
);
width = 600;
}
);
unicode = 006B;
},
{
glyphname = l;
layers = (
{
anchors = (
{
name = bottom;
position = "{276, 0}";
},
{
name = center;
position = "{314, 365}";
},
{
name = top;
position = "{302, 730}";
}
);
layerId = "EDF5EB54-295C-4C90-9A2F-67CD82979CFF";
paths = (
{
closed = 1;
nodes = (
"496 0 LINE",
"503 45 LINE",
"333 45 LINE SMOOTH",
"274 45 OFFCURVE",
"248 76 OFFCURVE",
"257 135 CURVE SMOOTH",
"352 730 LINE",
"122 730 LINE",
"114 685 LINE",
"294 685 LINE",
"207 135 LINE SMOOTH",
"194 48 OFFCURVE",
"236 0 OFFCURVE",
"326 0 CURVE SMOOTH"
);
}
);
width = 600;
},
{
anchors = (
{
name = bottom;
position = "{276, 0}";
},
{
name = center;
position = "{314, 365}";
},
{
name = top;
position = "{342, 730}";
}
);
layerId = "9ADF6715-3D0F-493D-8567-18A6FBCFC567";
paths = (
{
closed = 1;
nodes = (
"521 0 LINE",
"542 135 LINE",
"387 135 LINE SMOOTH",
"351 135 OFFCURVE",
"331 161 OFFCURVE",
"338 200 CURVE SMOOTH",
"422 730 LINE",
"97 730 LINE",
"75 595 LINE",
"250 595 LINE",
"187 195 LINE SMOOTH",
"168 78 OFFCURVE",
"234 0 OFFCURVE",
"351 0 CURVE SMOOTH"
);
}
);
width = 600;
},
{
anchors = (
{
name = bottom;
position = "{276, 0}";
},
{
name = center;
position = "{314, 365}";
},
{
name = top;
position = "{312, 730}";
}
);
layerId = "CCC0BD40-BA8C-414E-B576-CF0B94E6C996";
paths = (
{
closed = 1;
nodes = (
"506 0 LINE",
"519 82 LINE",
"349 82 LINE SMOOTH",
"306 82 OFFCURVE",
"283 110 OFFCURVE",
"291 155 CURVE SMOOTH",
"382 730 LINE",
"102 730 LINE",
"89 648 LINE",
"279 648 LINE",
"201 155 LINE SMOOTH",
"186 61 OFFCURVE",
"239 0 OFFCURVE",
"336 0 CURVE SMOOTH"
);
}
);
width = 600;
}
);
unicode = 006C;
},
{
glyphname = lambdastroke;
layers = (
{
components = (
{
name = lambda;
}
);
layerId = "EDF5EB54-295C-4C90-9A2F-67CD82979CFF";
paths = (
{
closed = 1;
nodes = (
"534 692 LINE",
"542 740 LINE",
"132 550 LINE",
"124 502 LINE"
);
}
);
width = 600;
},
{
components = (
{
name = lambda;
}
);
layerId = "CCC0BD40-BA8C-414E-B576-CF0B94E6C996";
paths = (
{
closed = 1;
nodes = (
"529 660 LINE",
"542 740 LINE",
"132 550 LINE",
"119 470 LINE"
);
}
);
width = 600;
},
{
components = (
{
name = lambda;
}
);
layerId = "9ADF6715-3D0F-493D-8567-18A6FBCFC567";
paths = (
{
closed = 1;
nodes = (
"525 635 LINE",
"542 740 LINE",
"132 550 LINE",
"115 445 LINE"
);
}
);
width = 600;
}
);
unicode = 019B;
},
{
glyphname = lslash;
layers = (
{
components = (
{
alignment = -1;
name = l;
}
);
layerId = "9ADF6715-3D0F-493D-8567-18A6FBCFC567";
paths = (
{
closed = 1;
nodes = (
"480 420 LINE",
"480 560 LINE",
"100 370 LINE",
"100 230 LINE"
);
}
);
width = 600;
},
{
components = (
{
alignment = -1;
name = l;
}
);
layerId = "CCC0BD40-BA8C-414E-B576-CF0B94E6C996";
paths = (
{
closed = 1;
nodes = (
"470 480 LINE",
"470 560 LINE",
"100 310 LINE",
"100 230 LINE"
);
}
);
width = 600;
},
{
components = (
{
alignment = -1;
name = l;
}
);
layerId = "EDF5EB54-295C-4C90-9A2F-67CD82979CFF";
paths = (
{
closed = 1;
nodes = (
"470 495 LINE",
"470 550 LINE",
"100 295 LINE",
"100 240 LINE"
);
}
);
width = 600;
}
);
unicode = 0142;
},
{
glyphname = m;
layers = (
{
anchors = (
{
name = bottom;
position = "{256, 0}";
},
{
name = top;
position = "{343, 550}";
}
);
layerId = "EDF5EB54-295C-4C90-9A2F-67CD82979CFF";
paths = (
{
closed = 1;
nodes = (
"80 0 LINE",
"147 425 LINE SMOOTH",
"156 482 OFFCURVE",
"192 518 OFFCURVE",
"239 518 CURVE SMOOTH",
"285 518 OFFCURVE",
"308 482 OFFCURVE",
"299 425 CURVE SMOOTH",
"232 0 LINE",
"280 0 LINE",
"347 425 LINE SMOOTH",
"356 482 OFFCURVE",
"392 518 OFFCURVE",
"439 518 CURVE SMOOTH",
"485 518 OFFCURVE",
"508 482 OFFCURVE",
"499 425 CURVE SMOOTH",
"432 0 LINE",
"481 0 LINE",
"549 431 LINE SMOOTH",
"562 510 OFFCURVE",
"528 560 OFFCURVE",
"461 560 CURVE SMOOTH",
"400 560 OFFCURVE",
"356 522 OFFCURVE",
"346 461 CURVE",
"357 475 LINE",
"344 475 LINE",
"351 461 LINE",
"353 522 OFFCURVE",
"318 560 OFFCURVE",
"261 560 CURVE SMOOTH",
"203 560 OFFCURVE",
"160 522 OFFCURVE",
"150 461 CURVE",
"156 475 LINE",
"150 475 LINE",
"162 550 LINE",
"118 550 LINE",
"31 0 LINE"
);
}
);
width = 600;
},
{
anchors = (
{
name = bottom;
position = "{256, 0}";
},
{
name = top;
position = "{343, 550}";
}
);
layerId = "9ADF6715-3D0F-493D-8567-18A6FBCFC567";
paths = (
{
closed = 1;
nodes = (
"123 0 LINE",
"187 403 LINE SMOOTH",
"192 434 OFFCURVE",
"207 451 OFFCURVE",
"232 451 CURVE SMOOTH",
"257 451 OFFCURVE",
"266 434 OFFCURVE",
"261 403 CURVE SMOOTH",
"197 0 LINE",
"315 0 LINE",
"379 403 LINE SMOOTH",
"384 434 OFFCURVE",
"397 451 OFFCURVE",
"422 451 CURVE SMOOTH",
"447 451 OFFCURVE",
"458 434 OFFCURVE",
"453 403 CURVE SMOOTH",
"389 0 LINE",
"518 0 LINE",
"585 420 LINE SMOOTH",
"598 502 OFFCURVE",
"556 560 OFFCURVE",
"491 560 CURVE SMOOTH",
"435 560 OFFCURVE",
"389 518 OFFCURVE",
"379 454 CURVE",
"391 465 LINE",
"363 465 LINE",
"380 440 LINE",
"391 510 OFFCURVE",
"356 560 OFFCURVE",
"300 560 CURVE SMOOTH",
"244 560 OFFCURVE",
"201 516 OFFCURVE",
"191 454 CURVE",
"212 465 LINE",
"191 465 LINE",
"204 550 LINE",
"81 550 LINE",
"-6 0 LINE"
);
}
);
width = 600;
},
{
anchors = (
{
name = bottom;
position = "{256, 0}";
},
{
name = top;
position = "{343, 550}";
}
);
layerId = "CCC0BD40-BA8C-414E-B576-CF0B94E6C996";
paths = (
{
closed = 1;
nodes = (
"100 0 LINE",
"167 420 LINE SMOOTH",
"173 464 OFFCURVE",
"201 491 OFFCURVE",
"238 491 CURVE SMOOTH",
"274 491 OFFCURVE",
"292 463 OFFCURVE",
"285 419 CURVE SMOOTH",
"219 0 LINE",
"293 0 LINE",
"360 420 LINE SMOOTH",
"366 464 OFFCURVE",
"394 491 OFFCURVE",
"430 491 CURVE SMOOTH",
"467 491 OFFCURVE",
"485 463 OFFCURVE",
"478 419 CURVE SMOOTH",
"412 0 LINE",
"496 0 LINE",
"562 418 LINE SMOOTH",
"576 502 OFFCURVE",
"539 560 OFFCURVE",
"469 560 CURVE SMOOTH",
"411 560 OFFCURVE",
"365 519 OFFCURVE",
"356 460 CURVE",
"383 477 LINE",
"341 477 LINE",
"360 430 LINE",
"372 507 OFFCURVE",
"341 560 OFFCURVE",
"277 560 CURVE SMOOTH",
"221 560 OFFCURVE",
"177 519 OFFCURVE",
"168 460 CURVE",
"190 477 LINE",
"170 477 LINE",
"181 550 LINE",
"103 550 LINE",
"16 0 LINE"
);
}
);
width = 600;
}
);
unicode = 006D;
},
{
glyphname = n;
layers = (
{
anchors = (
{
name = bottom;
position = "{256, 0}";
},
{
name = top;
position = "{348, 550}";
}
);
layerId = "EDF5EB54-295C-4C90-9A2F-67CD82979CFF";
paths = (
{
closed = 1;
nodes = (
"116 0 LINE",
"173 360 LINE SMOOTH",
"188 457 OFFCURVE",
"253 517 OFFCURVE",
"341 517 CURVE SMOOTH",
"427 517 OFFCURVE",
"471 459 OFFCURVE",
"455 360 CURVE SMOOTH",
"398 0 LINE",
"448 0 LINE",
"506 367 LINE SMOOTH",
"525 485 OFFCURVE",
"466 560 OFFCURVE",
"358 560 CURVE SMOOTH",
"259 560 OFFCURVE",
"187 500 OFFCURVE",
"172 404 CURVE",
"201 455 LINE",
"188 455 LINE",
"203 550 LINE",
"153 550 LINE",
"66 0 LINE"
);
}
);
width = 600;
},
{
anchors = (
{
name = bottom;
position = "{256, 0}";
},
{
name = top;
position = "{348, 550}";
}
);
layerId = "9ADF6715-3D0F-493D-8567-18A6FBCFC567";
paths = (
{
closed = 1;
nodes = (
"172 0 LINE",
"226 340 LINE SMOOTH",
"235 397 OFFCURVE",
"272 430 OFFCURVE",
"325 430 CURVE SMOOTH",
"378 430 OFFCURVE",
"405 397 OFFCURVE",
"396 340 CURVE SMOOTH",
"342 0 LINE",
"492 0 LINE",
"548 355 LINE SMOOTH",
"568 479 OFFCURVE",
"511 560 OFFCURVE",
"404 560 CURVE SMOOTH",
"314 560 OFFCURVE",
"242 499 OFFCURVE",
"227 410 CURVE",
"281 445 LINE",
"237 445 LINE",
"254 550 LINE",
"109 550 LINE",
"22 0 LINE"
);
}
);
width = 600;
},
{
anchors = (
{
name = bottom;
position = "{256, 0}";
},
{
name = top;
position = "{348, 550}";
}
);
layerId = "CCC0BD40-BA8C-414E-B576-CF0B94E6C996";
paths = (
{
closed = 1;
nodes = (
"138 0 LINE",
"193 350 LINE SMOOTH",
"207 435 OFFCURVE",
"261 484 OFFCURVE",
"336 484 CURVE SMOOTH",
"408 484 OFFCURVE",
"445 438 OFFCURVE",
"432 354 CURVE SMOOTH",
"376 0 LINE",
"466 0 LINE",
"525 370 LINE SMOOTH",
"543 487 OFFCURVE",
"484 560 OFFCURVE",
"374 560 CURVE SMOOTH",
"282 560 OFFCURVE",
"219 510 OFFCURVE",
"205 424 CURVE",
"227 445 LINE",
"208 445 LINE",
"225 550 LINE",
"135 550 LINE",
"48 0 LINE"
);
}
);
width = 600;
}
);
unicode = 006E;
},
{
glyphname = eng;
layers = (
{
layerId = "9ADF6715-3D0F-493D-8567-18A6FBCFC567";
paths = (
{
closed = 1;
nodes = (
"223 -180 LINE SMOOTH",
"364 -180 OFFCURVE",
"477 -96 OFFCURVE",
"496 25 CURVE SMOOTH",
"548 355 LINE SMOOTH",
"568 479 OFFCURVE",
"511 560 OFFCURVE",
"404 560 CURVE SMOOTH",
"313 560 OFFCURVE",
"247 503 OFFCURVE",
"232 410 CURVE",
"281 445 LINE",
"237 445 LINE",
"254 550 LINE",
"109 550 LINE",
"22 0 LINE",
"172 0 LINE",
"226 340 LINE SMOOTH",
"235 397 OFFCURVE",
"271 430 OFFCURVE",
"324 430 CURVE SMOOTH",
"378 430 OFFCURVE",
"405 397 OFFCURVE",
"396 340 CURVE SMOOTH",
"348 41 LINE SMOOTH",
"341 -7 OFFCURVE",
"307 -35 OFFCURVE",
"256 -35 CURVE SMOOTH",
"196 -35 LINE",
"173 -180 LINE"
);
}
);
width = 600;
},
{
layerId = "CCC0BD40-BA8C-414E-B576-CF0B94E6C996";
paths = (
{
closed = 1;
nodes = (
"230 -180 LINE SMOOTH",
"354 -180 OFFCURVE",
"448 -103 OFFCURVE",
"466 15 CURVE SMOOTH",
"523 370 LINE SMOOTH",
"541 487 OFFCURVE",
"484 560 OFFCURVE",
"374 560 CURVE SMOOTH",
"282 560 OFFCURVE",
"221 510 OFFCURVE",
"207 424 CURVE",
"229 445 LINE",
"210 445 LINE",
"227 550 LINE",
"137 550 LINE",
"50 0 LINE",
"140 0 LINE",
"195 350 LINE SMOOTH",
"209 435 OFFCURVE",
"261 484 OFFCURVE",
"336 484 CURVE SMOOTH",
"408 484 OFFCURVE",
"443 438 OFFCURVE",
"431 360 CURVE SMOOTH",
"376 15 LINE SMOOTH",
"365 -55 OFFCURVE",
"314 -98 OFFCURVE",
"243 -98 CURVE SMOOTH",
"180 -98 LINE",
"167 -180 LINE"
);
}
);
width = 600;
},
{
layerId = "EDF5EB54-295C-4C90-9A2F-67CD82979CFF";
paths = (
{
closed = 1;
nodes = (
"213 -180 LINE SMOOTH",
"338 -180 OFFCURVE",
"432 -104 OFFCURVE",
"450 15 CURVE SMOOTH",
"506 367 LINE SMOOTH",
"525 485 OFFCURVE",
"466 560 OFFCURVE",
"358 560 CURVE SMOOTH",
"260 560 OFFCURVE",
"188 499 OFFCURVE",
"173 404 CURVE",
"211 455 LINE",
"188 455 LINE",
"203 550 LINE",
"153 550 LINE",
"66 0 LINE",
"116 0 LINE",
"173 360 LINE SMOOTH",
"188 457 OFFCURVE",
"253 517 OFFCURVE",
"341 517 CURVE SMOOTH",
"427 517 OFFCURVE",
"471 459 OFFCURVE",
"455 360 CURVE SMOOTH",
"400 15 LINE SMOOTH",
"386 -78 OFFCURVE",
"317 -135 OFFCURVE",
"221 -135 CURVE SMOOTH",
"180 -135 LINE",
"172 -180 LINE"
);
}
);
width = 600;
}
);
unicode = 014B;
},
{
glyphname = o;
layers = (
{
anchors = (
{
name = bottom;
position = "{256, 0}";
},
{
name = center;
position = "{300, 275}";
},
{
name = horn;
position = "{363, 550}";
},
{
name = ogonek;
position = "{305, 0}";
},
{
name = top;
position = "{343, 550}";
},
{
name = topright;
position = "{624, 550}";
}
);
layerId = "9ADF6715-3D0F-493D-8567-18A6FBCFC567";
paths = (
{
closed = 1;
nodes = (
"407 -10 OFFCURVE",
"506 70 OFFCURVE",
"529 210 CURVE SMOOTH",
"550 340 LINE SMOOTH",
"571 470 OFFCURVE",
"490 560 OFFCURVE",
"345 560 CURVE SMOOTH",
"192 560 OFFCURVE",
"93 480 OFFCURVE",
"70 340 CURVE SMOOTH",
"49 210 LINE SMOOTH",
"28 80 OFFCURVE",
"109 -10 OFFCURVE",
"254 -10 CURVE SMOOTH"
);
},
{
closed = 1;
nodes = (
"217 120 OFFCURVE",
"190 152 OFFCURVE",
"199 210 CURVE SMOOTH",
"220 340 LINE SMOOTH",
"229 398 OFFCURVE",
"266 430 OFFCURVE",
"324 430 CURVE SMOOTH",
"382 430 OFFCURVE",
"409 398 OFFCURVE",
"400 340 CURVE SMOOTH",
"379 210 LINE SMOOTH",
"370 152 OFFCURVE",
"333 120 OFFCURVE",
"275 120 CURVE SMOOTH"
);
}
);
width = 600;
},
{
anchors = (
{
name = bottom;
position = "{256, 0}";
},
{
name = center;
position = "{300, 275}";
},
{
name = horn;
position = "{375, 550}";
},
{
name = ogonek;
position = "{305, 0}";
},
{
name = top;
position = "{343, 550}";
},
{
name = topright;
position = "{624, 550}";
}
);
layerId = "CCC0BD40-BA8C-414E-B576-CF0B94E6C996";
paths = (
{
closed = 1;
nodes = (
"389 -10 OFFCURVE",
"479 67 OFFCURVE",
"500 200 CURVE SMOOTH",
"524 351 LINE SMOOTH",
"544 479 OFFCURVE",
"474 560 OFFCURVE",
"345 560 CURVE SMOOTH",
"209 560 OFFCURVE",
"119 483 OFFCURVE",
"99 350 CURVE SMOOTH",
"76 200 LINE SMOOTH",
"56 71 OFFCURVE",
"125 -10 OFFCURVE",
"254 -10 CURVE SMOOTH"
);
},
{
closed = 1;
nodes = (
"189 70 OFFCURVE",
"153 115 OFFCURVE",
"166 200 CURVE SMOOTH",
"189 350 LINE SMOOTH",
"202 435 OFFCURVE",
"254 480 OFFCURVE",
"332 480 CURVE SMOOTH",
"410 480 OFFCURVE",
"446 435 OFFCURVE",
"433 350 CURVE SMOOTH",
"410 200 LINE SMOOTH",
"397 115 OFFCURVE",
"345 70 OFFCURVE",
"267 70 CURVE SMOOTH"
);
}
);
visible = 1;
width = 600;
},
{
anchors = (
{
name = bottom;
position = "{256, 0}";
},
{
name = center;
position = "{300, 275}";
},
{
name = horn;
position = "{363, 550}";
},
{
name = ogonek;
position = "{305, 0}";
},
{
name = top;
position = "{343, 550}";
},
{
name = topright;
position = "{624, 550}";
}
);
layerId = "EDF5EB54-295C-4C90-9A2F-67CD82979CFF";
paths = (
{
closed = 1;
nodes = (
"377 -10 OFFCURVE",
"461 66 OFFCURVE",
"481 190 CURVE SMOOTH",
"508 360 LINE SMOOTH",
"527 481 OFFCURVE",
"463 560 OFFCURVE",
"345 560 CURVE SMOOTH",
"223 560 OFFCURVE",
"138 483 OFFCURVE",
"118 360 CURVE SMOOTH",
"91 190 LINE SMOOTH",
"72 68 OFFCURVE",
"136 -10 OFFCURVE",
"254 -10 CURVE SMOOTH"
);
},
{
closed = 1;
nodes = (
"169 34 OFFCURVE",
"125 91 OFFCURVE",
"141 190 CURVE SMOOTH",
"168 360 LINE SMOOTH",
"184 458 OFFCURVE",
"247 516 OFFCURVE",
"338 516 CURVE SMOOTH",
"429 516 OFFCURVE",
"474 458 OFFCURVE",
"458 360 CURVE SMOOTH",
"431 190 LINE SMOOTH",
"415 91 OFFCURVE",
"353 34 OFFCURVE",
"261 34 CURVE SMOOTH"
);
}
);
width = 600;
}
);
unicode = 006F;
},
{
glyphname = ohorn;
layers = (
{
anchors = (
{
name = top;
position = "{340, 550}";
}
);
components = (
{
name = o;
}
);
layerId = "EDF5EB54-295C-4C90-9A2F-67CD82979CFF";
paths = (
{
closed = 1;
nodes = (
"475 495 LINE SMOOTH",
"526 495 OFFCURVE",
"565 529 OFFCURVE",
"573 580 CURVE SMOOTH",
"583 640 LINE",
"543 640 LINE",
"533 580 LINE SMOOTH",
"528 550 OFFCURVE",
"508 530 OFFCURVE",
"481 530 CURVE SMOOTH",
"446 530 LINE",
"440 495 LINE"
);
}
);
width = 600;
},
{
anchors = (
{
name = top;
position = "{333, 550}";
}
);
components = (
{
name = o;
}
);
layerId = "CCC0BD40-BA8C-414E-B576-CF0B94E6C996";
paths = (
{
closed = 1;
nodes = (
"465 465 LINE SMOOTH",
"528 465 OFFCURVE",
"576 503 OFFCURVE",
"585 560 CURVE SMOOTH",
"597 640 LINE",
"522 640 LINE",
"510 565 LINE SMOOTH",
"507 542 OFFCURVE",
"493 530 OFFCURVE",
"470 530 CURVE SMOOTH",
"436 530 LINE",
"426 465 LINE"
);
}
);
width = 600;
},
{
anchors = (
{
name = top;
position = "{333, 550}";
}
);
components = (
{
name = o;
}
);
layerId = "9ADF6715-3D0F-493D-8567-18A6FBCFC567";
paths = (
{
closed = 1;
nodes = (
"459 430 LINE SMOOTH",
"546 430 OFFCURVE",
"613 484 OFFCURVE",
"625 565 CURVE SMOOTH",
"637 640 LINE",
"517 640 LINE",
"505 565 LINE SMOOTH",
"502 543 OFFCURVE",
"487 530 OFFCURVE",
"465 530 CURVE SMOOTH",
"405 530 LINE",
"389 430 LINE"
);
}
);
width = 600;
}
);
unicode = 01A1;
},
{
glyphname = oogonek;
layers = (
{
anchors = (
{
name = horn;
position = "{363, 550}";
},
{
name = top;
position = "{343, 550}";
}
);
layerId = "9ADF6715-3D0F-493D-8567-18A6FBCFC567";
paths = (
{
closed = 1;
nodes = (
"387 -225 LINE",
"404 -120 LINE",
"335 -120 LINE SMOOTH",
"306 -120 OFFCURVE",
"292 -103 OFFCURVE",
"295 -83 CURVE SMOOTH",
"298 -66 OFFCURVE",
"316 -41 OFFCURVE",
"346 -18 CURVE SMOOTH",
"410 31 LINE",
"470 70 OFFCURVE",
"517 135 OFFCURVE",
"529 210 CURVE SMOOTH",
"550 340 LINE SMOOTH",
"571 472 OFFCURVE",
"492 560 OFFCURVE",
"345 560 CURVE SMOOTH",
"198 560 OFFCURVE",
"91 472 OFFCURVE",
"70 340 CURVE SMOOTH",
"49 210 LINE SMOOTH",
"28 78 OFFCURVE",
"107 -10 OFFCURVE",
"254 -10 CURVE SMOOTH",
"275 -10 OFFCURVE",
"321 12 OFFCURVE",
"324 31 CURVE",
"224 -19 OFFCURVE",
"173 -68 OFFCURVE",
"166 -115 CURVE SMOOTH",
"155 -180 OFFCURVE",
"198 -225 OFFCURVE",
"279 -225 CURVE SMOOTH"
);
},
{
closed = 1;
nodes = (
"217 120 OFFCURVE",
"190 152 OFFCURVE",
"199 210 CURVE SMOOTH",
"220 340 LINE SMOOTH",
"229 398 OFFCURVE",
"266 430 OFFCURVE",
"324 430 CURVE SMOOTH",
"382 430 OFFCURVE",
"409 398 OFFCURVE",
"400 340 CURVE SMOOTH",
"379 210 LINE SMOOTH",
"370 152 OFFCURVE",
"333 120 OFFCURVE",
"275 120 CURVE SMOOTH"
);
}
);
width = 600;
},
{
anchors = (
{
name = horn;
position = "{375, 550}";
},
{
name = top;
position = "{343, 550}";
}
);
layerId = "CCC0BD40-BA8C-414E-B576-CF0B94E6C996";
paths = (
{
closed = 1;
nodes = (
"374 -203 LINE",
"383 -143 LINE",
"323 -143 LINE SMOOTH",
"289 -143 OFFCURVE",
"272 -122 OFFCURVE",
"276 -93 CURVE SMOOTH",
"281 -65 OFFCURVE",
"304 -36 OFFCURVE",
"355 1 CURVE SMOOTH",
"382 21 LINE",
"445 55 OFFCURVE",
"487 117 OFFCURVE",
"500 200 CURVE SMOOTH",
"524 351 LINE SMOOTH",
"544 481 OFFCURVE",
"476 560 OFFCURVE",
"345 560 CURVE SMOOTH",
"214 560 OFFCURVE",
"120 481 OFFCURVE",
"99 350 CURVE SMOOTH",
"76 200 LINE SMOOTH",
"55 69 OFFCURVE",
"123 -10 OFFCURVE",
"254 -10 CURVE SMOOTH",
"257 -10 OFFCURVE",
"260 -10 OFFCURVE",
"263 -10 CURVE",
"211 -51 OFFCURVE",
"193 -81 OFFCURVE",
"189 -110 CURVE SMOOTH",
"180 -164 OFFCURVE",
"222 -203 OFFCURVE",
"296 -203 CURVE SMOOTH"
);
},
{
closed = 1;
nodes = (
"189 70 OFFCURVE",
"152 115 OFFCURVE",
"166 200 CURVE SMOOTH",
"189 350 LINE SMOOTH",
"203 435 OFFCURVE",
"254 480 OFFCURVE",
"332 480 CURVE SMOOTH",
"410 480 OFFCURVE",
"447 435 OFFCURVE",
"433 350 CURVE SMOOTH",
"410 200 LINE SMOOTH",
"396 115 OFFCURVE",
"345 70 OFFCURVE",
"267 70 CURVE SMOOTH"
);
}
);
width = 600;
},
{
anchors = (
{
name = horn;
position = "{363, 550}";
},
{
name = top;
position = "{343, 550}";
}
);
layerId = "EDF5EB54-295C-4C90-9A2F-67CD82979CFF";
paths = (
{
closed = 1;
nodes = (
"371 -195 LINE",
"378 -153 LINE",
"314 -153 LINE SMOOTH",
"282 -153 OFFCURVE",
"266 -134 OFFCURVE",
"271 -103 CURVE SMOOTH",
"275 -75 OFFCURVE",
"304 -36 OFFCURVE",
"348 0 CURVE SMOOTH",
"379 25 LINE",
"432 59 OFFCURVE",
"469 116 OFFCURVE",
"481 190 CURVE SMOOTH",
"508 360 LINE SMOOTH",
"527 481 OFFCURVE",
"463 560 OFFCURVE",
"345 560 CURVE SMOOTH",
"227 560 OFFCURVE",
"137 481 OFFCURVE",
"118 360 CURVE SMOOTH",
"91 190 LINE SMOOTH",
"72 68 OFFCURVE",
"136 -10 OFFCURVE",
"254 -10 CURVE SMOOTH",
"270 -10 OFFCURVE",
"287 -9 OFFCURVE",
"301 -6 CURVE",
"252 -47 OFFCURVE",
"227 -83 OFFCURVE",
"222 -115 CURVE SMOOTH",
"214 -165 OFFCURVE",
"243 -195 OFFCURVE",
"298 -195 CURVE SMOOTH"
);
},
{
closed = 1;
nodes = (
"169 34 OFFCURVE",
"125 91 OFFCURVE",
"141 190 CURVE SMOOTH",
"168 360 LINE SMOOTH",
"184 458 OFFCURVE",
"247 516 OFFCURVE",
"338 516 CURVE SMOOTH",
"429 516 OFFCURVE",
"474 458 OFFCURVE",
"458 360 CURVE SMOOTH",
"431 190 LINE SMOOTH",
"415 91 OFFCURVE",
"353 34 OFFCURVE",
"261 34 CURVE SMOOTH"
);
}
);
width = 600;
}
);
unicode = 01EB;
},
